<svg width="30" height="30" viewBox="0 0 30 30" fill="none" xmlns="http://www.w3.org/2000/svg">
<path fill-rule="evenodd" clip-rule="evenodd" d="M3.75 3.75H23.75C25.1375 3.75 26.25 4.8625 26.25 6.25V10C26.25 11.375 25.1375 12.5 23.75 12.5H21.25V16.25C21.25 19.0125 19.0125 21.25 16.25 21.25H8.75C5.9875 21.25 3.75 19.0125 3.75 16.25V3.75ZM23.75 23.75H3.75V26.25H23.75V23.75ZM18.75 16.25C18.75 17.625 17.625 18.75 16.25 18.75H8.75C7.375 18.75 6.25 17.625 6.25 16.25V6.25H18.75V16.25ZM21.25 10H23.75V6.25H21.25V10Z" fill="#799FFF"/>
</svg>
