<svg width="116" height="29" viewBox="0 0 116 29" fill="none" xmlns="http://www.w3.org/2000/svg">
<path d="M14.9638 2.908V5.572H4.05581V14.032H6.26981H8.4838H12.9118V16.696H4.05581V28H0.779812V2.908H14.9638ZM20.6124 5.068C19.9884 5.068 19.4604 4.85201 19.0284 4.42C18.5964 3.988 18.3804 3.46 18.3804 2.836C18.3804 2.212 18.5964 1.684 19.0284 1.252C19.4604 0.820004 19.9884 0.604004 20.6124 0.604004C21.2124 0.604004 21.7164 0.820004 22.1244 1.252C22.5564 1.684 22.7724 2.212 22.7724 2.836C22.7724 3.46 22.5564 3.988 22.1244 4.42C21.7164 4.85201 21.2124 5.068 20.6124 5.068ZM22.1964 8.27201V28H18.9204V8.27201H22.1964ZM37.3918 7.912C39.7918 7.912 41.7358 8.644 43.2238 10.108C44.7118 11.548 45.4558 13.636 45.4558 16.372V28H42.2158V16.84C42.2158 14.872 41.7238 13.372 40.7398 12.34C39.7558 11.284 38.4118 10.756 36.7078 10.756C34.9798 10.756 33.5998 11.296 32.5678 12.376C31.5598 13.456 31.0558 15.028 31.0558 17.092V28H27.7798V8.27201H31.0558V12.08C31.3684 10.756 32.5798 9.292 33.6838 8.74C34.8118 8.188 36.0478 7.912 37.3918 7.912ZM58.6192 2.908C61.3552 2.908 63.7192 3.424 65.7112 4.456C67.7272 5.464 69.2632 6.91601 70.3192 8.81201C71.3992 10.708 71.9392 12.94 71.9392 15.508C71.9392 18.076 71.3992 20.308 70.3192 22.204C69.2632 24.076 67.7272 25.516 65.7112 26.524C63.7192 27.508 61.3552 28 58.6192 28H50.8072V2.908H58.6192ZM58.6192 25.3C61.8592 25.3 64.3312 24.448 66.0352 22.744C67.7392 21.016 68.5912 18.604 68.5912 15.508C68.5912 12.388 67.7272 9.952 65.9992 8.2C64.2952 6.448 61.8352 5.572 58.6192 5.572H54.0832V25.3H58.6192ZM94.2603 17.38C94.2603 18.004 94.2243 18.664 94.1523 19.36H78.3843C78.5043 21.304 79.1643 22.828 80.3643 23.932C81.5883 25.012 83.0643 25.552 84.7923 25.552C86.2083 25.552 87.3843 25.228 88.3203 24.58C89.2803 23.908 89.9523 23.02 90.3363 21.916H93.8643C93.3363 23.812 92.2803 25.36 90.6963 26.56C89.1123 27.736 87.1443 28.324 84.7923 28.324C82.9203 28.324 81.2403 27.904 79.7523 27.064C78.2883 26.224 77.1363 25.036 76.2963 23.5C75.4563 21.94 75.0363 20.14 75.0363 18.1C75.0363 16.06 75.4443 14.272 76.2603 12.736C77.0763 11.2 78.2163 10.024 79.6803 9.208C81.1683 8.368 82.8723 7.948 84.7923 7.948C86.6643 7.948 88.3203 8.356 89.7603 9.172C91.2003 9.988 92.3043 11.116 93.0723 12.556C93.8643 13.972 94.2603 15.58 94.2603 17.38ZM90.8763 16.696C90.8763 15.448 90.6003 14.38 90.0483 13.492C89.4963 12.58 88.7403 11.896 87.7803 11.44C86.8443 10.96 85.8003 10.72 84.6483 10.72C82.9923 10.72 81.5763 11.248 80.4003 12.304C79.2483 13.36 78.5883 14.824 78.4203 16.696H79.1988H79.9773H81.5343H84.6483H90.8763ZM105.929 24.976L112.049 8.27201H115.541L107.801 28H103.985L96.2445 8.27201H99.7725L105.929 24.976Z" fill="white"/>
</svg>
