<svg width="447" height="365" viewBox="0 0 447 365" fill="none" xmlns="http://www.w3.org/2000/svg">
<path d="M228.234 359.231C229.257 354.085 232.432 349.367 236.89 346.355" stroke="#04D361" stroke-width="0.779" stroke-miterlimit="10"/>
<path d="M228.096 360.679C228.288 356.382 230.018 346.038 234.107 339.563" stroke="#04D361" stroke-width="0.779" stroke-miterlimit="10"/>
<path d="M228.158 360.147C228.865 352.483 228.803 344.015 227.558 336.41" stroke="#04D361" stroke-width="0.779" stroke-miterlimit="10"/>
<path d="M237.605 344.409L237.605 344.409C237.565 344.477 237.525 344.545 237.485 344.613C236.981 345.467 236.475 346.325 235.87 347.146C235.968 347.111 236.068 347.073 236.171 347.034C236.267 346.997 236.366 346.958 236.467 346.918C236.997 346.711 237.591 346.477 238.088 346.407L238.089 346.406C239.507 346.206 240.953 346.262 242.341 346.435L242.341 346.435C243.423 346.571 244.502 346.776 245.563 346.978C245.907 347.044 246.249 347.109 246.588 347.171C247.986 347.428 249.359 347.639 250.741 347.657L250.741 347.657C251.524 347.667 252.352 347.569 253.049 347.312C253.744 347.055 254.263 346.658 254.524 346.094L254.524 346.093C254.949 345.18 254.519 343.944 253.59 343.202L253.588 343.201C252.668 342.461 251.399 342.162 250.073 342.039L250.073 342.039C249.591 341.994 249.11 341.971 248.616 341.947C248.433 341.938 248.248 341.929 248.061 341.919C247.378 341.882 246.675 341.829 245.978 341.701L245.977 341.701C245.561 341.624 245.15 341.521 244.753 341.419C244.69 341.403 244.628 341.387 244.566 341.371C244.231 341.284 243.907 341.2 243.583 341.129C242.816 340.961 242.104 340.877 241.41 341.007L237.605 344.409ZM237.605 344.409L237.606 344.407M237.605 344.409L237.606 344.407M237.606 344.407C238.548 342.797 239.748 341.317 241.409 341.007L237.606 344.407Z" fill="#04D361" stroke="#04D361"/>
<path d="M233.718 340.25C234.178 339.859 234.621 339.392 235.082 338.893C235.149 338.82 235.216 338.747 235.284 338.673C235.904 337.998 236.562 337.282 237.293 336.723C239.289 335.193 241.709 334.01 244.317 333.816C245.341 333.738 246.349 333.817 247.331 333.936C247.769 333.99 248.188 334.049 248.601 334.108C249.143 334.184 249.676 334.26 250.234 334.319C252.154 334.523 254.096 334.455 255.602 333.54C256.33 333.098 256.907 332.381 257.189 331.603C257.47 330.827 257.444 330.034 257.043 329.388L257.043 329.387C256.517 328.535 255.432 328.037 254.269 327.869L233.718 340.25ZM233.718 340.25C233.737 340.171 233.76 340.086 233.785 339.995C233.968 339.35 234.293 338.524 234.666 337.667C235.232 336.369 235.885 335.056 236.284 334.253C236.413 333.993 236.515 333.787 236.58 333.652C237.889 330.927 239.9 328.383 242.739 327.621L242.739 327.621C243.945 327.297 245.204 327.309 246.526 327.422C246.975 327.46 247.439 327.512 247.911 327.564C248.795 327.661 249.706 327.761 250.59 327.786L250.592 327.786C251.016 327.796 251.45 327.789 251.872 327.782C252.077 327.779 252.28 327.776 252.477 327.775C253.093 327.771 253.687 327.786 254.269 327.869L233.718 340.25Z" fill="#04D361" stroke="#04D361"/>
<path d="M228.929 333.381C228.893 333.486 228.852 333.617 228.805 333.767C228.663 334.22 228.467 334.843 228.225 335.434C228.064 335.826 227.894 336.175 227.723 336.427C227.638 336.552 227.562 336.64 227.5 336.695C227.443 336.744 227.414 336.753 227.413 336.753C227.345 336.766 227.182 336.748 226.903 336.614C226.64 336.489 226.343 336.294 226.04 336.064C225.436 335.607 224.868 335.057 224.592 334.78C223.752 333.932 223.086 332.935 222.676 331.848L222.675 331.846C222.193 330.588 222.025 329.241 221.857 327.822C221.853 327.79 221.849 327.757 221.845 327.724C221.683 326.356 221.513 324.92 221.018 323.555L221.017 323.555C220.453 322.009 219.492 320.625 218.578 319.312C218.34 318.969 218.105 318.63 217.881 318.295C216.773 316.637 215.852 314.886 215.867 313.062C215.881 311.241 217.087 309.408 218.817 309.113L218.818 309.113C219.964 308.916 221.189 309.378 222.206 310.117L222.207 310.118C223.645 311.159 224.691 312.679 225.138 314.353C225.406 315.367 225.459 316.425 225.512 317.544L225.514 317.594C225.565 318.681 225.618 319.826 225.905 320.941C226.262 322.341 226.969 323.623 227.639 324.838C227.691 324.932 227.742 325.025 227.794 325.118C228.52 326.44 229.172 327.695 229.402 329.059L229.402 329.06C229.645 330.485 229.399 331.954 228.929 333.381ZM228.929 333.381C228.929 333.381 228.929 333.38 228.929 333.38L229.403 333.538M228.929 333.381C228.928 333.381 228.928 333.382 228.928 333.382L229.403 333.538M229.403 333.538C229.887 332.069 230.156 330.511 229.895 328.976M229.403 333.538C229.372 333.633 229.333 333.755 229.288 333.899C228.959 334.948 228.282 337.102 227.504 337.245C226.59 337.415 224.799 335.694 224.237 335.133C223.353 334.24 222.646 333.184 222.208 332.025L229.895 328.976M229.895 328.976C229.632 327.418 228.859 326.014 228.083 324.608C227.407 323.381 226.73 322.152 226.39 320.817C226.115 319.752 226.064 318.65 226.012 317.549C225.96 316.428 225.908 315.307 225.621 314.224C225.144 312.437 224.03 310.821 222.5 309.713C221.424 308.931 220.063 308.392 218.734 308.62L229.895 328.976Z" fill="#04D361" stroke="#04D361"/>
<path d="M228.081 359.425C227.558 352.654 225.744 345.005 221.8 339.372" stroke="#04D361" stroke-width="0.779" stroke-miterlimit="10"/>
<path d="M220.778 334.317L220.779 334.319C221.34 335.82 221.687 337.395 221.977 338.988L221.978 338.99C221.994 339.077 222.022 339.19 222.048 339.298C222.058 339.338 222.068 339.377 222.076 339.414C222.113 339.566 222.145 339.718 222.162 339.86C222.18 340.006 222.177 340.113 222.163 340.184C222.157 340.209 222.152 340.224 222.148 340.232C222.135 340.234 222.107 340.237 222.054 340.23C221.955 340.215 221.821 340.17 221.664 340.093C221.352 339.939 221.045 339.708 220.89 339.576C220.612 339.332 220.365 339.049 220.115 338.737C220.027 338.629 219.936 338.512 219.842 338.392C219.679 338.183 219.508 337.965 219.338 337.764L219.338 337.763C217.033 335.044 213.4 333.745 209.908 333.265C208.158 333.024 206.4 332.961 204.658 332.934C204.198 332.927 203.739 332.922 203.281 332.918C202.001 332.905 200.733 332.892 199.466 332.825L199.466 332.825L199.462 332.825C198.671 332.788 197.977 332.704 197.469 332.358C196.817 331.91 196.541 330.992 196.743 330.148C196.945 329.309 197.552 328.553 198.319 327.922L198.32 327.922C200.009 326.529 202.258 325.823 204.536 325.68C206.813 325.537 209.115 325.929 211.367 326.514L211.367 326.514C213.538 327.077 215.644 327.831 217.297 329.165C218.928 330.487 220.045 332.335 220.778 334.317ZM222.143 340.239C222.143 340.239 222.144 340.238 222.145 340.236C222.144 340.238 222.143 340.239 222.143 340.239ZM222.53 339.162C222.505 339.061 222.483 338.971 222.469 338.899L220.563 339.954C220.909 340.25 221.939 340.995 222.438 340.641C222.825 340.367 222.647 339.64 222.53 339.162Z" fill="#04D361" stroke="#04D361"/>
<path d="M227.935 360.147C227.627 354.241 224.86 348.482 220.386 344.421" stroke="#04D361" stroke-width="0.779" stroke-miterlimit="10"/>
<path d="M218.014 341.412C216.474 340.626 214.728 340.113 213 339.648L218.014 341.412ZM218.014 341.412C218.131 341.472 218.235 341.525 218.338 341.584L218.338 341.584L218.349 341.591C219.002 341.945 219.439 342.561 219.935 343.286C219.987 343.362 220.071 343.524 220.19 343.769C220.225 343.842 220.263 343.922 220.302 344.004C220.383 344.173 220.471 344.357 220.56 344.534C218.518 344.031 216.297 344.052 214.355 344.069L214.325 344.07C214.324 344.07 214.324 344.07 214.324 344.07M218.014 341.412L214.324 344.07M214.324 344.07C211.578 344.092 208.83 344.582 206.261 345.533L206.261 345.533L206.259 345.534C205.916 345.662 205.583 345.795 205.255 345.925C204.01 346.421 202.847 346.883 201.59 346.95C201.175 346.969 200.736 346.911 200.386 346.769C200.037 346.627 199.827 346.426 199.745 346.18C199.617 345.774 199.836 345.264 200.271 344.707L200.271 344.707M214.324 344.07L200.271 344.707M200.271 344.707L200.273 344.706M200.271 344.707L200.273 344.706M200.273 344.706C201.123 343.607 202.223 342.704 203.368 341.767C204.861 340.55 206.325 339.393 208.078 339.066L200.273 344.706ZM221.219 344.717C221.06 344.428 220.9 344.095 220.756 343.794C220.593 343.453 220.45 343.154 220.348 343.004C219.863 342.296 219.364 341.572 218.587 341.151C218.472 341.085 218.357 341.026 218.242 340.967L221.219 344.717ZM208.079 339.066C209.655 338.773 211.305 339.192 213 339.648L208.079 339.066Z" fill="#04D361" stroke="#04D361"/>
<path d="M446.849 335.287C446.395 333.707 445.027 332.606 443.72 331.595C441.914 330.192 439.877 328.723 437.486 328.878M446.849 335.287L437.486 328.878M446.849 335.287C447.402 337.214 446.38 339.451 444.719 340.78L446.849 335.287ZM437.486 328.878L437.518 329.377C437.519 329.377 437.519 329.377 437.519 329.377C437.519 329.377 437.52 329.377 437.52 329.377L437.486 328.878ZM420.846 327.036C420.846 327.036 420.846 327.036 420.846 327.036L420.636 326.582L420.846 327.036ZM408.961 339.306C408.961 339.306 408.961 339.306 408.962 339.306L408.721 338.867L408.961 339.306ZM404.449 344.748L403.986 344.56L404.449 344.749C404.449 344.749 404.449 344.749 404.449 344.748C404.449 344.748 404.449 344.748 404.449 344.748ZM415.655 349.078L415.634 348.579C415.634 348.579 415.634 348.579 415.634 348.579L415.655 349.078ZM431.08 348.908C431.08 348.908 431.08 348.909 431.08 348.909C431.08 348.909 431.08 348.909 431.079 348.91L431.521 349.145L431.08 348.908Z" fill="#04D361" stroke="#04D361"/>
<path d="M403.463 351.034C413.695 342.595 425.633 337.006 438.516 334.628" stroke="white" stroke-width="0.7047" stroke-miterlimit="10" stroke-linecap="round" stroke-linejoin="round"/>
<path d="M413.579 338.055C413.818 335.272 413.272 332.37 414.225 329.734C415.924 325.039 421.812 322.588 423.288 317.825C425.056 312.133 419.66 306.323 420.598 300.453C420.99 297.98 422.473 295.802 423.396 293.461C424.318 291.121 424.556 288.19 422.765 286.366C420.89 284.461 417.484 284.683 415.255 286.204C413.026 287.724 411.742 290.19 410.697 292.619C409.659 295.049 408.744 297.588 406.984 299.604C403.778 303.273 398.013 304.883 396.261 309.364C394.477 313.927 397.852 318.756 398.451 323.592C398.905 327.254 397.744 330.901 396.706 334.46C395.676 338.018 394.762 341.784 395.707 345.357C396.968 350.119 401.434 353.154 405.716 350.097C409.951 347.092 413.141 343.29 413.579 338.055Z" fill="#04D361"/>
<path d="M403.002 351.264C401.303 334.268 405.193 315.832 414.279 301.155" stroke="white" stroke-width="1.1364" stroke-miterlimit="10" stroke-linecap="round" stroke-linejoin="round"/>
<path d="M391.687 344.855C389.819 342.323 388.75 339.156 386.214 337.229C383.308 335.014 379.28 334.991 375.59 334.704C371.893 334.416 367.726 333.411 366.012 330.252C365.074 328.516 365.074 326.457 364.421 324.611C363.698 322.58 362.223 320.897 361.185 319C360.155 317.102 359.609 314.688 360.808 312.879C362.023 311.048 364.682 310.509 366.858 311.1C369.033 311.69 370.817 313.16 372.446 314.666C374.076 316.172 375.667 317.781 377.673 318.771C381.002 320.402 384.953 320.1 388.689 319.945C392.425 319.797 396.499 319.945 399.389 322.233C401.765 324.116 402.848 327.077 403.817 329.89C405.216 333.914 406.646 337.923 408.006 341.961C408.844 344.442 410.443 348.244 407.753 350.193C403.01 353.626 394.423 348.554 391.687 344.855Z" fill="#04D361"/>
<path d="M406.254 350.34C400.319 337.109 387.759 325.843 372.723 320.874" stroke="white" stroke-width="0.8174" stroke-miterlimit="10" stroke-linecap="round" stroke-linejoin="round"/>
<path d="M64.3593 349.732C66.0582 347.303 67.0421 344.187 69.3251 342.408C71.9464 340.378 75.5516 340.643 78.8724 340.607C82.1855 340.577 85.929 339.861 87.4972 336.789C88.3581 335.106 88.3658 333.024 88.9731 331.2C89.6342 329.2 90.9717 327.605 91.9172 325.759C92.855 323.913 93.3624 321.514 92.3093 319.602C91.2331 317.667 88.8578 316.936 86.9053 317.379C84.9528 317.822 83.3385 319.181 81.8703 320.584C80.4021 321.986 78.9646 323.5 77.1505 324.356C74.1526 325.774 70.6166 325.183 67.265 324.762C63.9135 324.349 60.2622 324.216 57.6563 326.32C55.5116 328.055 54.52 330.972 53.6206 333.74C52.3369 337.705 51.0224 341.655 49.7694 345.634C49.0007 348.086 47.5325 351.807 49.9309 353.97C54.1356 357.794 61.8764 353.276 64.3593 349.732Z" fill="#04D361"/>
<path d="M51.2605 354.251C56.6875 341.301 68.0335 330.809 81.5473 326.845" stroke="white" stroke-width="0.7781" stroke-miterlimit="10" stroke-linecap="round" stroke-linejoin="round"/>
<path d="M43.8196 342.932C43.6352 340.37 44.0656 337.705 43.3046 335.276C41.944 330.957 37.2242 328.705 36.0404 324.327C34.626 319.092 38.9461 313.747 38.2005 308.343C37.8853 306.069 36.6938 304.068 35.9558 301.912C35.2179 299.756 35.0257 297.061 36.4632 295.385C37.9698 293.628 40.691 293.835 42.4821 295.238C44.2655 296.64 45.2955 298.907 46.1334 301.137C46.9636 303.366 47.7016 305.707 49.1083 307.56C51.6757 310.934 56.2956 312.411 57.6947 316.538C59.1244 320.739 56.4186 325.176 55.942 329.628C55.5807 333.002 56.5109 336.354 57.3411 339.625C58.1713 342.896 58.9015 346.358 58.1405 349.651C57.1335 354.029 53.5514 356.82 50.123 354.014C46.733 351.246 44.1732 347.746 43.8196 342.932Z" fill="#04D361"/>
<path d="M52.2905 355.077C53.6511 339.447 50.5302 322.488 43.2583 308.984" stroke="white" stroke-width="0.9754" stroke-miterlimit="10" stroke-linecap="round" stroke-linejoin="round"/>
<path d="M17.0256 342.808C16.1144 341.69 14.9217 341.179 13.7001 340.919C12.8196 340.732 11.8778 340.669 11.0045 340.611C10.6928 340.59 10.3899 340.569 10.1016 340.544L10.1006 340.544C7.66884 340.337 5.1416 339.475 3.20678 337.645L3.20609 337.644C1.25825 335.809 0.0751457 332.889 0.643115 330.551C1.11313 328.632 2.59574 327.34 4.1558 326.065L4.15631 326.065C6.32832 324.285 8.58469 322.612 11.2209 322.969L11.2216 322.97C12.1721 323.097 13.115 323.483 14.1313 323.899L14.1917 323.924C15.204 324.339 16.2931 324.779 17.4191 324.891C18.8437 325.033 20.1257 324.643 21.2981 324.066C22.1857 323.63 23.0434 323.068 23.8571 322.535C24.1044 322.373 24.3477 322.214 24.5865 322.061L24.5875 322.061C26.6733 320.723 29.124 319.811 31.2952 321.048C33.188 322.132 34.2878 324.523 35.0569 326.917L35.0573 326.918C35.1524 327.211 35.2463 327.509 35.3413 327.812C36.0042 329.92 36.7225 332.205 38.2672 333.913C39.3649 335.132 40.7103 335.881 42.0497 336.523C42.3791 336.681 42.7059 336.831 43.029 336.98C44.0431 337.447 45.0211 337.898 45.933 338.505L45.9336 338.506C48.5284 340.228 50.4289 343.179 51.5912 346.296C51.6064 346.337 51.6218 346.379 51.6375 346.421C52.0698 347.584 52.6928 349.26 53.0524 350.892C53.2386 351.737 53.3491 352.549 53.3318 353.257C53.3144 353.971 53.1685 354.527 52.892 354.911L52.8908 354.913C52.2819 355.764 51.1816 355.894 49.7627 355.558C48.3718 355.227 46.9007 354.495 45.8377 353.953L45.8373 353.953C45.4578 353.76 45.0724 353.558 44.6829 353.353C43.839 352.911 42.9763 352.458 42.115 352.067C40.8466 351.491 39.5288 351.023 38.162 350.874L38.162 350.874C35.7148 350.609 33.4344 351.416 31.3598 352.195L31.3036 352.217C29.22 352.999 27.2015 353.758 25.032 353.626C22.86 353.495 20.4842 352.243 19.4331 350.069C18.9944 349.155 18.8039 348.145 18.6009 347.069C18.5644 346.875 18.5274 346.68 18.4885 346.482C18.2409 345.221 17.9146 343.895 17.0256 342.808ZM17.0256 342.808C17.0257 342.808 17.0258 342.809 17.026 342.809L16.6383 343.125M17.0256 342.808C17.0255 342.808 17.0254 342.808 17.0253 342.808L16.6383 343.125M16.6383 343.125C15.229 341.394 13.0495 341.249 11.0043 341.112C10.6845 341.091 10.368 341.069 10.0582 341.042L16.6383 343.125Z" fill="#04D361" stroke="#04D361"/>
<path d="M52.844 354.901C40.3065 342.748 25.7704 334.317 10.1812 330.153" stroke="white" stroke-width="0.8986" stroke-miterlimit="10" stroke-linecap="round" stroke-linejoin="round"/>
<path d="M173.012 191H116.988C114.229 191 112 188.162 112 184.672V150.328C112 146.828 114.237 144 116.988 144H173.012C175.771 144 178 146.838 178 150.328V184.661C178.008 188.162 175.771 191 173.012 191Z" fill="#2D9CDB"/>
<path d="M117.941 178.858C123.161 178.858 123.161 170.974 128.381 170.974C133.602 170.974 133.602 160.462 138.822 160.462C144.042 160.462 144.042 164.488 149.263 164.488C154.483 164.488 154.483 154.764 159.703 154.764C164.924 154.764 164.924 170.018 170.144 170.018" stroke="white" stroke-miterlimit="10" stroke-linecap="round" stroke-linejoin="round"/>
<path d="M119.465 178.858C119.465 177.796 118.786 176.934 117.949 176.934C117.112 176.934 116.433 177.796 116.433 178.858C116.433 179.919 117.112 180.781 117.949 180.781C118.786 180.781 119.465 179.919 119.465 178.858Z" fill="white"/>
<path d="M171.669 170.027C171.669 168.966 170.989 168.104 170.152 168.104C169.316 168.104 168.636 168.966 168.636 170.027C168.636 171.089 169.316 171.951 170.152 171.951C170.989 171.951 171.669 171.089 171.669 170.027Z" fill="white"/>
<path d="M282.708 43.3377H346.262C350.516 43.3377 353.97 39.0379 353.97 33.7423V9.59546C353.97 4.2998 350.516 0 346.262 0H282.708C278.454 0 275 4.2998 275 9.59546V33.7423C275 39.0497 278.454 43.3377 282.708 43.3377Z" fill="#2D9CDB"/>
<path d="M344.502 40.8538V51.3749L335.439 40.104L344.502 40.8538Z" fill="#2D9CDB"/>
<path d="M282.303 10.6384H299.921" stroke="white" stroke-miterlimit="10" stroke-linecap="round" stroke-linejoin="round"/>
<path d="M306.198 10.6386H346.667" stroke="white" stroke-miterlimit="10" stroke-linecap="round" stroke-linejoin="round"/>
<path d="M282.303 21.6767H315.148" stroke="white" stroke-miterlimit="10" stroke-linecap="round" stroke-linejoin="round"/>
<path d="M320.174 21.6759H329.896" stroke="white" stroke-miterlimit="10" stroke-linecap="round" stroke-linejoin="round"/>
<path d="M335.11 21.6759H346.667" stroke="white" stroke-miterlimit="10" stroke-linecap="round" stroke-linejoin="round"/>
<path d="M282.303 32.6994H289.738" stroke="white" stroke-miterlimit="10" stroke-linecap="round" stroke-linejoin="round"/>
<path d="M294.293 32.699H321.115" stroke="white" stroke-miterlimit="10" stroke-linecap="round" stroke-linejoin="round"/>
<path d="M102.208 320.031L94.7986 351.128H81.741L84.8843 320.031H102.208Z" fill="#A67A62"/>
<path d="M80.3234 344.623C80.3234 344.623 74.6513 353.925 78.9053 355.581C83.1594 357.237 111.165 357.381 118.078 356.337C124.991 355.281 102.657 345.667 97.5524 344.155C92.4475 342.643 90.7931 350.528 80.3234 344.623Z" fill="#56CCF2"/>
<path d="M61.0846 320.031L56.606 351.128H43.5483L43.7611 320.031H61.0846Z" fill="#A67A62"/>
<path d="M42.1311 344.623C42.1311 344.623 36.459 353.925 40.7131 355.581C44.9671 357.237 72.9731 357.381 79.886 356.337C86.7988 355.281 64.465 345.667 59.3601 344.155C54.2552 342.643 52.6008 350.528 42.1311 344.623Z" fill="#56CCF2"/>
<path d="M39.1418 169.635L40.1108 335.575H60.8376L75.4787 213.658L92.1641 263.13L79.6737 335.587H102.22C102.22 335.587 122.037 272.972 121.234 260.682C120.43 248.38 97.5526 164.582 97.5526 164.582L39.1418 169.635Z" fill="#D8D8E3"/>
<path d="M79.4173 223.818L75.975 213.601L77.5797 197.066L79.4173 223.818Z" fill="#C9C9D4" stroke="#C9C9D4"/>
<path d="M50.8417 167.632L49.6471 335.588" stroke="#C9C9D4" stroke-miterlimit="10"/>
<path d="M114.309 93.6371C114.309 93.6371 127.697 119.357 127.993 127.255C128.288 135.152 119.721 133.388 115.289 126.271C110.858 119.141 103.768 98.93 103.768 98.93L114.309 93.6371Z" fill="#A67A62"/>
<path d="M116.814 95.7864C116.814 95.7864 112.973 102.724 103.768 106.96C101.866 107.836 100.259 105.52 99.065 102.772C97.6825 99.567 96.8789 95.7864 96.8789 95.7864C96.8789 95.7864 86.3265 62.6248 95.6263 63.813C95.6263 63.813 103.544 64.3771 109.358 76.019C110.882 79.0556 113.257 85.1766 115.242 90.9856C115.81 92.6419 116.341 94.2621 116.814 95.7864Z" fill="#56CCF2"/>
<path d="M116.814 95.7857C116.814 95.7857 112.973 102.723 103.768 106.96C101.866 107.836 100.258 105.519 99.0649 102.771C102.669 101.127 109.487 97.43 115.242 90.9849C115.809 92.6411 116.341 94.2614 116.814 95.7857Z" fill="#04D361"/>
<path d="M98.0251 166.392C92.1758 173.138 53.6646 172.141 39.1299 169.633C36.5775 169.189 34.0605 168.193 38.09 159.167C39.6026 155.795 38.9526 147.117 38.6927 135.187C38.1845 111.603 31.2953 72.4765 39.7916 67.9877C44.8847 65.2873 55.6971 61.7347 63.5554 59.3103C64.028 59.1782 64.4889 59.0342 64.9379 58.8902C69.5229 57.4979 72.7961 56.5738 72.7961 56.5738C72.7961 56.5738 76.5893 57.1379 84.3058 59.4543C84.7193 59.5743 85.1684 59.7183 85.6174 59.8504C87.6263 60.4745 89.8597 61.1946 92.353 62.0587C97.1861 63.727 100.731 64.7472 101.594 66.3795C103.898 70.6642 103.012 78.2615 103.154 89.2073C103.343 102.95 103.201 160.439 98.0251 166.392Z" fill="#56CCF2"/>
<path d="M36.8844 108.483L45.1917 87.912L39.1414 140.829L36.8844 108.483Z" fill="#56CCF2"/>
<path d="M85.6173 59.8631C85.4401 62.7676 84.152 65.3241 82.214 67.1964C80.2288 69.1167 77.5464 70.2809 74.6276 70.2809C68.5892 70.2809 63.697 65.3721 63.5789 59.2991C64.0515 59.167 64.5124 59.023 64.9614 58.879C69.5464 57.4867 72.8196 56.5626 72.8196 56.5626C72.8196 56.5626 76.6129 57.1267 84.3293 59.4431C84.731 59.5991 85.1683 59.7311 85.6173 59.8631Z" fill="#04D361"/>
<path d="M90.6532 14.5839C90.6532 14.5839 86.2776 10.3367 79.6566 9.3262C69.972 7.84817 57.2207 11.0486 54.6808 26.0649C52.6719 34.7184 63.059 48.9408 66.9822 48.1127C66.9822 48.1127 102.297 25.4077 90.6532 14.5839Z" fill="#43302D"/>
<path d="M84.2938 35.3926L83.3485 54.0198L83.0767 59.3367C82.9703 61.5931 81.9895 63.6094 80.477 65.0617C78.9762 66.5139 76.9437 67.3901 74.7222 67.3901C70.0191 67.3901 66.2377 63.4534 66.3558 58.6886L66.5922 49.207L66.994 33.4483L84.2938 35.3926Z" fill="#A67A62"/>
<path d="M84.2939 39.1015L83.3486 56.6485C75.2304 56.9845 69.2983 53.6239 66.5804 49.1592L66.9822 37.1571L84.2939 39.1015Z" fill="#765441"/>
<path d="M90.734 24.6734C90.734 24.6734 91.3366 30.7464 90.4976 37.4556C89.5286 45.2209 89.8713 54.3424 78.598 54.9545C66.5685 55.6026 62.5862 41.9323 62.5862 41.9323C62.5862 41.9323 56.1933 40.7201 55.7561 36.3394C55.3188 31.9586 59.7856 31.7066 61.2391 32.9308C61.2391 32.9308 62.8934 16.584 77.7591 16.584C90.9112 16.596 90.734 24.6734 90.734 24.6734Z" fill="#A67A62"/>
<path d="M76.979 36.4089C76.979 37.0809 76.4473 37.6209 75.7857 37.6209C75.1241 37.6209 74.5924 37.0809 74.5924 36.4089C74.5924 35.737 75.1241 35.197 75.7857 35.197C76.4355 35.197 76.979 35.737 76.979 36.4089Z" fill="#60423D"/>
<path d="M88.4767 35.7858C88.4767 36.4578 87.945 36.9978 87.2834 36.9978C86.6218 36.9978 86.0901 36.4578 86.0901 35.7858C86.0901 35.1138 86.6218 34.5738 87.2834 34.5738C87.945 34.5738 88.4767 35.1138 88.4767 35.7858Z" fill="#60423D"/>
<path d="M71.0826 32.9436C71.0826 32.9436 72.8431 29.9916 76.612 31.0596" stroke="#43302D" stroke-miterlimit="10" stroke-linecap="round" stroke-linejoin="round"/>
<path d="M83.0884 31.0098C83.0884 31.0098 85.8058 28.4898 88.4759 31.2498" stroke="#43302D" stroke-miterlimit="10" stroke-linecap="round" stroke-linejoin="round"/>
<path d="M80.7135 34.0089C80.7135 34.0089 82.0015 37.3455 83.1005 39.4338C84.1994 41.5102 80.9498 42.4343 80.9498 42.4343" stroke="#765441" stroke-width="0.75" stroke-miterlimit="10" stroke-linecap="round" stroke-linejoin="round"/>
<path d="M76.3885 46.1687C76.3885 46.1687 79.0469 48.7847 82.4614 47.1887" stroke="#765441" stroke-width="0.75" stroke-miterlimit="10" stroke-linecap="round" stroke-linejoin="round"/>
<path d="M61.0499 37.7533C61.0499 37.7533 61.0144 33.9973 58.2498 35.0173" stroke="#765441" stroke-width="0.75" stroke-miterlimit="10" stroke-linecap="round" stroke-linejoin="round"/>
<path d="M64.7019 20.2805C64.7019 20.2805 71.4611 27.2777 67.7624 29.9541C63.6502 32.9306 63.0003 37.1553 63.0003 37.1553C63.0003 37.1553 63.083 35.6671 61.2514 32.9426C59.4198 30.2182 55.4257 20.5445 64.7019 20.2805Z" fill="#43302D"/>
<path d="M27.6914 95.0168C27.6914 95.0168 14.3029 120.737 14.0074 128.635C13.712 136.532 22.2792 134.768 26.7106 127.65C31.1419 120.521 38.232 100.31 38.232 100.31L27.6914 95.0168Z" fill="#A67A62"/>
<path d="M123.159 118.556C123.159 118.556 103.201 103.553 102.066 102.701C100.14 101.237 97.3277 99.1123 96.3115 98.3922C94.7044 97.252 85.31 95.5957 83.9983 95.8118C82.6985 96.0278 79.0943 96.6519 78.0426 97.048C76.9909 97.4441 78.3144 98.8123 79.3543 99.4604C80.3942 100.109 85.0027 102.533 88.9141 103.265C91.0884 103.673 92.9555 104.789 94.4799 105.905C95.697 106.794 116.755 128.601 117.546 129.129L123.159 118.556Z" fill="#A67A62"/>
<path d="M98.4505 100.145C98.4505 100.145 90.935 93.0035 89.8124 93.1116C88.7016 93.2196 89.4933 94.8278 92.4475 97.2642C93.452 98.0924 94.5273 99.4006 95.4254 99.8327C97.1861 100.673 98.4505 100.145 98.4505 100.145Z" fill="#A67A62"/>
<path d="M92.4139 126.026L92.4111 126.026L65.0083 129.351C63.7733 129.5 62.7535 128.334 63.0709 127.091C63.0709 127.091 63.0709 127.091 63.0709 127.091L69.6174 101.527L69.6174 101.526C69.804 100.797 70.407 100.266 71.1285 100.183L71.1285 100.183L71.1312 100.183L98.5341 96.8581C98.5341 96.8581 98.5342 96.8581 98.5343 96.8581C99.7691 96.7096 100.789 97.8755 100.471 99.1181C100.471 99.1182 100.471 99.1183 100.471 99.1184L93.9249 124.682L93.9249 124.683C93.7383 125.412 93.1354 125.943 92.4139 126.026Z" fill="#04D361" stroke="#04D361"/>
<path d="M93.6894 127.377L66.2861 130.702C64.6908 130.894 63.4027 129.394 63.8045 127.821L70.3511 102.257C70.5874 101.333 71.3555 100.649 72.289 100.541L99.6923 97.2162C101.288 97.0241 102.576 98.5244 102.174 100.097L95.6273 125.661C95.391 126.573 94.6229 127.257 93.6894 127.377Z" fill="white"/>
<path d="M72.7488 107.434L72.7488 107.434L72.7476 107.439C72.7285 107.516 72.654 107.594 72.5467 107.615L71.2369 107.77L71.2368 107.77C71.088 107.787 70.9433 107.64 70.988 107.467L70.9882 107.466L72.276 102.45L72.2761 102.45L72.2783 102.441C72.3005 102.347 72.3767 102.282 72.4659 102.271L73.7879 102.115L73.788 102.115C73.9368 102.097 74.0815 102.244 74.0368 102.417L74.0366 102.418L72.7488 107.434ZM73.2331 107.558L74.5209 102.542L72.6187 108.11C72.9141 108.062 73.1622 107.846 73.2331 107.558ZM71.7917 102.326L70.5039 107.342L72.4061 101.774C72.1107 101.81 71.8626 102.026 71.7917 102.326Z" fill="#04D361" stroke="#04D361"/>
<path d="M19.1241 121.026C27.4905 121.363 53.6412 120.81 57.1035 119.61C58.5924 119.094 62.2557 118.314 63.1892 116.838C64.1345 115.337 64.9381 113.057 65.9189 112.889C66.6752 112.757 66.4979 115.229 66.2734 116.13C65.848 117.75 65.5644 118.59 64.9972 119.334C64.8081 119.586 71.2483 120.522 75.2896 119.478C78.0666 118.758 77.5467 121.014 75.6796 121.963C75.6796 121.963 76.4241 123.931 74.4625 124.579C74.4625 124.579 74.8052 126.763 72.9145 126.931C72.7136 127.472 72.1227 128.444 70.492 128.912C68.1286 129.584 64.0282 129.572 60.9085 129.704C59.0651 129.776 23.4373 135.429 17.1389 133.821C14.5155 133.149 16.4062 120.918 19.1241 121.026Z" fill="#A67A62"/>
<path d="M43.1359 98.4737C43.1359 98.4737 42.5214 100.838 41.6115 103.275C40.5953 105.963 39.2127 108.723 37.8538 108.471C37.8538 108.471 19.3722 102.542 19.9867 100.622C20.4475 99.1939 21.2393 97.3335 22.2201 95.2692C25.2806 88.8121 30.1373 80.3867 32.0989 77.1221C38.7873 65.9722 41.5288 67.3884 41.5288 67.3884C50.8996 66.9324 43.1359 98.4737 43.1359 98.4737Z" fill="#56CCF2"/>
<path d="M41.6115 103.276C40.5953 105.964 39.2127 108.724 37.8538 108.472C37.8538 108.472 19.3722 102.543 19.9867 100.623C20.4475 99.1949 21.2393 97.3346 22.2201 95.2702C25.6233 96.9025 34.805 101.187 41.6115 103.276Z" fill="#04D361"/>
<path d="M47.4725 155.831C47.4725 155.831 78.1964 150.826 94.74 140.828C94.74 140.828 76.2348 159.635 47.4725 155.831Z" fill="#56CCF2"/>
<path d="M359.628 327.647L357.331 359.066H369.246L375.435 327.647H359.628Z" fill="#FEC9CF"/>
<path d="M370.54 352.494C370.54 352.494 375.715 361.892 371.834 363.565C367.952 365.238 342.398 365.384 336.091 364.329C329.783 363.262 350.162 353.549 354.819 352.021C359.488 350.493 360.987 358.46 370.54 352.494Z" fill="#56CCF2"/>
<path d="M422.273 327.648L424.559 359.067H412.644L406.466 327.648H422.273Z" fill="#FEC9CF"/>
<path d="M411.351 352.495C411.351 352.495 406.175 361.893 410.057 363.566C413.939 365.24 439.492 365.385 445.8 364.33C452.107 363.263 431.729 353.55 427.071 352.022C422.413 350.494 420.904 358.461 411.351 352.495Z" fill="#56CCF2"/>
<path d="M357.235 155.856L351.833 344.237H376.988L382.411 218.767L403.965 347.838L431.362 342.709C431.362 342.709 406.628 201.912 402.423 155.869H357.235V155.856Z" fill="#D8D8E3"/>
<path d="M381.235 229.117L380.21 204.76L381.909 218.769L381.235 229.117Z" fill="#194248" stroke="#C9C9D4"/>
<path d="M394.336 155.856L423.448 343.764" stroke="#C9C9D4" stroke-miterlimit="10" stroke-linecap="round" stroke-linejoin="round"/>
<path d="M388.276 17C393.646 17.0121 399.35 20.177 401.161 25.8642C402.563 30.2417 401.506 35.4075 403.469 39.5061C404.913 42.5377 407.803 44.49 409.108 47.5943C411.803 54.0454 406.552 61.7092 408.223 68.5726C409.765 74.9267 416.763 78.5645 417.345 85.1248C417.723 89.3083 415.102 93.3221 411.728 95.141C408.364 96.9721 404.417 96.9599 400.73 96.2687C391.684 94.559 383.166 88.9809 374.001 89.5145C370.227 89.7327 366.281 90.9696 362.787 89.3326C360.297 88.1685 358.496 85.7069 356.911 83.2574C355.089 80.4441 353.342 77.2428 353.515 73.7747C353.763 68.6817 357.871 65.1166 360.329 60.8361C362.841 56.4585 363.898 50.9896 363.197 45.836C359.865 21.3411 372.114 22.093 373.677 22.0566C375.111 22.0202 379.877 18.734 381.764 18.1156C383.899 17.4244 386.077 17 388.276 17Z" fill="#D38D00"/>
<path d="M330.732 119.77C325.546 115.126 304.456 99.4345 304.251 97.2397C303.863 93.1168 302.58 89.8548 294.72 87.0416C294.72 87.0416 294.094 88.3512 295.183 89.7942C296.359 91.3585 297.307 91.9041 297.307 91.9041C297.307 91.9041 295.216 92.7772 292.132 90.0125C289.048 87.2477 287.765 84.8588 286.45 85.4288C286.45 85.4288 284.919 83.8402 284.185 84.0828C284.185 84.0828 283.646 84.2525 283.743 84.9074C282.525 84.677 282.741 88.618 284.865 91.8557C287.927 96.5 293.329 100.041 296.499 101.387C298.871 102.393 314.429 128.271 324.856 131.072C327.853 131.848 333.147 121.929 330.732 119.77Z" fill="#FCDDC6"/>
<path d="M347.046 96.8153C347.046 96.8153 323.735 115.102 321.481 119.649C319.228 124.196 320.91 136.335 331.293 128.537C341.676 120.74 358.065 106.589 358.065 106.589L347.046 96.8153Z" fill="#FCDDC6"/>
<path d="M359.025 80.167C359.025 80.167 352.62 81.9859 348.35 87.6974C344.771 92.4872 339.002 100.199 339.002 100.199L356.685 115.648C356.696 115.636 361.009 87.5519 359.025 80.167Z" fill="#56CCF2"/>
<path d="M402.423 155.857H357.224C357.224 155.857 357.407 147.138 354.895 133.593C352.372 120.06 353.634 112.978 356.146 105.909C358.669 98.8393 354.173 82.4933 359.025 80.165C360.998 79.2192 364.426 77.6913 367.791 76.224C368.642 75.8602 369.483 75.4843 370.292 75.1327C374.195 73.435 377.484 72.0284 377.484 72.0284H385.624C385.624 72.0284 391.231 74.1141 396.989 76.6969C397.743 77.0365 398.509 77.3881 399.264 77.7398C399.264 77.7519 399.264 77.7519 399.264 77.7519C402.164 79.1222 404.935 80.5652 406.822 81.8869C412.935 86.1311 402.423 155.857 402.423 155.857Z" fill="#56CCF2"/>
<path d="M374.745 49.5336L375.607 68.3534L375.855 73.7254C375.963 76.0051 376.847 78.0423 378.227 79.5095C379.597 80.9768 381.451 81.862 383.478 81.862C387.77 81.862 391.22 77.8846 391.112 73.0705L390.896 63.4909L390.53 47.5692L374.745 49.5336Z" fill="#FFDFC8"/>
<path d="M374.745 49.5336L375.607 67.2621C383.015 67.6016 388.427 64.2063 390.907 59.6954L390.541 47.5692L374.745 49.5336Z" fill="#DA9F74"/>
<path d="M368.858 34.9592C368.858 34.9592 368.308 41.095 369.073 47.8736C369.957 55.7192 370.734 64.7047 379.931 65.5535C390.886 66.56 394.541 52.3967 394.541 52.3967C394.541 52.3967 399.63 51.0628 400.255 47.1581C400.881 43.2414 397.085 42.0652 395.759 43.302C395.759 43.302 394.25 26.7862 380.686 26.7862C368.696 26.7862 368.858 34.9592 368.858 34.9592Z" fill="#FFDFC8"/>
<path d="M399.264 77.7398C399.264 77.7519 399.264 77.7519 399.264 77.7398C389.991 90.448 379.058 89.8539 379.058 89.8539C370.432 87.7318 367.791 76.224 367.791 76.224C368.643 75.8602 369.484 75.4843 370.292 75.1327C374.195 73.435 377.484 72.0284 377.484 72.0284H385.624C385.624 72.0284 391.231 74.1141 396.989 76.6969C397.744 77.0365 398.509 77.3881 399.264 77.7398Z" fill="#04D361"/>
<path d="M396.988 76.6969C387.532 88.2532 379.338 87.0406 379.338 87.0406C370.529 83.2451 370.292 75.1327 370.292 75.1327C374.195 73.435 377.483 72.0284 377.483 72.0284H385.624C385.624 72.0284 391.231 74.1141 396.988 76.6969Z" fill="#FCDDC6"/>
<path d="M373.58 23.2202C373.58 23.2202 374.842 35.1645 368.017 39.1055C368.017 39.1055 364.599 24.6389 373.58 23.2202Z" fill="#D38D00"/>
<path d="M371.51 24.3616C371.51 24.3616 373.936 34.7659 379.953 35.3722C385.969 35.9785 384.902 41.4595 390.228 42.0901C393.398 42.466 394.81 46.1766 394.81 46.1766C394.81 46.1766 395.274 42.4902 398.142 41.1806C401.032 39.871 391.36 12.3324 371.51 24.3616Z" fill="#D38D00"/>
<path d="M381.721 49.4023C381.721 50.057 382.184 50.5784 382.767 50.5784C383.349 50.5784 383.812 50.057 383.812 49.4023C383.812 48.7476 383.349 48.2263 382.767 48.2263C382.195 48.2263 381.721 48.7598 381.721 49.4023Z" fill="#60423D"/>
<path d="M372.255 49.4012C372.255 50.0559 372.719 50.5772 373.301 50.5772C373.883 50.5772 374.347 50.0559 374.347 49.4012C374.347 48.7465 373.872 48.2251 373.301 48.2251C372.719 48.2251 372.255 48.7586 372.255 49.4012Z" fill="#60423D"/>
<path d="M386.583 45.3027C386.583 45.3027 385.031 42.4293 381.721 43.4598" stroke="#561E15" stroke-miterlimit="10" stroke-linecap="round" stroke-linejoin="round"/>
<path d="M376.027 43.4232C376.027 43.4232 373.634 40.9741 371.295 43.6535" stroke="#561E15" stroke-miterlimit="10" stroke-linecap="round" stroke-linejoin="round"/>
<path d="M378.119 46.3442C378.119 46.3442 376.987 49.594 376.027 51.6191C375.068 53.6442 377.914 54.5415 377.914 54.5415" stroke="#DA9F74" stroke-width="0.75" stroke-miterlimit="10" stroke-linecap="round" stroke-linejoin="round"/>
<path d="M384.394 56.8462C384.394 56.8462 382.551 59.8651 379.338 59.0043" stroke="#DA9F74" stroke-width="0.75" stroke-miterlimit="10" stroke-linecap="round" stroke-linejoin="round"/>
<path d="M395.727 48.5765C395.727 48.5765 395.759 44.915 398.185 45.9213" stroke="#DA9F74" stroke-width="0.75" stroke-miterlimit="10" stroke-linecap="round" stroke-linejoin="round"/>
<path d="M358.151 143.755H316.748C315.928 143.755 315.26 143.003 315.26 142.081C315.26 141.16 315.928 140.408 316.748 140.408H358.151C358.971 140.408 359.639 141.16 359.639 142.081C359.628 143.015 358.971 143.755 358.151 143.755Z" fill="#04D361"/>
<path d="M312.006 104.25L312.006 104.25L312.006 104.248C311.715 102.948 312.61 101.814 313.631 101.814H350.927C351.66 101.814 352.356 102.378 352.551 103.275L352.552 103.277L360.634 139.921H319.877L312.006 104.25Z" fill="#04D361" stroke="#04D361"/>
<path d="M358.389 140.421H316.608L308.65 104.358C308.305 102.818 309.351 101.314 310.764 101.314H348.059C349.062 101.314 349.935 102.078 350.173 103.169L358.389 140.421Z" fill="white"/>
<path d="M390.196 143.755H358.863C358.097 143.755 357.472 143.052 357.472 142.191V141.984C357.472 141.123 358.097 140.42 358.863 140.42H390.196C390.961 140.42 391.587 141.123 391.587 141.984V142.191C391.597 143.064 390.972 143.755 390.196 143.755Z" fill="#04D361"/>
<path d="M334.572 118.742L334.572 118.743C334.925 119.771 334.95 120.815 334.721 121.664C334.492 122.517 334.024 123.124 333.433 123.385C332.855 123.634 332.182 123.539 331.53 123.098C330.876 122.654 330.275 121.873 329.922 120.844C329.569 119.816 329.544 118.768 329.773 117.918C330.003 117.061 330.471 116.457 331.06 116.202C331.639 115.951 332.314 116.044 332.964 116.485C333.618 116.927 334.219 117.707 334.572 118.742Z" fill="#04D361" stroke="#04D361"/>
<path d="M404.709 140.42L401.991 100.815L407.21 117.489L404.709 140.42Z" fill="#56CCF2"/>
<path d="M405.064 104.843C405.064 104.843 411.512 143.817 413.108 150.195C414.143 154.318 421.669 157.131 424.03 151.674C424.548 150.474 424.429 148.473 424.375 146.436C424.009 133.837 416.17 101.775 416.17 101.775L405.064 104.843Z" fill="#FCDDC6"/>
<path d="M406.832 81.887C406.832 81.887 410.682 84.1061 413.916 90.3754C417.151 96.6446 421.615 107.704 421.335 110.384C419.652 115.537 406.369 120.873 406.369 120.873C406.369 120.873 397.495 88.0714 406.832 81.887Z" fill="#56CCF2"/>
<path d="M414.283 142.663C414.283 142.663 393.808 142.154 389.926 139.559C384.664 136.03 383.446 137.558 380.395 136.709C375.5 135.339 376.039 136.454 376.039 136.454C376.039 136.454 376.265 139.643 380.05 140.044C381.958 140.25 384.815 141.159 384.212 141.681C384.212 141.681 369.03 143.463 365.979 143.766C362.928 144.07 364.415 146.713 366.744 147.319C366.744 147.319 368.135 149.296 370.389 148.69C370.389 148.69 369.893 149.805 375.737 149.805C381.581 149.805 387.446 146.313 390.411 147.829C393.376 149.344 409.388 156.317 419.545 154.704C424.397 153.928 424.429 151.309 424.429 148.544C424.429 143.754 421.281 143.148 414.283 142.663Z" fill="#FCDDC6"/>
</svg>
