<svg width="447" height="765" viewBox="0 0 447 765" fill="none" xmlns="http://www.w3.org/2000/svg">
<path d="M301.437 699.316C297.347 699.316 294.032 696.193 294.032 692.341C294.032 688.489 297.347 685.367 301.437 685.367C305.526 685.367 308.841 688.489 308.841 692.341C308.841 696.181 305.526 699.316 301.437 699.316Z" stroke="#04D361" stroke-width="2" stroke-miterlimit="10" stroke-linecap="round" stroke-linejoin="round"/>
<path d="M296.328 697.383L291.092 702.303" stroke="#04D361" stroke-width="2" stroke-miterlimit="10" stroke-linecap="round" stroke-linejoin="round"/>
<path d="M286.825 202.353L279.035 209.691" stroke="#04D361" stroke-width="2" stroke-miterlimit="10" stroke-linecap="round" stroke-linejoin="round"/>
<path d="M286.825 209.691L279.035 202.353" stroke="#04D361" stroke-width="2" stroke-miterlimit="10" stroke-linecap="round" stroke-linejoin="round"/>
<path d="M141.761 627.926L133.971 635.264" stroke="#04D361" stroke-width="2" stroke-miterlimit="10" stroke-linecap="round" stroke-linejoin="round"/>
<path d="M141.761 635.264L133.971 627.926" stroke="#04D361" stroke-width="2" stroke-miterlimit="10" stroke-linecap="round" stroke-linejoin="round"/>
<path d="M49.1238 208.376L38.1072 208.376" stroke="#04D361" stroke-width="2" stroke-miterlimit="10" stroke-linecap="round" stroke-linejoin="round"/>
<path d="M43.6168 213.577L43.6168 203.188" stroke="#04D361" stroke-width="2" stroke-miterlimit="10" stroke-linecap="round" stroke-linejoin="round"/>
<path d="M230.953 68.2817C227.263 68.2817 224.257 65.4627 224.257 61.9755C224.257 58.5004 227.25 55.6693 230.953 55.6693C234.642 55.6693 237.648 58.4883 237.648 61.9755C237.635 65.4627 234.642 68.2817 230.953 68.2817Z" stroke="#04D361" stroke-width="2" stroke-miterlimit="10" stroke-linecap="round" stroke-linejoin="round"/>
<path d="M404.305 439.387C400.615 439.387 397.61 436.569 397.61 433.081C397.61 429.606 400.602 426.775 404.305 426.775C407.994 426.775 411 429.594 411 433.081C410.987 436.569 407.994 439.387 404.305 439.387Z" stroke="#04D361" stroke-width="2" stroke-miterlimit="10" stroke-linecap="round" stroke-linejoin="round"/>
<path d="M52.4572 531.899C48.7678 531.899 45.7621 529.08 45.7621 525.593C45.7621 522.117 48.7549 519.286 52.4572 519.286C56.1466 519.286 59.1523 522.105 59.1523 525.593C59.1394 529.08 56.1466 531.899 52.4572 531.899Z" stroke="#04D361" stroke-width="2" stroke-miterlimit="10" stroke-linecap="round" stroke-linejoin="round"/>
<path d="M138.588 2.28423C138.588 3.5456 139.674 4.56815 141.013 4.56815C142.352 4.56815 143.437 3.5456 143.437 2.28423C143.437 1.02285 142.352 0.000305128 141.013 0.00030507C139.674 0.000305011 138.588 1.02285 138.588 2.28423Z" fill="white"/>
<path d="M138.588 18.2377C138.588 19.4991 139.674 20.5217 141.013 20.5217C142.352 20.5217 143.437 19.4991 143.437 18.2377C143.437 16.9764 142.352 15.9538 141.013 15.9538C139.674 15.9538 138.588 16.9764 138.588 18.2377Z" fill="white"/>
<path d="M138.588 34.1768C138.588 35.4382 139.674 36.4608 141.013 36.4608C142.352 36.4608 143.437 35.4382 143.437 34.1768C143.437 32.9155 142.352 31.8929 141.013 31.8929C139.674 31.8929 138.588 32.9155 138.588 34.1768Z" fill="white"/>
<path d="M138.588 50.13C138.588 51.3914 139.674 52.4139 141.013 52.4139C142.352 52.4139 143.437 51.3914 143.437 50.13C143.437 48.8686 142.352 47.8461 141.013 47.8461C139.674 47.8461 138.588 48.8686 138.588 50.13Z" fill="white"/>
<path d="M138.588 66.0704C138.588 67.3318 139.674 68.3543 141.013 68.3543C142.352 68.3543 143.437 67.3318 143.437 66.0704C143.437 64.809 142.352 63.7865 141.013 63.7865C139.674 63.7865 138.588 64.809 138.588 66.0704Z" fill="white"/>
<path d="M138.588 82.0229C138.588 83.2842 139.674 84.3068 141.013 84.3068C142.352 84.3068 143.437 83.2842 143.437 82.0229C143.437 80.7615 142.352 79.739 141.013 79.739C139.674 79.739 138.588 80.7615 138.588 82.0229Z" fill="white"/>
<path d="M121.663 2.28395C121.663 3.54533 122.748 4.56787 124.088 4.56787C125.427 4.56787 126.512 3.54533 126.512 2.28395C126.512 1.02258 125.427 3.04701e-05 124.088 3.04116e-05C122.748 3.03531e-05 121.663 1.02258 121.663 2.28395Z" fill="white"/>
<path d="M121.663 18.2376C121.663 19.499 122.748 20.5215 124.088 20.5215C125.427 20.5215 126.512 19.499 126.512 18.2376C126.512 16.9762 125.427 15.9537 124.088 15.9537C122.748 15.9537 121.663 16.9762 121.663 18.2376Z" fill="white"/>
<path d="M121.663 34.1772C121.663 35.4386 122.748 36.4611 124.088 36.4611C125.427 36.4611 126.512 35.4386 126.512 34.1772C126.512 32.9159 125.427 31.8933 124.088 31.8933C122.748 31.8933 121.663 32.9159 121.663 34.1772Z" fill="white"/>
<path d="M121.663 50.1302C121.663 51.3916 122.748 52.4142 124.088 52.4142C125.427 52.4142 126.512 51.3916 126.512 50.1302C126.512 48.8689 125.427 47.8463 124.088 47.8463C122.748 47.8463 121.663 48.8689 121.663 50.1302Z" fill="white"/>
<path d="M121.663 66.0705C121.663 67.3319 122.748 68.3544 124.088 68.3544C125.427 68.3544 126.512 67.3319 126.512 66.0705C126.512 64.8091 125.427 63.7866 124.088 63.7866C122.748 63.7866 121.663 64.8091 121.663 66.0705Z" fill="white"/>
<path d="M121.663 82.0229C121.663 83.2842 122.748 84.3068 124.088 84.3068C125.427 84.3068 126.512 83.2842 126.512 82.0229C126.512 80.7615 125.427 79.739 124.088 79.739C122.748 79.739 121.663 80.7615 121.663 82.0229Z" fill="white"/>
<path d="M104.725 2.28395C104.725 3.54533 105.811 4.56787 107.15 4.56787C108.489 4.56787 109.575 3.54533 109.575 2.28395C109.575 1.02258 108.489 3.04701e-05 107.15 3.04116e-05C105.811 3.0353e-05 104.725 1.02258 104.725 2.28395Z" fill="white"/>
<path d="M104.725 18.2376C104.725 19.499 105.811 20.5215 107.15 20.5215C108.489 20.5215 109.575 19.499 109.575 18.2376C109.575 16.9762 108.489 15.9537 107.15 15.9537C105.811 15.9537 104.725 16.9762 104.725 18.2376Z" fill="white"/>
<path d="M104.725 34.1772C104.725 35.4386 105.811 36.4611 107.15 36.4611C108.489 36.4611 109.575 35.4386 109.575 34.1772C109.575 32.9159 108.489 31.8933 107.15 31.8933C105.811 31.8933 104.725 32.9159 104.725 34.1772Z" fill="white"/>
<path d="M104.725 50.1302C104.725 51.3916 105.811 52.4142 107.15 52.4142C108.489 52.4142 109.575 51.3916 109.575 50.1302C109.575 48.8689 108.489 47.8463 107.15 47.8463C105.811 47.8463 104.725 48.8689 104.725 50.1302Z" fill="white"/>
<path d="M104.725 66.0705C104.725 67.3319 105.811 68.3544 107.15 68.3544C108.489 68.3544 109.575 67.3319 109.575 66.0705C109.575 64.8091 108.489 63.7866 107.15 63.7866C105.811 63.7866 104.725 64.8091 104.725 66.0705Z" fill="white"/>
<path d="M104.725 82.0229C104.725 83.2842 105.811 84.3068 107.15 84.3068C108.489 84.3068 109.575 83.2842 109.575 82.0229C109.575 80.7615 108.489 79.739 107.15 79.739C105.811 79.739 104.725 80.7615 104.725 82.0229Z" fill="white"/>
<path d="M87.8007 2.28395C87.8007 3.54533 88.8863 4.56787 90.2255 4.56787C91.5646 4.56787 92.6503 3.54533 92.6503 2.28395C92.6503 1.02258 91.5646 3.04701e-05 90.2255 3.04116e-05C88.8863 3.0353e-05 87.8007 1.02258 87.8007 2.28395Z" fill="white"/>
<path d="M87.8007 18.2376C87.8007 19.499 88.8863 20.5215 90.2255 20.5215C91.5646 20.5215 92.6503 19.499 92.6503 18.2376C92.6503 16.9762 91.5646 15.9537 90.2255 15.9537C88.8863 15.9537 87.8007 16.9762 87.8007 18.2376Z" fill="white"/>
<path d="M87.8007 34.1772C87.8007 35.4386 88.8863 36.4611 90.2255 36.4611C91.5646 36.4611 92.6503 35.4386 92.6503 34.1772C92.6503 32.9159 91.5646 31.8933 90.2255 31.8933C88.8863 31.8933 87.8007 32.9159 87.8007 34.1772Z" fill="white"/>
<path d="M87.8007 50.1302C87.8007 51.3916 88.8863 52.4142 90.2255 52.4142C91.5646 52.4142 92.6503 51.3916 92.6503 50.1302C92.6503 48.8689 91.5646 47.8463 90.2255 47.8463C88.8863 47.8463 87.8007 48.8689 87.8007 50.1302Z" fill="white"/>
<path d="M87.8007 66.0705C87.8007 67.3319 88.8863 68.3544 90.2255 68.3544C91.5646 68.3544 92.6503 67.3319 92.6503 66.0705C92.6503 64.8091 91.5646 63.7866 90.2255 63.7866C88.8863 63.7866 87.8007 64.8091 87.8007 66.0705Z" fill="white"/>
<path d="M87.8007 82.0229C87.8007 83.2842 88.8863 84.3068 90.2255 84.3068C91.5646 84.3068 92.6503 83.2842 92.6503 82.0229C92.6503 80.7615 91.5646 79.739 90.2255 79.739C88.8863 79.739 87.8007 80.7615 87.8007 82.0229Z" fill="white"/>
<path d="M307.507 528.484C307.507 529.746 308.592 530.768 309.931 530.768C311.27 530.768 312.356 529.746 312.356 528.484C312.356 527.223 311.27 526.201 309.931 526.201C308.592 526.201 307.507 527.223 307.507 528.484Z" fill="white"/>
<path d="M307.507 544.426C307.507 545.688 308.592 546.71 309.932 546.71C311.271 546.71 312.356 545.688 312.356 544.426C312.356 543.165 311.271 542.142 309.932 542.142C308.592 542.142 307.507 543.165 307.507 544.426Z" fill="white"/>
<path d="M307.507 560.377C307.507 561.638 308.592 562.661 309.932 562.661C311.271 562.661 312.356 561.638 312.356 560.377C312.356 559.115 311.271 558.093 309.932 558.093C308.592 558.093 307.507 559.115 307.507 560.377Z" fill="white"/>
<path d="M290.569 528.484C290.569 529.746 291.655 530.768 292.994 530.768C294.333 530.768 295.419 529.746 295.419 528.484C295.419 527.223 294.333 526.2 292.994 526.2C291.655 526.2 290.569 527.223 290.569 528.484Z" fill="white"/>
<path d="M290.569 544.426C290.569 545.688 291.655 546.71 292.994 546.71C294.333 546.71 295.419 545.688 295.419 544.426C295.419 543.165 294.333 542.142 292.994 542.142C291.655 542.142 290.569 543.165 290.569 544.426Z" fill="white"/>
<path d="M290.569 560.377C290.569 561.638 291.655 562.661 292.994 562.661C294.333 562.661 295.419 561.638 295.419 560.377C295.419 559.115 294.333 558.093 292.994 558.093C291.655 558.093 290.569 559.115 290.569 560.377Z" fill="white"/>
<path d="M381.564 192.003C381.564 193.264 382.65 194.287 383.989 194.287C385.328 194.287 386.414 193.264 386.414 192.003C386.414 190.741 385.328 189.719 383.989 189.719C382.65 189.719 381.564 190.741 381.564 192.003Z" fill="white"/>
<path d="M381.564 207.943C381.564 209.204 382.65 210.227 383.989 210.227C385.328 210.227 386.414 209.204 386.414 207.943C386.414 206.681 385.328 205.659 383.989 205.659C382.65 205.659 381.564 206.681 381.564 207.943Z" fill="white"/>
<path d="M381.564 223.895C381.564 225.157 382.65 226.179 383.989 226.179C385.328 226.179 386.414 225.157 386.414 223.895C386.414 222.634 385.328 221.611 383.989 221.611C382.65 221.611 381.564 222.634 381.564 223.895Z" fill="white"/>
<path d="M364.627 192.003C364.627 193.264 365.712 194.287 367.052 194.287C368.391 194.287 369.476 193.264 369.476 192.003C369.476 190.741 368.391 189.719 367.052 189.719C365.712 189.719 364.627 190.741 364.627 192.003Z" fill="white"/>
<path d="M364.627 207.943C364.627 209.204 365.712 210.227 367.052 210.227C368.391 210.227 369.476 209.204 369.476 207.943C369.476 206.681 368.391 205.659 367.052 205.659C365.712 205.659 364.627 206.681 364.627 207.943Z" fill="white"/>
<path d="M364.627 223.896C364.627 225.157 365.712 226.18 367.052 226.18C368.391 226.18 369.476 225.157 369.476 223.896C369.476 222.634 368.391 221.612 367.052 221.612C365.712 221.612 364.627 222.634 364.627 223.896Z" fill="white"/>
<path d="M138.588 762.716C138.588 763.977 139.673 765 141.013 765C142.352 765 143.437 763.977 143.437 762.716C143.437 761.454 142.352 760.432 141.013 760.432C139.673 760.432 138.588 761.454 138.588 762.716Z" fill="white"/>
<path d="M121.65 762.716C121.65 763.978 122.736 765 124.075 765C125.414 765 126.5 763.978 126.5 762.716C126.5 761.455 125.414 760.432 124.075 760.432C122.736 760.432 121.65 761.455 121.65 762.716Z" fill="white"/>
<path d="M104.725 762.716C104.725 763.978 105.811 765 107.15 765C108.489 765 109.575 763.978 109.575 762.716C109.575 761.455 108.489 760.432 107.15 760.432C105.811 760.432 104.725 761.455 104.725 762.716Z" fill="white"/>
<path d="M87.7874 762.716C87.7874 763.978 88.873 765 90.2122 765C91.5514 765 92.637 763.978 92.637 762.716C92.637 761.455 91.5514 760.432 90.2122 760.432C88.873 760.432 87.7874 761.455 87.7874 762.716Z" fill="white"/>
<path d="M70.8626 762.716C70.8626 763.978 71.9482 765 73.2874 765C74.6265 765 75.7122 763.978 75.7122 762.716C75.7122 761.455 74.6265 760.432 73.2874 760.432C71.9482 760.432 70.8626 761.455 70.8626 762.716Z" fill="white"/>
<path d="M53.9251 762.716C53.9251 763.978 55.0107 765 56.3499 765C57.689 765 58.7747 763.978 58.7747 762.716C58.7747 761.455 57.689 760.432 56.3499 760.432C55.0107 760.432 53.9251 761.455 53.9251 762.716Z" fill="white"/>
<path d="M37 762.716C37 763.978 38.0856 765 39.4248 765C40.764 765 41.8496 763.978 41.8496 762.716C41.8496 761.455 40.764 760.432 39.4248 760.432C38.0856 760.432 37 761.455 37 762.716Z" fill="white"/>
<path d="M138.588 746.764C138.588 748.025 139.673 749.048 141.013 749.048C142.352 749.048 143.437 748.025 143.437 746.764C143.437 745.502 142.352 744.48 141.013 744.48C139.673 744.48 138.588 745.502 138.588 746.764Z" fill="white"/>
<path d="M121.65 746.764C121.65 748.025 122.736 749.048 124.075 749.048C125.414 749.048 126.5 748.025 126.5 746.764C126.5 745.502 125.414 744.48 124.075 744.48C122.736 744.48 121.65 745.502 121.65 746.764Z" fill="white"/>
<path d="M104.725 746.764C104.725 748.025 105.811 749.048 107.15 749.048C108.489 749.048 109.575 748.025 109.575 746.764C109.575 745.502 108.489 744.48 107.15 744.48C105.811 744.48 104.725 745.502 104.725 746.764Z" fill="white"/>
<path d="M87.7874 746.764C87.7874 748.025 88.873 749.048 90.2122 749.048C91.5514 749.048 92.637 748.025 92.637 746.764C92.637 745.502 91.5514 744.48 90.2122 744.48C88.873 744.48 87.7874 745.502 87.7874 746.764Z" fill="white"/>
<path d="M70.8626 746.764C70.8626 748.025 71.9482 749.048 73.2874 749.048C74.6265 749.048 75.7122 748.025 75.7122 746.764C75.7122 745.502 74.6265 744.48 73.2874 744.48C71.9482 744.48 70.8626 745.502 70.8626 746.764Z" fill="white"/>
<path d="M53.9251 746.764C53.9251 748.025 55.0107 749.048 56.3499 749.048C57.689 749.048 58.7747 748.025 58.7747 746.764C58.7747 745.502 57.689 744.48 56.3499 744.48C55.0107 744.48 53.9251 745.502 53.9251 746.764Z" fill="white"/>
<path d="M37 746.764C37 748.025 38.0856 749.048 39.4248 749.048C40.764 749.048 41.8496 748.025 41.8496 746.764C41.8496 745.502 40.764 744.48 39.4248 744.48C38.0856 744.48 37 745.502 37 746.764Z" fill="white"/>
<path d="M138.588 730.823C138.588 732.084 139.673 733.107 141.013 733.107C142.352 733.107 143.437 732.084 143.437 730.823C143.437 729.561 142.352 728.539 141.013 728.539C139.673 728.539 138.588 729.561 138.588 730.823Z" fill="white"/>
<path d="M121.65 730.823C121.65 732.084 122.736 733.107 124.075 733.107C125.414 733.107 126.5 732.084 126.5 730.823C126.5 729.561 125.414 728.539 124.075 728.539C122.736 728.539 121.65 729.561 121.65 730.823Z" fill="white"/>
<path d="M104.725 730.823C104.725 732.084 105.811 733.107 107.15 733.107C108.489 733.107 109.575 732.084 109.575 730.823C109.575 729.561 108.489 728.539 107.15 728.539C105.811 728.539 104.725 729.561 104.725 730.823Z" fill="white"/>
<path d="M87.7874 730.823C87.7874 732.084 88.873 733.107 90.2122 733.107C91.5514 733.107 92.637 732.084 92.637 730.823C92.637 729.561 91.5514 728.539 90.2122 728.539C88.873 728.539 87.7874 729.561 87.7874 730.823Z" fill="white"/>
<path d="M70.8626 730.823C70.8626 732.084 71.9482 733.107 73.2874 733.107C74.6265 733.107 75.7122 732.084 75.7122 730.823C75.7122 729.561 74.6265 728.539 73.2874 728.539C71.9482 728.539 70.8626 729.561 70.8626 730.823Z" fill="white"/>
<path d="M53.9251 730.823C53.9251 732.084 55.0107 733.107 56.3499 733.107C57.689 733.107 58.7747 732.084 58.7747 730.823C58.7747 729.561 57.689 728.539 56.3499 728.539C55.0107 728.539 53.9251 729.561 53.9251 730.823Z" fill="white"/>
<path d="M37 730.823C37 732.084 38.0856 733.107 39.4248 733.107C40.764 733.107 41.8496 732.084 41.8496 730.823C41.8496 729.561 40.764 728.539 39.4248 728.539C38.0856 728.539 37 729.561 37 730.823Z" fill="white"/>
<path d="M138.587 714.871C138.587 716.132 139.672 717.155 141.012 717.155C142.351 717.155 143.436 716.132 143.436 714.871C143.436 713.61 142.351 712.587 141.012 712.587C139.672 712.587 138.587 713.61 138.587 714.871Z" fill="white"/>
<path d="M121.65 714.87C121.65 716.132 122.736 717.154 124.075 717.154C125.414 717.154 126.5 716.132 126.5 714.87C126.5 713.609 125.414 712.586 124.075 712.586C122.736 712.586 121.65 713.609 121.65 714.87Z" fill="white"/>
<path d="M104.725 714.87C104.725 716.132 105.811 717.154 107.15 717.154C108.489 717.154 109.575 716.132 109.575 714.87C109.575 713.609 108.489 712.586 107.15 712.586C105.811 712.586 104.725 713.609 104.725 714.87Z" fill="white"/>
<path d="M87.7874 714.87C87.7874 716.132 88.873 717.154 90.2122 717.154C91.5514 717.154 92.637 716.132 92.637 714.87C92.637 713.609 91.5514 712.586 90.2122 712.586C88.873 712.586 87.7874 713.609 87.7874 714.87Z" fill="white"/>
<path d="M70.8626 714.87C70.8626 716.132 71.9482 717.154 73.2874 717.154C74.6265 717.154 75.7122 716.132 75.7122 714.87C75.7122 713.609 74.6265 712.586 73.2874 712.586C71.9482 712.586 70.8626 713.609 70.8626 714.87Z" fill="white"/>
<path d="M53.9251 714.87C53.9251 716.132 55.0107 717.154 56.3499 717.154C57.689 717.154 58.7747 716.132 58.7747 714.87C58.7747 713.609 57.689 712.586 56.3499 712.586C55.0107 712.586 53.9251 713.609 53.9251 714.87Z" fill="white"/>
<path d="M37 714.87C37 716.132 38.0856 717.154 39.4248 717.154C40.764 717.154 41.8496 716.132 41.8496 714.87C41.8496 713.609 40.764 712.586 39.4248 712.586C38.0856 712.586 37 713.609 37 714.87Z" fill="white"/>
<path d="M228.234 517.231C229.257 512.085 232.432 507.367 236.89 504.355" stroke="#04D361" stroke-width="0.779" stroke-miterlimit="10"/>
<path d="M228.096 518.679C228.288 514.382 230.018 504.038 234.107 497.563" stroke="#04D361" stroke-width="0.779" stroke-miterlimit="10"/>
<path d="M228.158 518.147C228.865 510.483 228.803 502.015 227.558 494.41" stroke="#04D361" stroke-width="0.779" stroke-miterlimit="10"/>
<path d="M237.605 502.409L237.605 502.409C237.565 502.477 237.525 502.545 237.485 502.613C236.981 503.467 236.475 504.325 235.87 505.146C235.968 505.111 236.068 505.073 236.171 505.034C236.267 504.997 236.366 504.958 236.467 504.918C236.997 504.711 237.591 504.477 238.088 504.407L238.089 504.406C239.507 504.206 240.953 504.262 242.341 504.435L242.341 504.435C243.423 504.571 244.502 504.776 245.563 504.978C245.907 505.044 246.249 505.109 246.588 505.171C247.986 505.428 249.359 505.639 250.741 505.657L250.741 505.657C251.524 505.667 252.352 505.569 253.049 505.312C253.744 505.055 254.263 504.658 254.524 504.094L254.524 504.093C254.949 503.18 254.519 501.944 253.59 501.202L253.588 501.201C252.668 500.461 251.399 500.162 250.073 500.039L250.073 500.039C249.591 499.994 249.11 499.971 248.616 499.947C248.433 499.938 248.248 499.929 248.061 499.919C247.378 499.882 246.675 499.829 245.978 499.701L245.977 499.701C245.561 499.624 245.15 499.521 244.753 499.419C244.69 499.403 244.628 499.387 244.566 499.371C244.231 499.284 243.907 499.2 243.583 499.129C242.816 498.961 242.104 498.877 241.41 499.007L237.605 502.409ZM237.605 502.409L237.606 502.407M237.605 502.409L237.606 502.407M237.606 502.407C238.548 500.797 239.748 499.317 241.409 499.007L237.606 502.407Z" fill="#04D361" stroke="#04D361"/>
<path d="M233.718 498.25C234.178 497.859 234.621 497.392 235.082 496.893C235.149 496.82 235.216 496.747 235.284 496.673C235.904 495.998 236.562 495.282 237.293 494.723C239.289 493.193 241.709 492.01 244.317 491.816C245.341 491.738 246.349 491.817 247.331 491.936C247.769 491.99 248.188 492.049 248.601 492.108C249.143 492.184 249.676 492.26 250.234 492.319C252.154 492.523 254.096 492.455 255.602 491.54C256.33 491.098 256.907 490.381 257.189 489.603C257.47 488.827 257.444 488.034 257.043 487.388L257.043 487.387C256.517 486.535 255.432 486.037 254.269 485.869L233.718 498.25ZM233.718 498.25C233.737 498.171 233.76 498.086 233.785 497.995C233.968 497.35 234.293 496.524 234.666 495.667C235.232 494.369 235.885 493.056 236.284 492.253C236.413 491.993 236.515 491.787 236.58 491.652C237.889 488.927 239.9 486.383 242.739 485.621L242.739 485.621C243.945 485.297 245.204 485.309 246.526 485.422C246.975 485.46 247.439 485.512 247.911 485.564C248.795 485.661 249.706 485.761 250.59 485.786L250.592 485.786C251.016 485.796 251.45 485.789 251.872 485.782C252.077 485.779 252.28 485.776 252.477 485.775C253.093 485.771 253.687 485.786 254.269 485.869L233.718 498.25Z" fill="#04D361" stroke="#04D361"/>
<path d="M228.929 491.381C228.893 491.486 228.852 491.617 228.805 491.767C228.663 492.22 228.467 492.843 228.225 493.434C228.064 493.826 227.894 494.175 227.723 494.427C227.638 494.552 227.562 494.64 227.5 494.695C227.443 494.744 227.414 494.753 227.413 494.753C227.345 494.766 227.182 494.748 226.903 494.614C226.64 494.489 226.343 494.294 226.04 494.064C225.436 493.607 224.868 493.057 224.592 492.78C223.752 491.932 223.086 490.935 222.676 489.848L222.675 489.846C222.193 488.588 222.025 487.241 221.857 485.822C221.853 485.79 221.849 485.757 221.845 485.724C221.683 484.356 221.513 482.92 221.018 481.555L221.017 481.555C220.453 480.009 219.492 478.625 218.578 477.312C218.34 476.969 218.105 476.63 217.881 476.295C216.773 474.637 215.852 472.886 215.867 471.062C215.881 469.241 217.087 467.408 218.817 467.113L218.818 467.113C219.964 466.916 221.189 467.378 222.206 468.117L222.207 468.118C223.645 469.159 224.691 470.679 225.138 472.353C225.406 473.367 225.459 474.425 225.512 475.544L225.514 475.594C225.565 476.681 225.618 477.826 225.905 478.941C226.262 480.341 226.969 481.623 227.639 482.838C227.691 482.932 227.742 483.025 227.794 483.118C228.52 484.44 229.172 485.695 229.402 487.059L229.402 487.06C229.645 488.485 229.399 489.954 228.929 491.381ZM228.929 491.381C228.929 491.381 228.929 491.38 228.929 491.38L229.403 491.538M228.929 491.381C228.928 491.381 228.928 491.382 228.928 491.382L229.403 491.538M229.403 491.538C229.887 490.069 230.156 488.511 229.895 486.976M229.403 491.538C229.372 491.633 229.333 491.755 229.288 491.899C228.959 492.948 228.282 495.102 227.504 495.245C226.59 495.415 224.799 493.694 224.237 493.133C223.353 492.24 222.646 491.184 222.208 490.025L229.895 486.976M229.895 486.976C229.632 485.418 228.859 484.014 228.083 482.608C227.407 481.381 226.73 480.152 226.39 478.817C226.115 477.752 226.064 476.65 226.012 475.549C225.96 474.428 225.908 473.307 225.621 472.224C225.144 470.437 224.03 468.821 222.5 467.713C221.424 466.931 220.063 466.392 218.734 466.62L229.895 486.976Z" fill="#04D361" stroke="#04D361"/>
<path d="M228.081 517.425C227.558 510.654 225.744 503.005 221.8 497.372" stroke="#04D361" stroke-width="0.779" stroke-miterlimit="10"/>
<path d="M220.778 492.317L220.779 492.319C221.34 493.82 221.687 495.395 221.977 496.988L221.978 496.99C221.994 497.077 222.022 497.19 222.048 497.298C222.058 497.338 222.068 497.377 222.076 497.414C222.113 497.566 222.145 497.718 222.162 497.86C222.18 498.006 222.177 498.113 222.163 498.184C222.157 498.209 222.152 498.224 222.148 498.232C222.135 498.234 222.107 498.237 222.054 498.23C221.955 498.215 221.821 498.17 221.664 498.093C221.352 497.939 221.045 497.708 220.89 497.576C220.612 497.332 220.365 497.049 220.115 496.737C220.027 496.629 219.936 496.512 219.842 496.392C219.679 496.183 219.508 495.965 219.338 495.764L219.338 495.763C217.033 493.044 213.4 491.745 209.908 491.265C208.158 491.024 206.4 490.961 204.658 490.934C204.198 490.927 203.739 490.922 203.281 490.918C202.001 490.905 200.733 490.892 199.466 490.825L199.466 490.825L199.462 490.825C198.671 490.788 197.977 490.704 197.469 490.358C196.817 489.91 196.541 488.992 196.743 488.148C196.945 487.309 197.552 486.553 198.319 485.922L198.32 485.922C200.009 484.529 202.258 483.823 204.536 483.68C206.813 483.537 209.115 483.929 211.367 484.514L211.367 484.514C213.538 485.077 215.644 485.831 217.297 487.165C218.928 488.487 220.045 490.335 220.778 492.317ZM222.143 498.239C222.143 498.239 222.144 498.238 222.145 498.236C222.144 498.238 222.143 498.239 222.143 498.239ZM222.53 497.162C222.505 497.061 222.483 496.971 222.469 496.899L220.563 497.954C220.909 498.25 221.939 498.995 222.438 498.641C222.825 498.367 222.647 497.64 222.53 497.162Z" fill="#04D361" stroke="#04D361"/>
<path d="M227.935 518.147C227.627 512.241 224.86 506.482 220.386 502.421" stroke="#04D361" stroke-width="0.779" stroke-miterlimit="10"/>
<path d="M218.014 499.412C216.474 498.626 214.728 498.113 213 497.648L218.014 499.412ZM218.014 499.412C218.131 499.472 218.235 499.525 218.338 499.584L218.338 499.584L218.349 499.591C219.002 499.945 219.439 500.561 219.935 501.286C219.987 501.362 220.071 501.524 220.19 501.769C220.225 501.842 220.263 501.922 220.302 502.004C220.383 502.173 220.471 502.357 220.56 502.534C218.518 502.031 216.297 502.052 214.355 502.069L214.325 502.07C214.324 502.07 214.324 502.07 214.324 502.07M218.014 499.412L214.324 502.07M214.324 502.07C211.578 502.092 208.83 502.582 206.261 503.533L206.261 503.533L206.259 503.534C205.916 503.662 205.583 503.795 205.255 503.925C204.01 504.421 202.847 504.883 201.59 504.95C201.175 504.969 200.736 504.911 200.386 504.769C200.037 504.627 199.827 504.426 199.745 504.18C199.617 503.774 199.836 503.264 200.271 502.707L200.271 502.707M214.324 502.07L200.271 502.707M200.271 502.707L200.273 502.706M200.271 502.707L200.273 502.706M200.273 502.706C201.123 501.607 202.223 500.704 203.368 499.767C204.861 498.55 206.325 497.393 208.078 497.066L200.273 502.706ZM221.219 502.717C221.06 502.428 220.9 502.095 220.756 501.794C220.593 501.453 220.45 501.154 220.348 501.004C219.863 500.296 219.364 499.572 218.587 499.151C218.472 499.085 218.357 499.026 218.242 498.967L221.219 502.717ZM208.079 497.066C209.655 496.773 211.305 497.192 213 497.648L208.079 497.066Z" fill="#04D361" stroke="#04D361"/>
<path d="M446.849 493.287C446.395 491.707 445.027 490.606 443.72 489.595C441.914 488.192 439.877 486.723 437.486 486.878M446.849 493.287L437.486 486.878M446.849 493.287C447.402 495.214 446.38 497.451 444.719 498.78L446.849 493.287ZM437.486 486.878L437.518 487.377C437.519 487.377 437.519 487.377 437.519 487.377C437.519 487.377 437.52 487.377 437.52 487.377L437.486 486.878ZM420.846 485.036C420.846 485.036 420.846 485.036 420.846 485.036L420.636 484.582L420.846 485.036ZM408.961 497.306C408.961 497.306 408.961 497.306 408.962 497.306L408.721 496.867L408.961 497.306ZM404.449 502.748L403.986 502.56L404.449 502.749C404.449 502.749 404.449 502.749 404.449 502.748C404.449 502.748 404.449 502.748 404.449 502.748ZM415.655 507.078L415.634 506.579C415.634 506.579 415.634 506.579 415.634 506.579L415.655 507.078ZM431.08 506.908C431.08 506.908 431.08 506.909 431.08 506.909C431.08 506.909 431.08 506.909 431.079 506.91L431.521 507.145L431.08 506.908Z" fill="#04D361" stroke="#04D361"/>
<path d="M403.463 509.034C413.695 500.595 425.633 495.006 438.516 492.628" stroke="white" stroke-width="0.7047" stroke-miterlimit="10" stroke-linecap="round" stroke-linejoin="round"/>
<path d="M413.579 496.055C413.818 493.272 413.272 490.37 414.225 487.734C415.924 483.039 421.812 480.588 423.288 475.825C425.056 470.133 419.66 464.323 420.598 458.453C420.99 455.98 422.473 453.802 423.396 451.461C424.318 449.121 424.556 446.19 422.765 444.366C420.89 442.461 417.484 442.683 415.255 444.204C413.026 445.724 411.742 448.19 410.697 450.619C409.659 453.049 408.744 455.588 406.984 457.604C403.778 461.273 398.013 462.883 396.261 467.364C394.477 471.927 397.852 476.756 398.451 481.592C398.905 485.254 397.744 488.901 396.706 492.46C395.676 496.018 394.762 499.784 395.707 503.357C396.968 508.119 401.434 511.154 405.716 508.097C409.951 505.092 413.141 501.29 413.579 496.055Z" fill="#04D361"/>
<path d="M403.002 509.264C401.303 492.268 405.193 473.832 414.279 459.155" stroke="white" stroke-width="1.1364" stroke-miterlimit="10" stroke-linecap="round" stroke-linejoin="round"/>
<path d="M391.687 502.855C389.819 500.323 388.75 497.156 386.214 495.229C383.308 493.014 379.28 492.991 375.59 492.704C371.893 492.416 367.726 491.411 366.012 488.252C365.074 486.516 365.074 484.457 364.421 482.611C363.698 480.58 362.223 478.897 361.185 477C360.155 475.102 359.609 472.688 360.808 470.879C362.023 469.048 364.682 468.509 366.858 469.1C369.033 469.69 370.817 471.16 372.446 472.666C374.076 474.172 375.667 475.781 377.673 476.771C381.002 478.402 384.953 478.1 388.689 477.945C392.425 477.797 396.499 477.945 399.389 480.233C401.765 482.116 402.848 485.077 403.817 487.89C405.216 491.914 406.646 495.923 408.006 499.961C408.844 502.442 410.443 506.244 407.753 508.193C403.01 511.626 394.423 506.554 391.687 502.855Z" fill="#04D361"/>
<path d="M406.254 508.34C400.319 495.109 387.759 483.843 372.723 478.874" stroke="white" stroke-width="0.8174" stroke-miterlimit="10" stroke-linecap="round" stroke-linejoin="round"/>
<path d="M64.3593 507.732C66.0582 505.303 67.0421 502.187 69.3251 500.408C71.9464 498.378 75.5516 498.643 78.8724 498.607C82.1855 498.577 85.929 497.861 87.4972 494.789C88.3581 493.106 88.3658 491.024 88.9731 489.2C89.6342 487.2 90.9717 485.605 91.9172 483.759C92.855 481.913 93.3624 479.514 92.3093 477.602C91.2331 475.667 88.8578 474.936 86.9053 475.379C84.9528 475.822 83.3385 477.181 81.8703 478.584C80.4021 479.986 78.9646 481.5 77.1505 482.356C74.1526 483.774 70.6166 483.183 67.265 482.762C63.9135 482.349 60.2622 482.216 57.6563 484.32C55.5116 486.055 54.52 488.972 53.6206 491.74C52.3369 495.705 51.0224 499.655 49.7694 503.634C49.0007 506.086 47.5325 509.807 49.9309 511.97C54.1356 515.794 61.8764 511.276 64.3593 507.732Z" fill="#04D361"/>
<path d="M51.2605 512.251C56.6875 499.301 68.0335 488.809 81.5473 484.845" stroke="white" stroke-width="0.7781" stroke-miterlimit="10" stroke-linecap="round" stroke-linejoin="round"/>
<path d="M43.8196 500.932C43.6352 498.37 44.0656 495.705 43.3046 493.276C41.944 488.957 37.2242 486.705 36.0404 482.327C34.626 477.092 38.9461 471.747 38.2005 466.343C37.8853 464.069 36.6938 462.068 35.9558 459.912C35.2179 457.756 35.0257 455.061 36.4632 453.385C37.9698 451.628 40.691 451.835 42.4821 453.238C44.2655 454.64 45.2955 456.907 46.1334 459.137C46.9636 461.366 47.7016 463.707 49.1083 465.56C51.6757 468.934 56.2956 470.411 57.6947 474.538C59.1244 478.739 56.4186 483.176 55.942 487.628C55.5807 491.002 56.5109 494.354 57.3411 497.625C58.1713 500.896 58.9015 504.358 58.1405 507.651C57.1335 512.029 53.5514 514.82 50.123 512.014C46.733 509.246 44.1732 505.746 43.8196 500.932Z" fill="#04D361"/>
<path d="M52.2905 513.077C53.6511 497.447 50.5302 480.488 43.2583 466.984" stroke="white" stroke-width="0.9754" stroke-miterlimit="10" stroke-linecap="round" stroke-linejoin="round"/>
<path d="M17.0256 500.808C16.1144 499.69 14.9217 499.179 13.7001 498.919C12.8196 498.732 11.8778 498.669 11.0045 498.611C10.6928 498.59 10.3899 498.569 10.1016 498.544L10.1006 498.544C7.66884 498.337 5.1416 497.475 3.20678 495.645L3.20609 495.644C1.25825 493.809 0.0751457 490.889 0.643115 488.551C1.11313 486.632 2.59574 485.34 4.1558 484.065L4.15631 484.065C6.32832 482.285 8.58469 480.612 11.2209 480.969L11.2216 480.97C12.1721 481.097 13.115 481.483 14.1313 481.899L14.1917 481.924C15.204 482.339 16.2931 482.779 17.4191 482.891C18.8437 483.033 20.1257 482.643 21.2981 482.066C22.1857 481.63 23.0434 481.068 23.8571 480.535C24.1044 480.373 24.3477 480.214 24.5865 480.061L24.5875 480.061C26.6733 478.723 29.124 477.811 31.2952 479.048C33.188 480.132 34.2878 482.523 35.0569 484.917L35.0573 484.918C35.1524 485.211 35.2463 485.509 35.3413 485.812C36.0042 487.92 36.7225 490.205 38.2672 491.913C39.3649 493.132 40.7103 493.881 42.0497 494.523C42.3791 494.681 42.7059 494.831 43.029 494.98C44.0431 495.447 45.0211 495.898 45.933 496.505L45.9336 496.506C48.5284 498.228 50.4289 501.179 51.5912 504.296C51.6064 504.337 51.6218 504.379 51.6375 504.421C52.0698 505.584 52.6928 507.26 53.0524 508.892C53.2386 509.737 53.3491 510.549 53.3318 511.257C53.3144 511.971 53.1685 512.527 52.892 512.911L52.8908 512.913C52.2819 513.764 51.1816 513.894 49.7627 513.558C48.3718 513.227 46.9007 512.495 45.8377 511.953L45.8373 511.953C45.4578 511.76 45.0724 511.558 44.6829 511.353C43.839 510.911 42.9763 510.458 42.115 510.067C40.8466 509.491 39.5288 509.023 38.162 508.874L38.162 508.874C35.7148 508.609 33.4344 509.416 31.3598 510.195L31.3036 510.217C29.22 510.999 27.2015 511.758 25.032 511.626C22.86 511.495 20.4842 510.243 19.4331 508.069C18.9944 507.155 18.8039 506.145 18.6009 505.069C18.5644 504.875 18.5274 504.68 18.4885 504.482C18.2409 503.221 17.9146 501.895 17.0256 500.808ZM17.0256 500.808C17.0257 500.808 17.0258 500.809 17.026 500.809L16.6383 501.125M17.0256 500.808C17.0255 500.808 17.0254 500.808 17.0253 500.808L16.6383 501.125M16.6383 501.125C15.229 499.394 13.0495 499.249 11.0043 499.112C10.6845 499.091 10.368 499.069 10.0582 499.042L16.6383 501.125Z" fill="#04D361" stroke="#04D361"/>
<path d="M52.844 512.901C40.3065 500.748 25.7704 492.317 10.1812 488.153" stroke="white" stroke-width="0.8986" stroke-miterlimit="10" stroke-linecap="round" stroke-linejoin="round"/>
<path d="M173.012 349H116.988C114.229 349 112 346.162 112 342.672V308.328C112 304.828 114.237 302 116.988 302H173.012C175.771 302 178 304.838 178 308.328V342.661C178.008 346.162 175.771 349 173.012 349Z" fill="#2D9CDB"/>
<path d="M117.941 336.858C123.161 336.858 123.161 328.974 128.381 328.974C133.602 328.974 133.602 318.462 138.822 318.462C144.042 318.462 144.042 322.488 149.263 322.488C154.483 322.488 154.483 312.764 159.703 312.764C164.924 312.764 164.924 328.018 170.144 328.018" stroke="white" stroke-miterlimit="10" stroke-linecap="round" stroke-linejoin="round"/>
<path d="M119.465 336.858C119.465 335.796 118.786 334.934 117.949 334.934C117.112 334.934 116.433 335.796 116.433 336.858C116.433 337.919 117.112 338.781 117.949 338.781C118.786 338.781 119.465 337.919 119.465 336.858Z" fill="white"/>
<path d="M171.669 328.027C171.669 326.966 170.989 326.104 170.152 326.104C169.316 326.104 168.636 326.966 168.636 328.027C168.636 329.089 169.316 329.951 170.152 329.951C170.989 329.951 171.669 329.089 171.669 328.027Z" fill="white"/>
<path d="M282.708 201.338H346.262C350.516 201.338 353.97 197.038 353.97 191.742V167.595C353.97 162.3 350.516 158 346.262 158H282.708C278.454 158 275 162.3 275 167.595V191.742C275 197.05 278.454 201.338 282.708 201.338Z" fill="#2D9CDB"/>
<path d="M344.502 198.854V209.375L335.439 198.104L344.502 198.854Z" fill="#2D9CDB"/>
<path d="M282.303 168.638H299.921" stroke="white" stroke-miterlimit="10" stroke-linecap="round" stroke-linejoin="round"/>
<path d="M306.198 168.639H346.667" stroke="white" stroke-miterlimit="10" stroke-linecap="round" stroke-linejoin="round"/>
<path d="M282.303 179.677H315.148" stroke="white" stroke-miterlimit="10" stroke-linecap="round" stroke-linejoin="round"/>
<path d="M320.174 179.676H329.896" stroke="white" stroke-miterlimit="10" stroke-linecap="round" stroke-linejoin="round"/>
<path d="M335.11 179.676H346.667" stroke="white" stroke-miterlimit="10" stroke-linecap="round" stroke-linejoin="round"/>
<path d="M282.303 190.699H289.738" stroke="white" stroke-miterlimit="10" stroke-linecap="round" stroke-linejoin="round"/>
<path d="M294.293 190.699H321.115" stroke="white" stroke-miterlimit="10" stroke-linecap="round" stroke-linejoin="round"/>
<path d="M102.208 478.031L94.7986 509.128H81.741L84.8843 478.031H102.208Z" fill="#A67A62"/>
<path d="M80.3234 502.623C80.3234 502.623 74.6513 511.925 78.9053 513.581C83.1594 515.237 111.165 515.381 118.078 514.337C124.991 513.281 102.657 503.667 97.5524 502.155C92.4475 500.643 90.7931 508.528 80.3234 502.623Z" fill="#56CCF2"/>
<path d="M61.0846 478.031L56.606 509.128H43.5483L43.7611 478.031H61.0846Z" fill="#A67A62"/>
<path d="M42.1311 502.623C42.1311 502.623 36.459 511.925 40.7131 513.581C44.9671 515.237 72.9731 515.381 79.886 514.337C86.7988 513.281 64.465 503.667 59.3601 502.155C54.2552 500.643 52.6008 508.528 42.1311 502.623Z" fill="#56CCF2"/>
<path d="M39.1418 327.635L40.1108 493.575H60.8376L75.4787 371.658L92.1641 421.13L79.6737 493.587H102.22C102.22 493.587 122.037 430.972 121.234 418.682C120.43 406.38 97.5526 322.582 97.5526 322.582L39.1418 327.635Z" fill="#D8D8E3"/>
<path d="M79.4173 381.818L75.975 371.601L77.5797 355.066L79.4173 381.818Z" fill="#C9C9D4" stroke="#C9C9D4"/>
<path d="M50.8417 325.632L49.6471 493.588" stroke="#C9C9D4" stroke-miterlimit="10"/>
<path d="M114.309 251.637C114.309 251.637 127.697 277.357 127.993 285.255C128.288 293.152 119.721 291.388 115.289 284.271C110.858 277.141 103.768 256.93 103.768 256.93L114.309 251.637Z" fill="#A67A62"/>
<path d="M116.814 253.786C116.814 253.786 112.973 260.724 103.768 264.96C101.866 265.836 100.259 263.52 99.065 260.772C97.6825 257.567 96.8789 253.786 96.8789 253.786C96.8789 253.786 86.3265 220.625 95.6263 221.813C95.6263 221.813 103.544 222.377 109.358 234.019C110.882 237.056 113.257 243.177 115.242 248.986C115.81 250.642 116.341 252.262 116.814 253.786Z" fill="#56CCF2"/>
<path d="M116.814 253.786C116.814 253.786 112.973 260.723 103.768 264.96C101.866 265.836 100.258 263.519 99.0649 260.771C102.669 259.127 109.487 255.43 115.242 248.985C115.809 250.641 116.341 252.261 116.814 253.786Z" fill="#04D361"/>
<path d="M98.0251 324.392C92.1758 331.138 53.6646 330.141 39.1299 327.633C36.5775 327.189 34.0605 326.193 38.09 317.167C39.6026 313.795 38.9526 305.117 38.6927 293.187C38.1845 269.603 31.2953 230.476 39.7916 225.988C44.8847 223.287 55.6971 219.735 63.5554 217.31C64.028 217.178 64.4889 217.034 64.9379 216.89C69.5229 215.498 72.7961 214.574 72.7961 214.574C72.7961 214.574 76.5893 215.138 84.3058 217.454C84.7193 217.574 85.1684 217.718 85.6174 217.85C87.6263 218.474 89.8597 219.195 92.353 220.059C97.1861 221.727 100.731 222.747 101.594 224.379C103.898 228.664 103.012 236.261 103.154 247.207C103.343 260.95 103.201 318.439 98.0251 324.392Z" fill="#56CCF2"/>
<path d="M36.8844 266.483L45.1917 245.912L39.1414 298.829L36.8844 266.483Z" fill="#56CCF2"/>
<path d="M85.6173 217.863C85.4401 220.768 84.152 223.324 82.214 225.196C80.2288 227.117 77.5464 228.281 74.6276 228.281C68.5892 228.281 63.697 223.372 63.5789 217.299C64.0515 217.167 64.5124 217.023 64.9614 216.879C69.5464 215.487 72.8196 214.563 72.8196 214.563C72.8196 214.563 76.6129 215.127 84.3293 217.443C84.731 217.599 85.1683 217.731 85.6173 217.863Z" fill="#04D361"/>
<path d="M90.6532 172.584C90.6532 172.584 86.2776 168.337 79.6566 167.326C69.972 165.848 57.2207 169.049 54.6808 184.065C52.6719 192.718 63.059 206.941 66.9822 206.113C66.9822 206.113 102.297 183.408 90.6532 172.584Z" fill="#43302D"/>
<path d="M84.2938 193.393L83.3485 212.02L83.0767 217.337C82.9703 219.593 81.9895 221.609 80.477 223.062C78.9762 224.514 76.9437 225.39 74.7222 225.39C70.0191 225.39 66.2377 221.453 66.3558 216.689L66.5922 207.207L66.994 191.448L84.2938 193.393Z" fill="#A67A62"/>
<path d="M84.2939 197.101L83.3486 214.648C75.2304 214.985 69.2983 211.624 66.5804 207.159L66.9822 195.157L84.2939 197.101Z" fill="#765441"/>
<path d="M90.734 182.673C90.734 182.673 91.3366 188.746 90.4976 195.456C89.5286 203.221 89.8713 212.342 78.598 212.955C66.5685 213.603 62.5862 199.932 62.5862 199.932C62.5862 199.932 56.1933 198.72 55.7561 194.339C55.3188 189.959 59.7856 189.707 61.2391 190.931C61.2391 190.931 62.8934 174.584 77.7591 174.584C90.9112 174.596 90.734 182.673 90.734 182.673Z" fill="#A67A62"/>
<path d="M76.979 194.409C76.979 195.081 76.4473 195.621 75.7857 195.621C75.1241 195.621 74.5924 195.081 74.5924 194.409C74.5924 193.737 75.1241 193.197 75.7857 193.197C76.4355 193.197 76.979 193.737 76.979 194.409Z" fill="#60423D"/>
<path d="M88.4767 193.786C88.4767 194.458 87.945 194.998 87.2834 194.998C86.6218 194.998 86.0901 194.458 86.0901 193.786C86.0901 193.114 86.6218 192.574 87.2834 192.574C87.945 192.574 88.4767 193.114 88.4767 193.786Z" fill="#60423D"/>
<path d="M71.0826 190.944C71.0826 190.944 72.8431 187.992 76.612 189.06" stroke="#43302D" stroke-miterlimit="10" stroke-linecap="round" stroke-linejoin="round"/>
<path d="M83.0884 189.01C83.0884 189.01 85.8058 186.49 88.4759 189.25" stroke="#43302D" stroke-miterlimit="10" stroke-linecap="round" stroke-linejoin="round"/>
<path d="M80.7135 192.009C80.7135 192.009 82.0015 195.345 83.1005 197.434C84.1994 199.51 80.9498 200.434 80.9498 200.434" stroke="#765441" stroke-width="0.75" stroke-miterlimit="10" stroke-linecap="round" stroke-linejoin="round"/>
<path d="M76.3885 204.169C76.3885 204.169 79.0469 206.785 82.4614 205.189" stroke="#765441" stroke-width="0.75" stroke-miterlimit="10" stroke-linecap="round" stroke-linejoin="round"/>
<path d="M61.0499 195.753C61.0499 195.753 61.0144 191.997 58.2498 193.017" stroke="#765441" stroke-width="0.75" stroke-miterlimit="10" stroke-linecap="round" stroke-linejoin="round"/>
<path d="M64.7019 178.28C64.7019 178.28 71.4611 185.278 67.7624 187.954C63.6502 190.931 63.0003 195.155 63.0003 195.155C63.0003 195.155 63.083 193.667 61.2514 190.943C59.4198 188.218 55.4257 178.545 64.7019 178.28Z" fill="#43302D"/>
<path d="M27.6914 253.017C27.6914 253.017 14.3029 278.737 14.0074 286.635C13.712 294.532 22.2792 292.768 26.7106 285.65C31.1419 278.521 38.232 258.31 38.232 258.31L27.6914 253.017Z" fill="#A67A62"/>
<path d="M123.159 276.556C123.159 276.556 103.201 261.553 102.066 260.701C100.14 259.237 97.3277 257.112 96.3115 256.392C94.7044 255.252 85.31 253.596 83.9983 253.812C82.6985 254.028 79.0943 254.652 78.0426 255.048C76.9909 255.444 78.3144 256.812 79.3543 257.46C80.3942 258.109 85.0027 260.533 88.9141 261.265C91.0884 261.673 92.9555 262.789 94.4799 263.905C95.697 264.794 116.755 286.601 117.546 287.129L123.159 276.556Z" fill="#A67A62"/>
<path d="M98.4505 258.145C98.4505 258.145 90.935 251.004 89.8124 251.112C88.7016 251.22 89.4933 252.828 92.4475 255.264C93.452 256.092 94.5273 257.401 95.4254 257.833C97.1861 258.673 98.4505 258.145 98.4505 258.145Z" fill="#A67A62"/>
<path d="M92.4139 284.026L92.4111 284.026L65.0083 287.351C63.7733 287.5 62.7535 286.334 63.0709 285.091C63.0709 285.091 63.0709 285.091 63.0709 285.091L69.6174 259.527L69.6174 259.526C69.804 258.797 70.407 258.266 71.1285 258.183L71.1285 258.183L71.1312 258.183L98.5341 254.858C98.5341 254.858 98.5342 254.858 98.5343 254.858C99.7691 254.71 100.789 255.875 100.471 257.118C100.471 257.118 100.471 257.118 100.471 257.118L93.9249 282.682L93.9249 282.683C93.7383 283.412 93.1354 283.943 92.4139 284.026Z" fill="#04D361" stroke="#04D361"/>
<path d="M93.6894 285.377L66.2861 288.702C64.6908 288.894 63.4027 287.394 63.8045 285.821L70.3511 260.257C70.5874 259.333 71.3555 258.649 72.289 258.541L99.6923 255.216C101.288 255.024 102.576 256.524 102.174 258.097L95.6273 283.661C95.391 284.573 94.6229 285.257 93.6894 285.377Z" fill="white"/>
<path d="M72.7488 265.434L72.7488 265.434L72.7476 265.439C72.7285 265.516 72.654 265.594 72.5467 265.615L71.2369 265.77L71.2368 265.77C71.088 265.787 70.9433 265.64 70.988 265.467L70.9882 265.466L72.276 260.45L72.2761 260.45L72.2783 260.441C72.3005 260.347 72.3767 260.282 72.4659 260.271L73.7879 260.115L73.788 260.115C73.9368 260.097 74.0815 260.244 74.0368 260.417L74.0366 260.418L72.7488 265.434ZM73.2331 265.558L74.5209 260.542L72.6187 266.11C72.9141 266.062 73.1622 265.846 73.2331 265.558ZM71.7917 260.326L70.5039 265.342L72.4061 259.774C72.1107 259.81 71.8626 260.026 71.7917 260.326Z" fill="#04D361" stroke="#04D361"/>
<path d="M19.1241 279.026C27.4905 279.363 53.6412 278.81 57.1035 277.61C58.5924 277.094 62.2557 276.314 63.1892 274.838C64.1345 273.337 64.9381 271.057 65.9189 270.889C66.6752 270.757 66.4979 273.229 66.2734 274.13C65.848 275.75 65.5644 276.59 64.9972 277.334C64.8081 277.586 71.2483 278.522 75.2896 277.478C78.0666 276.758 77.5467 279.014 75.6796 279.963C75.6796 279.963 76.4241 281.931 74.4625 282.579C74.4625 282.579 74.8052 284.763 72.9145 284.931C72.7136 285.472 72.1227 286.444 70.492 286.912C68.1286 287.584 64.0282 287.572 60.9085 287.704C59.0651 287.776 23.4373 293.429 17.1389 291.821C14.5155 291.149 16.4062 278.918 19.1241 279.026Z" fill="#A67A62"/>
<path d="M43.1359 256.474C43.1359 256.474 42.5214 258.838 41.6115 261.275C40.5953 263.963 39.2127 266.723 37.8538 266.471C37.8538 266.471 19.3722 260.542 19.9867 258.622C20.4475 257.194 21.2393 255.334 22.2201 253.269C25.2806 246.812 30.1373 238.387 32.0989 235.122C38.7873 223.972 41.5288 225.388 41.5288 225.388C50.8996 224.932 43.1359 256.474 43.1359 256.474Z" fill="#56CCF2"/>
<path d="M41.6115 261.276C40.5953 263.964 39.2127 266.724 37.8538 266.472C37.8538 266.472 19.3722 260.543 19.9867 258.623C20.4475 257.195 21.2393 255.335 22.2201 253.27C25.6233 254.902 34.805 259.187 41.6115 261.276Z" fill="#04D361"/>
<path d="M47.4725 313.831C47.4725 313.831 78.1964 308.826 94.74 298.828C94.74 298.828 76.2348 317.635 47.4725 313.831Z" fill="#56CCF2"/>
<path d="M359.628 485.647L357.331 517.066H369.246L375.435 485.647H359.628Z" fill="#FEC9CF"/>
<path d="M370.54 510.494C370.54 510.494 375.715 519.892 371.834 521.565C367.952 523.238 342.398 523.384 336.091 522.329C329.783 521.262 350.162 511.549 354.819 510.021C359.488 508.493 360.987 516.46 370.54 510.494Z" fill="#56CCF2"/>
<path d="M422.273 485.648L424.559 517.067H412.644L406.466 485.648H422.273Z" fill="#FEC9CF"/>
<path d="M411.351 510.495C411.351 510.495 406.175 519.893 410.057 521.566C413.939 523.24 439.492 523.385 445.8 522.33C452.107 521.263 431.729 511.55 427.071 510.022C422.413 508.494 420.904 516.461 411.351 510.495Z" fill="#56CCF2"/>
<path d="M357.235 313.856L351.833 502.237H376.988L382.411 376.767L403.965 505.838L431.362 500.709C431.362 500.709 406.628 359.912 402.423 313.869H357.235V313.856Z" fill="#D8D8E3"/>
<path d="M381.235 387.117L380.21 362.76L381.909 376.769L381.235 387.117Z" fill="#194248" stroke="#C9C9D4"/>
<path d="M394.336 313.856L423.448 501.764" stroke="#C9C9D4" stroke-miterlimit="10" stroke-linecap="round" stroke-linejoin="round"/>
<path d="M388.276 175C393.646 175.012 399.35 178.177 401.161 183.864C402.563 188.242 401.506 193.407 403.469 197.506C404.913 200.538 407.803 202.49 409.108 205.594C411.803 212.045 406.552 219.709 408.223 226.573C409.765 232.927 416.763 236.565 417.345 243.125C417.723 247.308 415.102 251.322 411.728 253.141C408.364 254.972 404.417 254.96 400.73 254.269C391.684 252.559 383.166 246.981 374.001 247.514C370.227 247.733 366.281 248.97 362.787 247.333C360.297 246.168 358.496 243.707 356.911 241.257C355.089 238.444 353.342 235.243 353.515 231.775C353.763 226.682 357.871 223.117 360.329 218.836C362.841 214.459 363.898 208.99 363.197 203.836C359.865 179.341 372.114 180.093 373.677 180.057C375.111 180.02 379.877 176.734 381.764 176.116C383.899 175.424 386.077 175 388.276 175Z" fill="#D38D00"/>
<path d="M330.732 277.77C325.546 273.126 304.456 257.435 304.251 255.24C303.863 251.117 302.58 247.855 294.72 245.042C294.72 245.042 294.094 246.351 295.183 247.794C296.359 249.358 297.307 249.904 297.307 249.904C297.307 249.904 295.216 250.777 292.132 248.012C289.048 245.248 287.765 242.859 286.45 243.429C286.45 243.429 284.919 241.84 284.185 242.083C284.185 242.083 283.646 242.253 283.743 242.907C282.525 242.677 282.741 246.618 284.865 249.856C287.927 254.5 293.329 258.041 296.499 259.387C298.871 260.393 314.429 286.271 324.856 289.072C327.853 289.848 333.147 279.929 330.732 277.77Z" fill="#FCDDC6"/>
<path d="M347.046 254.815C347.046 254.815 323.735 273.102 321.481 277.649C319.228 282.196 320.91 294.335 331.293 286.537C341.676 278.74 358.065 264.589 358.065 264.589L347.046 254.815Z" fill="#FCDDC6"/>
<path d="M359.025 238.167C359.025 238.167 352.62 239.986 348.35 245.697C344.771 250.487 339.002 258.199 339.002 258.199L356.685 273.648C356.696 273.636 361.009 245.552 359.025 238.167Z" fill="#56CCF2"/>
<path d="M402.423 313.857H357.224C357.224 313.857 357.407 305.138 354.895 291.593C352.372 278.06 353.634 270.978 356.146 263.909C358.669 256.839 354.173 240.493 359.025 238.165C360.998 237.219 364.426 235.691 367.791 234.224C368.642 233.86 369.483 233.484 370.292 233.133C374.195 231.435 377.484 230.028 377.484 230.028H385.624C385.624 230.028 391.231 232.114 396.989 234.697C397.743 235.036 398.509 235.388 399.264 235.74C399.264 235.752 399.264 235.752 399.264 235.752C402.164 237.122 404.935 238.565 406.822 239.887C412.935 244.131 402.423 313.857 402.423 313.857Z" fill="#56CCF2"/>
<path d="M374.745 207.534L375.607 226.353L375.855 231.725C375.963 234.005 376.847 236.042 378.227 237.51C379.597 238.977 381.451 239.862 383.478 239.862C387.77 239.862 391.22 235.885 391.112 231.071L390.896 221.491L390.53 205.569L374.745 207.534Z" fill="#FFDFC8"/>
<path d="M374.745 207.534L375.607 225.262C383.015 225.602 388.427 222.206 390.907 217.695L390.541 205.569L374.745 207.534Z" fill="#DA9F74"/>
<path d="M368.858 192.959C368.858 192.959 368.308 199.095 369.073 205.874C369.957 213.719 370.734 222.705 379.931 223.554C390.886 224.56 394.541 210.397 394.541 210.397C394.541 210.397 399.63 209.063 400.255 205.158C400.881 201.241 397.085 200.065 395.759 201.302C395.759 201.302 394.25 184.786 380.686 184.786C368.696 184.786 368.858 192.959 368.858 192.959Z" fill="#FFDFC8"/>
<path d="M399.264 235.74C399.264 235.752 399.264 235.752 399.264 235.74C389.991 248.448 379.058 247.854 379.058 247.854C370.432 245.732 367.791 234.224 367.791 234.224C368.643 233.86 369.484 233.484 370.292 233.133C374.195 231.435 377.484 230.028 377.484 230.028H385.624C385.624 230.028 391.231 232.114 396.989 234.697C397.744 235.036 398.509 235.388 399.264 235.74Z" fill="#04D361"/>
<path d="M396.988 234.697C387.532 246.253 379.338 245.041 379.338 245.041C370.529 241.245 370.292 233.133 370.292 233.133C374.195 231.435 377.483 230.028 377.483 230.028H385.624C385.624 230.028 391.231 232.114 396.988 234.697Z" fill="#FCDDC6"/>
<path d="M373.58 181.22C373.58 181.22 374.842 193.164 368.017 197.105C368.017 197.105 364.599 182.639 373.58 181.22Z" fill="#D38D00"/>
<path d="M371.51 182.362C371.51 182.362 373.936 192.766 379.953 193.372C385.969 193.978 384.902 199.46 390.228 200.09C393.398 200.466 394.81 204.177 394.81 204.177C394.81 204.177 395.274 200.49 398.142 199.181C401.032 197.871 391.36 170.332 371.51 182.362Z" fill="#D38D00"/>
<path d="M381.721 207.402C381.721 208.057 382.184 208.578 382.767 208.578C383.349 208.578 383.812 208.057 383.812 207.402C383.812 206.748 383.349 206.226 382.767 206.226C382.195 206.226 381.721 206.76 381.721 207.402Z" fill="#60423D"/>
<path d="M372.255 207.401C372.255 208.056 372.719 208.577 373.301 208.577C373.883 208.577 374.347 208.056 374.347 207.401C374.347 206.746 373.872 206.225 373.301 206.225C372.719 206.225 372.255 206.759 372.255 207.401Z" fill="#60423D"/>
<path d="M386.583 203.303C386.583 203.303 385.031 200.429 381.721 201.46" stroke="#561E15" stroke-miterlimit="10" stroke-linecap="round" stroke-linejoin="round"/>
<path d="M376.027 201.423C376.027 201.423 373.634 198.974 371.295 201.654" stroke="#561E15" stroke-miterlimit="10" stroke-linecap="round" stroke-linejoin="round"/>
<path d="M378.119 204.344C378.119 204.344 376.987 207.594 376.027 209.619C375.068 211.644 377.914 212.542 377.914 212.542" stroke="#DA9F74" stroke-width="0.75" stroke-miterlimit="10" stroke-linecap="round" stroke-linejoin="round"/>
<path d="M384.394 214.846C384.394 214.846 382.551 217.865 379.338 217.004" stroke="#DA9F74" stroke-width="0.75" stroke-miterlimit="10" stroke-linecap="round" stroke-linejoin="round"/>
<path d="M395.727 206.576C395.727 206.576 395.759 202.915 398.185 203.921" stroke="#DA9F74" stroke-width="0.75" stroke-miterlimit="10" stroke-linecap="round" stroke-linejoin="round"/>
<path d="M358.151 301.755H316.748C315.928 301.755 315.26 301.003 315.26 300.081C315.26 299.16 315.928 298.408 316.748 298.408H358.151C358.971 298.408 359.639 299.16 359.639 300.081C359.628 301.015 358.971 301.755 358.151 301.755Z" fill="#04D361"/>
<path d="M312.006 262.25L312.006 262.25L312.006 262.248C311.715 260.948 312.61 259.814 313.631 259.814H350.927C351.66 259.814 352.356 260.378 352.551 261.275L352.552 261.277L360.634 297.921H319.877L312.006 262.25Z" fill="#04D361" stroke="#04D361"/>
<path d="M358.389 298.421H316.608L308.65 262.358C308.305 260.818 309.351 259.314 310.764 259.314H348.059C349.062 259.314 349.935 260.078 350.173 261.169L358.389 298.421Z" fill="white"/>
<path d="M390.196 301.755H358.863C358.097 301.755 357.472 301.052 357.472 300.191V299.984C357.472 299.123 358.097 298.42 358.863 298.42H390.196C390.961 298.42 391.587 299.123 391.587 299.984V300.191C391.597 301.064 390.972 301.755 390.196 301.755Z" fill="#04D361"/>
<path d="M334.572 276.742L334.572 276.743C334.925 277.771 334.95 278.815 334.721 279.664C334.492 280.517 334.024 281.124 333.433 281.385C332.855 281.634 332.182 281.539 331.53 281.098C330.876 280.654 330.275 279.873 329.922 278.844C329.569 277.816 329.544 276.768 329.773 275.918C330.003 275.061 330.471 274.457 331.06 274.202C331.639 273.951 332.314 274.044 332.964 274.485C333.618 274.927 334.219 275.707 334.572 276.742Z" fill="#04D361" stroke="#04D361"/>
<path d="M404.709 298.42L401.991 258.815L407.21 275.489L404.709 298.42Z" fill="#56CCF2"/>
<path d="M405.064 262.843C405.064 262.843 411.512 301.817 413.108 308.195C414.143 312.318 421.669 315.131 424.03 309.674C424.548 308.474 424.429 306.473 424.375 304.436C424.009 291.837 416.17 259.775 416.17 259.775L405.064 262.843Z" fill="#FCDDC6"/>
<path d="M406.832 239.887C406.832 239.887 410.682 242.106 413.916 248.375C417.151 254.645 421.615 265.704 421.335 268.384C419.652 273.537 406.369 278.873 406.369 278.873C406.369 278.873 397.495 246.071 406.832 239.887Z" fill="#56CCF2"/>
<path d="M414.283 300.663C414.283 300.663 393.808 300.154 389.926 297.559C384.664 294.03 383.446 295.558 380.395 294.709C375.5 293.339 376.039 294.454 376.039 294.454C376.039 294.454 376.265 297.643 380.05 298.044C381.958 298.25 384.815 299.159 384.212 299.681C384.212 299.681 369.03 301.463 365.979 301.766C362.928 302.07 364.415 304.713 366.744 305.319C366.744 305.319 368.135 307.296 370.389 306.69C370.389 306.69 369.893 307.805 375.737 307.805C381.581 307.805 387.446 304.313 390.411 305.829C393.376 307.344 409.388 314.317 419.545 312.704C424.397 311.928 424.429 309.309 424.429 306.544C424.429 301.754 421.281 301.148 414.283 300.663Z" fill="#FCDDC6"/>
</svg>
