<svg width="446" height="285" viewBox="0 0 446 285" fill="none" xmlns="http://www.w3.org/2000/svg">
<path d="M390.043 58.0829C390.043 60.4234 388.298 62.3209 386.146 62.3209C383.994 62.3209 382.249 60.4234 382.249 58.0829C382.249 55.7425 383.994 53.845 386.146 53.845C388.292 53.845 390.043 55.7425 390.043 58.0829Z" stroke="#04D361" stroke-width="2" stroke-miterlimit="10" stroke-linecap="round" stroke-linejoin="round"/>
<path d="M388.964 61.0055L391.713 64.0025" stroke="#04D361" stroke-width="2" stroke-miterlimit="10" stroke-linecap="round" stroke-linejoin="round"/>
<path d="M237.57 1L241.67 5.45863" stroke="#04D361" stroke-width="2" stroke-miterlimit="10" stroke-linecap="round" stroke-linejoin="round"/>
<path d="M241.67 1L237.57 5.45863" stroke="#04D361" stroke-width="2" stroke-miterlimit="10" stroke-linecap="round" stroke-linejoin="round"/>
<path d="M296.337 257.688L300.437 262.146" stroke="#04D361" stroke-width="2" stroke-miterlimit="10" stroke-linecap="round" stroke-linejoin="round"/>
<path d="M300.437 257.688L296.337 262.146" stroke="#04D361" stroke-width="2" stroke-miterlimit="10" stroke-linecap="round" stroke-linejoin="round"/>
<path d="M36.138 198.604V204.909" stroke="#04D361" stroke-width="2" stroke-miterlimit="10" stroke-linecap="round" stroke-linejoin="round"/>
<path d="M39.0446 201.756H33.2396" stroke="#04D361" stroke-width="2" stroke-miterlimit="10" stroke-linecap="round" stroke-linejoin="round"/>
<path d="M23.528 150.192C23.528 152.304 21.9529 154.024 20.0043 154.024C18.0625 154.024 16.4806 152.311 16.4806 150.192C16.4806 148.081 18.0557 146.361 20.0043 146.361C21.9529 146.368 23.528 148.081 23.528 150.192Z" stroke="#04D361" stroke-width="2" stroke-miterlimit="10" stroke-linecap="round" stroke-linejoin="round"/>
<path d="M169.783 242.87C169.783 244.982 168.208 246.702 166.259 246.702C164.317 246.702 162.736 244.989 162.736 242.87C162.736 240.758 164.311 239.038 166.259 239.038C168.208 239.046 169.783 240.758 169.783 242.87Z" stroke="#04D361" stroke-width="2" stroke-miterlimit="10" stroke-linecap="round" stroke-linejoin="round"/>
<path d="M402.323 173.861C402.323 175.972 400.748 177.693 398.799 177.693C396.857 177.693 395.275 175.98 395.275 173.861C395.275 171.749 396.85 170.029 398.799 170.029C400.748 170.036 402.323 171.749 402.323 173.861Z" stroke="#04D361" stroke-width="2" stroke-miterlimit="10" stroke-linecap="round" stroke-linejoin="round"/>
<path d="M2.0524 83.0404C2.0524 83.571 1.66626 83.9281 1.2762 83.9281C0.886144 83.9281 0.5 83.571 0.5 83.0404C0.5 82.5098 0.886149 82.1526 1.2762 82.1526C1.66625 82.1526 2.0524 82.5098 2.0524 83.0404Z" fill="#F2F2F2" stroke="#F2F2F2"/>
<path d="M10.9669 83.0399C10.9669 83.5705 10.5808 83.9277 10.1907 83.9277C9.80066 83.9277 9.41452 83.5705 9.41452 83.0399C9.41452 82.5093 9.80067 82.1521 10.1907 82.1521C10.5808 82.1521 10.9669 82.5093 10.9669 83.0399Z" fill="#F2F2F2" stroke="#F2F2F2"/>
<path d="M19.8748 83.0399C19.8748 83.5705 19.4886 83.9277 19.0986 83.9277C18.7085 83.9277 18.3224 83.5705 18.3224 83.0399C18.3224 82.5093 18.7085 82.1521 19.0986 82.1521C19.4886 82.1521 19.8748 82.5093 19.8748 83.0399Z" fill="#F2F2F2" stroke="#F2F2F2"/>
<path d="M28.7894 83.0399C28.7894 83.5705 28.4032 83.9277 28.0132 83.9277C27.6231 83.9277 27.237 83.5705 27.237 83.0399C27.237 82.5093 27.6231 82.1521 28.0132 82.1521C28.4032 82.1521 28.7894 82.5093 28.7894 83.0399Z" fill="#F2F2F2" stroke="#F2F2F2"/>
<path d="M37.6971 83.0399C37.6971 83.5705 37.311 83.9277 36.9209 83.9277C36.5309 83.9277 36.1447 83.5705 36.1447 83.0399C36.1447 82.5093 36.5309 82.1521 36.9209 82.1521C37.311 82.1521 37.6971 82.5093 37.6971 83.0399Z" fill="#F2F2F2" stroke="#F2F2F2"/>
<path d="M46.6116 83.0399C46.6116 83.5705 46.2254 83.9277 45.8354 83.9277C45.4453 83.9277 45.0592 83.5705 45.0592 83.0399C45.0592 82.5093 45.4453 82.1521 45.8354 82.1521C46.2254 82.1521 46.6116 82.5093 46.6116 83.0399Z" fill="#F2F2F2" stroke="#F2F2F2"/>
<path d="M2.0524 92.7266C2.0524 93.2572 1.66625 93.6144 1.2762 93.6144C0.886148 93.6144 0.5 93.2572 0.5 92.7266C0.5 92.196 0.886148 91.8388 1.2762 91.8388C1.66625 91.8388 2.0524 92.196 2.0524 92.7266Z" fill="#F2F2F2" stroke="#F2F2F2"/>
<path d="M10.9669 92.7266C10.9669 93.2572 10.5808 93.6144 10.1907 93.6144C9.80067 93.6144 9.41452 93.2572 9.41452 92.7266C9.41452 92.196 9.80067 91.8388 10.1907 91.8388C10.5808 91.8388 10.9669 92.196 10.9669 92.7266Z" fill="#F2F2F2" stroke="#F2F2F2"/>
<path d="M19.8748 92.7266C19.8748 93.2572 19.4886 93.6144 19.0986 93.6144C18.7085 93.6144 18.3224 93.2572 18.3224 92.7266C18.3224 92.196 18.7085 91.8388 19.0986 91.8388C19.4886 91.8388 19.8748 92.196 19.8748 92.7266Z" fill="#F2F2F2" stroke="#F2F2F2"/>
<path d="M28.7894 92.7266C28.7894 93.2572 28.4032 93.6144 28.0132 93.6144C27.6231 93.6144 27.237 93.2572 27.237 92.7266C27.237 92.196 27.6231 91.8388 28.0132 91.8388C28.4032 91.8388 28.7894 92.196 28.7894 92.7266Z" fill="#F2F2F2" stroke="#F2F2F2"/>
<path d="M37.697 92.7266C37.697 93.2572 37.3109 93.6144 36.9208 93.6144C36.5308 93.6144 36.1447 93.2572 36.1447 92.7266C36.1447 92.196 36.5308 91.8388 36.9208 91.8388C37.3109 91.8388 37.697 92.196 37.697 92.7266Z" fill="#F2F2F2" stroke="#F2F2F2"/>
<path d="M46.6116 92.7266C46.6116 93.2572 46.2254 93.6144 45.8354 93.6144C45.4453 93.6144 45.0592 93.2572 45.0592 92.7266C45.0592 92.196 45.4453 91.8388 45.8354 91.8388C46.2254 91.8388 46.6116 92.196 46.6116 92.7266Z" fill="#F2F2F2" stroke="#F2F2F2"/>
<path d="M2.0524 102.421C2.0524 102.951 1.66626 103.308 1.2762 103.308C0.886144 103.308 0.5 102.951 0.5 102.421C0.5 101.89 0.886149 101.533 1.2762 101.533C1.66625 101.533 2.0524 101.89 2.0524 102.421Z" fill="#F2F2F2" stroke="#F2F2F2"/>
<path d="M10.9669 102.421C10.9669 102.951 10.5808 103.308 10.1907 103.308C9.80066 103.308 9.41452 102.951 9.41452 102.421C9.41452 101.89 9.80067 101.533 10.1907 101.533C10.5808 101.533 10.9669 101.89 10.9669 102.421Z" fill="#F2F2F2" stroke="#F2F2F2"/>
<path d="M19.8748 102.421C19.8748 102.951 19.4886 103.308 19.0986 103.308C18.7085 103.308 18.3224 102.951 18.3224 102.421C18.3224 101.89 18.7085 101.533 19.0986 101.533C19.4886 101.533 19.8748 101.89 19.8748 102.421Z" fill="#F2F2F2" stroke="#F2F2F2"/>
<path d="M28.7894 102.421C28.7894 102.951 28.4032 103.308 28.0132 103.308C27.6231 103.308 27.237 102.951 27.237 102.421C27.237 101.89 27.6231 101.533 28.0132 101.533C28.4032 101.533 28.7894 101.89 28.7894 102.421Z" fill="#F2F2F2" stroke="#F2F2F2"/>
<path d="M37.697 102.421C37.697 102.951 37.3109 103.308 36.9208 103.308C36.5308 103.308 36.1447 102.951 36.1447 102.421C36.1447 101.89 36.5308 101.533 36.9208 101.533C37.3109 101.533 37.697 101.89 37.697 102.421Z" fill="#F2F2F2" stroke="#F2F2F2"/>
<path d="M46.6116 102.421C46.6116 102.951 46.2254 103.308 45.8354 103.308C45.4453 103.308 45.0592 102.951 45.0592 102.421C45.0592 101.89 45.4453 101.533 45.8354 101.533C46.2254 101.533 46.6116 101.89 46.6116 102.421Z" fill="#F2F2F2" stroke="#F2F2F2"/>
<path d="M2.0524 112.107C2.0524 112.638 1.66625 112.995 1.2762 112.995C0.886149 112.995 0.5 112.638 0.5 112.107C0.5 111.577 0.886149 111.219 1.2762 111.219C1.66625 111.219 2.0524 111.577 2.0524 112.107Z" fill="#F2F2F2" stroke="#F2F2F2"/>
<path d="M10.9669 112.107C10.9669 112.638 10.5808 112.995 10.1907 112.995C9.80067 112.995 9.41452 112.638 9.41452 112.107C9.41452 111.577 9.80067 111.219 10.1907 111.219C10.5808 111.219 10.9669 111.577 10.9669 112.107Z" fill="#F2F2F2" stroke="#F2F2F2"/>
<path d="M19.8748 112.107C19.8748 112.638 19.4886 112.995 19.0986 112.995C18.7085 112.995 18.3224 112.638 18.3224 112.107C18.3224 111.577 18.7085 111.219 19.0986 111.219C19.4886 111.219 19.8748 111.577 19.8748 112.107Z" fill="#F2F2F2" stroke="#F2F2F2"/>
<path d="M28.7894 112.107C28.7894 112.638 28.4032 112.995 28.0132 112.995C27.6231 112.995 27.237 112.638 27.237 112.107C27.237 111.577 27.6231 111.219 28.0132 111.219C28.4032 111.219 28.7894 111.577 28.7894 112.107Z" fill="#F2F2F2" stroke="#F2F2F2"/>
<path d="M37.697 112.107C37.697 112.638 37.3109 112.995 36.9208 112.995C36.5308 112.995 36.1447 112.638 36.1447 112.107C36.1447 111.577 36.5308 111.219 36.9208 111.219C37.3109 111.219 37.697 111.577 37.697 112.107Z" fill="#F2F2F2" stroke="#F2F2F2"/>
<path d="M46.6116 112.107C46.6116 112.638 46.2254 112.995 45.8354 112.995C45.4453 112.995 45.0592 112.638 45.0592 112.107C45.0592 111.577 45.4453 111.219 45.8354 111.219C46.2254 111.219 46.6116 111.577 46.6116 112.107Z" fill="#F2F2F2" stroke="#F2F2F2"/>
<path d="M139.572 265.556C139.572 266.087 139.186 266.444 138.796 266.444C138.406 266.444 138.02 266.087 138.02 265.556C138.02 265.025 138.406 264.668 138.796 264.668C139.186 264.668 139.572 265.025 139.572 265.556Z" fill="#F2F2F2" stroke="#F2F2F2"/>
<path d="M148.487 265.556C148.487 266.087 148.1 266.444 147.71 266.444C147.32 266.444 146.934 266.087 146.934 265.556C146.934 265.025 147.32 264.668 147.71 264.668C148.1 264.668 148.487 265.025 148.487 265.556Z" fill="#F2F2F2" stroke="#F2F2F2"/>
<path d="M157.394 265.556C157.394 266.087 157.008 266.444 156.618 266.444C156.228 266.444 155.842 266.087 155.842 265.556C155.842 265.025 156.228 264.668 156.618 264.668C157.008 264.668 157.394 265.025 157.394 265.556Z" fill="#F2F2F2" stroke="#F2F2F2"/>
<path d="M166.309 265.556C166.309 266.087 165.923 266.444 165.533 266.444C165.143 266.444 164.756 266.087 164.756 265.556C164.756 265.025 165.143 264.668 165.533 264.668C165.923 264.668 166.309 265.025 166.309 265.556Z" fill="#F2F2F2" stroke="#F2F2F2"/>
<path d="M175.217 265.556C175.217 266.087 174.831 266.444 174.441 266.444C174.05 266.444 173.664 266.087 173.664 265.556C173.664 265.025 174.05 264.668 174.441 264.668C174.831 264.668 175.217 265.025 175.217 265.556Z" fill="#F2F2F2" stroke="#F2F2F2"/>
<path d="M139.572 275.25C139.572 275.78 139.186 276.138 138.796 276.138C138.406 276.138 138.02 275.78 138.02 275.25C138.02 274.719 138.406 274.362 138.796 274.362C139.186 274.362 139.572 274.719 139.572 275.25Z" fill="#F2F2F2" stroke="#F2F2F2"/>
<path d="M148.487 275.25C148.487 275.78 148.1 276.138 147.71 276.138C147.32 276.138 146.934 275.78 146.934 275.25C146.934 274.719 147.32 274.362 147.71 274.362C148.1 274.362 148.487 274.719 148.487 275.25Z" fill="#F2F2F2" stroke="#F2F2F2"/>
<path d="M157.394 275.25C157.394 275.78 157.008 276.138 156.618 276.138C156.228 276.138 155.842 275.78 155.842 275.25C155.842 274.719 156.228 274.362 156.618 274.362C157.008 274.362 157.394 274.719 157.394 275.25Z" fill="#F2F2F2" stroke="#F2F2F2"/>
<path d="M166.309 275.25C166.309 275.78 165.923 276.138 165.533 276.138C165.143 276.138 164.756 275.78 164.756 275.25C164.756 274.719 165.143 274.362 165.533 274.362C165.923 274.362 166.309 274.719 166.309 275.25Z" fill="#F2F2F2" stroke="#F2F2F2"/>
<path d="M175.217 275.25C175.217 275.78 174.831 276.138 174.441 276.138C174.05 276.138 173.664 275.78 173.664 275.25C173.664 274.719 174.05 274.362 174.441 274.362C174.831 274.362 175.217 274.719 175.217 275.25Z" fill="#F2F2F2" stroke="#F2F2F2"/>
<path d="M365.406 23.1526C365.406 23.6832 365.02 24.0404 364.63 24.0404C364.24 24.0404 363.854 23.6832 363.854 23.1526C363.854 22.622 364.24 22.2648 364.63 22.2648C365.02 22.2648 365.406 22.622 365.406 23.1526Z" fill="#F2F2F2" stroke="#F2F2F2"/>
<path d="M374.314 23.1527C374.314 23.6833 373.928 24.0405 373.538 24.0405C373.148 24.0405 372.762 23.6833 372.762 23.1527C372.762 22.6221 373.148 22.2649 373.538 22.2649C373.928 22.2649 374.314 22.6221 374.314 23.1527Z" fill="#F2F2F2" stroke="#F2F2F2"/>
<path d="M383.229 23.1527C383.229 23.6833 382.842 24.0405 382.452 24.0405C382.062 24.0405 381.676 23.6833 381.676 23.1527C381.676 22.6221 382.062 22.2649 382.452 22.2649C382.842 22.2649 383.229 22.6221 383.229 23.1527Z" fill="#F2F2F2" stroke="#F2F2F2"/>
<path d="M365.406 32.8468C365.406 33.3774 365.02 33.7346 364.63 33.7346C364.24 33.7346 363.854 33.3774 363.854 32.8468C363.854 32.3162 364.24 31.959 364.63 31.959C365.02 31.959 365.406 32.3162 365.406 32.8468Z" fill="#F2F2F2" stroke="#F2F2F2"/>
<path d="M374.314 32.8468C374.314 33.3774 373.928 33.7346 373.538 33.7346C373.148 33.7346 372.762 33.3774 372.762 32.8468C372.762 32.3162 373.148 31.959 373.538 31.959C373.928 31.959 374.314 32.3162 374.314 32.8468Z" fill="#F2F2F2" stroke="#F2F2F2"/>
<path d="M383.229 32.8468C383.229 33.3774 382.842 33.7346 382.452 33.7346C382.062 33.7346 381.676 33.3774 381.676 32.8468C381.676 32.3162 382.062 31.959 382.452 31.959C382.842 31.959 383.229 32.3162 383.229 32.8468Z" fill="#F2F2F2" stroke="#F2F2F2"/>
<path d="M132.095 4.81293C132.095 5.34354 131.709 5.70071 131.319 5.70071C130.929 5.70071 130.543 5.34351 130.543 4.81293C130.543 4.28235 130.929 3.92515 131.319 3.92515C131.709 3.92515 132.095 4.28233 132.095 4.81293Z" fill="#F2F2F2" stroke="#F2F2F2"/>
<path d="M141.003 4.81268C141.003 5.34327 140.617 5.70046 140.227 5.70046C139.837 5.70046 139.451 5.34327 139.451 4.81268C139.451 4.28209 139.837 3.9249 140.227 3.9249C140.617 3.9249 141.003 4.28209 141.003 4.81268Z" fill="#F2F2F2" stroke="#F2F2F2"/>
<path d="M149.918 4.81268C149.918 5.34329 149.532 5.70046 149.142 5.70046C148.751 5.70046 148.365 5.34327 148.365 4.81268C148.365 4.28209 148.751 3.9249 149.142 3.9249C149.532 3.9249 149.918 4.28206 149.918 4.81268Z" fill="#F2F2F2" stroke="#F2F2F2"/>
<path d="M132.095 14.5065C132.095 15.0371 131.709 15.3943 131.319 15.3943C130.929 15.3943 130.543 15.0371 130.543 14.5065C130.543 13.9759 130.929 13.6187 131.319 13.6187C131.709 13.6187 132.095 13.9759 132.095 14.5065Z" fill="#F2F2F2" stroke="#F2F2F2"/>
<path d="M141.003 14.5065C141.003 15.0371 140.617 15.3943 140.227 15.3943C139.837 15.3943 139.451 15.0371 139.451 14.5065C139.451 13.9759 139.837 13.6187 140.227 13.6187C140.617 13.6187 141.003 13.9759 141.003 14.5065Z" fill="#F2F2F2" stroke="#F2F2F2"/>
<path d="M149.918 14.5065C149.918 15.0371 149.532 15.3943 149.142 15.3943C148.751 15.3943 148.365 15.0371 148.365 14.5065C148.365 13.9759 148.751 13.6187 149.142 13.6187C149.532 13.6187 149.918 13.9759 149.918 14.5065Z" fill="#F2F2F2" stroke="#F2F2F2"/>
<path d="M445.5 154.143C445.5 154.674 445.114 155.031 444.724 155.031C444.334 155.031 443.947 154.674 443.947 154.143C443.947 153.613 444.334 153.255 444.724 153.255C445.114 153.255 445.5 153.613 445.5 154.143Z" fill="#F2F2F2" stroke="#F2F2F2"/>
<path d="M445.5 163.837C445.5 164.368 445.114 164.725 444.724 164.725C444.334 164.725 443.948 164.368 443.948 163.837C443.948 163.307 444.334 162.95 444.724 162.95C445.114 162.95 445.5 163.307 445.5 163.837Z" fill="#F2F2F2" stroke="#F2F2F2"/>
<path d="M445.5 173.524C445.5 174.054 445.114 174.412 444.724 174.412C444.334 174.412 443.948 174.054 443.948 173.524C443.948 172.993 444.334 172.636 444.724 172.636C445.114 172.636 445.5 172.993 445.5 173.524Z" fill="#F2F2F2" stroke="#F2F2F2"/>
<path d="M445.5 183.218C445.5 183.749 445.114 184.106 444.724 184.106C444.334 184.106 443.948 183.749 443.948 183.218C443.948 182.687 444.334 182.33 444.724 182.33C445.114 182.33 445.5 182.687 445.5 183.218Z" fill="#F2F2F2" stroke="#F2F2F2"/>
<path d="M445.5 192.904C445.5 193.435 445.114 193.792 444.724 193.792C444.334 193.792 443.948 193.435 443.948 192.904C443.948 192.374 444.334 192.017 444.724 192.017C445.114 192.017 445.5 192.374 445.5 192.904Z" fill="#F2F2F2" stroke="#F2F2F2"/>
<path d="M445.5 202.599C445.5 203.129 445.114 203.486 444.724 203.486C444.334 203.486 443.948 203.129 443.948 202.599C443.948 202.068 444.334 201.711 444.724 201.711C445.114 201.711 445.5 202.068 445.5 202.599Z" fill="#F2F2F2" stroke="#F2F2F2"/>
<path d="M445.5 212.285C445.5 212.816 445.114 213.173 444.724 213.173C444.334 213.173 443.948 212.816 443.948 212.285C443.948 211.754 444.334 211.397 444.724 211.397C445.114 211.397 445.5 211.754 445.5 212.285Z" fill="#F2F2F2" stroke="#F2F2F2"/>
<path d="M436.585 154.143C436.585 154.674 436.199 155.031 435.809 155.031C435.419 155.031 435.033 154.674 435.033 154.143C435.033 153.613 435.419 153.255 435.809 153.255C436.199 153.255 436.585 153.613 436.585 154.143Z" fill="#F2F2F2" stroke="#F2F2F2"/>
<path d="M436.585 163.837C436.585 164.368 436.199 164.725 435.809 164.725C435.419 164.725 435.033 164.368 435.033 163.837C435.033 163.307 435.419 162.95 435.809 162.95C436.199 162.95 436.585 163.307 436.585 163.837Z" fill="#F2F2F2" stroke="#F2F2F2"/>
<path d="M436.585 173.524C436.585 174.055 436.199 174.412 435.809 174.412C435.419 174.412 435.033 174.055 435.033 173.524C435.033 172.993 435.419 172.636 435.809 172.636C436.199 172.636 436.585 172.993 436.585 173.524Z" fill="#F2F2F2" stroke="#F2F2F2"/>
<path d="M436.585 183.218C436.585 183.749 436.199 184.106 435.809 184.106C435.419 184.106 435.033 183.749 435.033 183.218C435.033 182.687 435.419 182.33 435.809 182.33C436.199 182.33 436.585 182.687 436.585 183.218Z" fill="#F2F2F2" stroke="#F2F2F2"/>
<path d="M436.585 192.904C436.585 193.435 436.199 193.792 435.809 193.792C435.419 193.792 435.033 193.435 435.033 192.904C435.033 192.374 435.419 192.017 435.809 192.017C436.199 192.017 436.585 192.374 436.585 192.904Z" fill="#F2F2F2" stroke="#F2F2F2"/>
<path d="M436.585 202.599C436.585 203.129 436.199 203.486 435.809 203.486C435.419 203.486 435.033 203.129 435.033 202.599C435.033 202.068 435.419 201.711 435.809 201.711C436.199 201.711 436.585 202.068 436.585 202.599Z" fill="#F2F2F2" stroke="#F2F2F2"/>
<path d="M436.585 212.285C436.585 212.816 436.199 213.173 435.809 213.173C435.419 213.173 435.033 212.816 435.033 212.285C435.033 211.754 435.419 211.397 435.809 211.397C436.199 211.397 436.585 211.754 436.585 212.285Z" fill="#F2F2F2" stroke="#F2F2F2"/>
<path d="M427.678 154.143C427.678 154.674 427.291 155.031 426.901 155.031C426.511 155.031 426.125 154.674 426.125 154.143C426.125 153.613 426.511 153.255 426.901 153.255C427.291 153.255 427.678 153.613 427.678 154.143Z" fill="#F2F2F2" stroke="#F2F2F2"/>
<path d="M427.678 163.837C427.678 164.368 427.292 164.725 426.902 164.725C426.511 164.725 426.125 164.368 426.125 163.837C426.125 163.307 426.511 162.95 426.902 162.95C427.292 162.95 427.678 163.307 427.678 163.837Z" fill="#F2F2F2" stroke="#F2F2F2"/>
<path d="M427.678 173.524C427.678 174.055 427.292 174.412 426.902 174.412C426.511 174.412 426.125 174.055 426.125 173.524C426.125 172.993 426.511 172.636 426.902 172.636C427.292 172.636 427.678 172.993 427.678 173.524Z" fill="#F2F2F2" stroke="#F2F2F2"/>
<path d="M427.678 183.218C427.678 183.749 427.292 184.106 426.902 184.106C426.511 184.106 426.125 183.749 426.125 183.218C426.125 182.687 426.511 182.33 426.902 182.33C427.292 182.33 427.678 182.687 427.678 183.218Z" fill="#F2F2F2" stroke="#F2F2F2"/>
<path d="M427.678 192.904C427.678 193.435 427.292 193.792 426.902 193.792C426.511 193.792 426.125 193.435 426.125 192.904C426.125 192.374 426.511 192.017 426.902 192.017C427.292 192.017 427.678 192.374 427.678 192.904Z" fill="#F2F2F2" stroke="#F2F2F2"/>
<path d="M427.678 202.599C427.678 203.129 427.292 203.486 426.902 203.486C426.511 203.486 426.125 203.129 426.125 202.599C426.125 202.068 426.511 201.711 426.902 201.711C427.292 201.711 427.678 202.068 427.678 202.599Z" fill="#F2F2F2" stroke="#F2F2F2"/>
<path d="M427.678 212.285C427.678 212.816 427.292 213.173 426.902 213.173C426.511 213.173 426.125 212.816 426.125 212.285C426.125 211.754 426.511 211.397 426.902 211.397C427.292 211.397 427.678 211.754 427.678 212.285Z" fill="#F2F2F2" stroke="#F2F2F2"/>
<path d="M418.763 154.143C418.763 154.674 418.377 155.031 417.987 155.031C417.597 155.031 417.211 154.674 417.211 154.143C417.211 153.612 417.597 153.255 417.987 153.255C418.377 153.255 418.763 153.612 418.763 154.143Z" fill="#F2F2F2" stroke="#F2F2F2"/>
<path d="M418.763 163.837C418.763 164.368 418.377 164.725 417.987 164.725C417.597 164.725 417.211 164.368 417.211 163.837C417.211 163.307 417.597 162.95 417.987 162.95C418.377 162.95 418.763 163.307 418.763 163.837Z" fill="#F2F2F2" stroke="#F2F2F2"/>
<path d="M418.763 173.524C418.763 174.055 418.377 174.412 417.987 174.412C417.597 174.412 417.211 174.055 417.211 173.524C417.211 172.993 417.597 172.636 417.987 172.636C418.377 172.636 418.763 172.993 418.763 173.524Z" fill="#F2F2F2" stroke="#F2F2F2"/>
<path d="M418.763 183.218C418.763 183.749 418.377 184.106 417.987 184.106C417.597 184.106 417.211 183.749 417.211 183.218C417.211 182.687 417.597 182.33 417.987 182.33C418.377 182.33 418.763 182.687 418.763 183.218Z" fill="#F2F2F2" stroke="#F2F2F2"/>
<path d="M418.763 192.904C418.763 193.435 418.377 193.792 417.987 193.792C417.597 193.792 417.211 193.435 417.211 192.904C417.211 192.374 417.597 192.017 417.987 192.017C418.377 192.017 418.763 192.374 418.763 192.904Z" fill="#F2F2F2" stroke="#F2F2F2"/>
<path d="M418.763 202.599C418.763 203.129 418.377 203.486 417.987 203.486C417.597 203.486 417.211 203.129 417.211 202.599C417.211 202.068 417.597 201.711 417.987 201.711C418.377 201.711 418.763 202.068 418.763 202.599Z" fill="#F2F2F2" stroke="#F2F2F2"/>
<path d="M418.763 212.285C418.763 212.816 418.377 213.173 417.987 213.173C417.597 213.173 417.211 212.816 417.211 212.285C417.211 211.754 417.597 211.397 417.987 211.397C418.377 211.397 418.763 211.754 418.763 212.285Z" fill="#F2F2F2" stroke="#F2F2F2"/>
<path d="M227.656 282.553C228.559 277.407 231.363 272.689 235.301 269.676" stroke="#04D361" stroke-width="0.779" stroke-miterlimit="10"/>
<path d="M227.534 284C227.703 279.703 229.231 269.359 232.843 262.884" stroke="#04D361" stroke-width="0.779" stroke-miterlimit="10"/>
<path d="M227.588 283.468C228.213 275.804 228.158 267.336 227.058 259.731" stroke="#04D361" stroke-width="0.779" stroke-miterlimit="10"/>
<path d="M235.995 267.708L235.995 267.708C235.96 267.776 235.924 267.844 235.889 267.912C235.447 268.76 235.003 269.612 234.474 270.428C234.523 270.407 234.573 270.385 234.625 270.363C234.71 270.326 234.8 270.286 234.891 270.246C235.084 270.16 235.285 270.071 235.474 269.995C235.755 269.881 236.055 269.775 236.341 269.729L236.342 269.729C237.609 269.527 238.898 269.583 240.13 269.757L240.13 269.757C241.09 269.893 242.049 270.1 242.986 270.302C243.289 270.368 243.59 270.433 243.888 270.495C245.122 270.751 246.326 270.96 247.536 270.978L247.536 270.978C248.217 270.988 248.933 270.892 249.533 270.641C250.126 270.393 250.581 270.006 250.813 269.436L250.814 269.435C251.203 268.487 250.798 267.233 249.991 266.504L249.989 266.502C249.191 265.776 248.092 265.482 246.933 265.36L246.933 265.36C246.51 265.315 246.089 265.292 245.654 265.268C245.492 265.259 245.327 265.25 245.161 265.24C244.556 265.203 243.929 265.149 243.306 265.02L243.305 265.02C242.933 264.942 242.567 264.838 242.216 264.736C242.16 264.72 242.105 264.703 242.05 264.687C241.754 264.601 241.47 264.518 241.186 264.447C240.514 264.28 239.904 264.201 239.315 264.326L235.995 267.708ZM235.995 267.708L235.996 267.706M235.995 267.708L235.996 267.706M235.996 267.706C236.405 266.913 236.878 266.136 237.437 265.519M235.996 267.706L237.437 265.519M237.437 265.519C237.995 264.902 238.614 264.474 239.315 264.326L237.437 265.519Z" fill="#04D361" stroke="#04D361"/>
<path d="M232.583 263.449C232.936 263.091 233.282 262.678 233.641 262.237C233.7 262.164 233.759 262.091 233.819 262.017C234.366 261.343 234.949 260.625 235.598 260.063C237.363 258.531 239.517 257.334 241.851 257.137C242.768 257.059 243.667 257.138 244.537 257.258C244.931 257.313 245.301 257.372 245.666 257.431C246.141 257.507 246.607 257.582 247.099 257.641C248.786 257.844 250.47 257.774 251.774 256.877C252.404 256.443 252.917 255.73 253.169 254.942C253.42 254.154 253.398 253.342 253.038 252.686L253.037 252.685C252.575 251.836 251.633 251.352 250.633 251.189L232.583 263.449ZM232.583 263.449C232.594 263.401 232.606 263.352 232.619 263.301C232.781 262.654 233.068 261.826 233.399 260.968C233.899 259.67 234.476 258.355 234.828 257.551C234.942 257.293 235.032 257.087 235.089 256.952C236.252 254.212 238.027 251.689 240.497 250.938L240.498 250.938C241.544 250.619 242.638 250.63 243.801 250.743C244.191 250.781 244.598 250.831 245.013 250.883C245.798 250.981 246.612 251.082 247.397 251.107L247.4 251.107C247.777 251.117 248.165 251.11 248.539 251.103C248.72 251.1 248.897 251.097 249.069 251.096C249.611 251.092 250.128 251.107 250.633 251.189L232.583 263.449Z" fill="#04D361" stroke="#04D361"/>
<path d="M228.628 252.371L228.628 252.371C228.844 253.809 228.624 255.289 228.208 256.719C228.177 256.823 228.141 256.954 228.1 257.103C227.974 257.556 227.8 258.182 227.585 258.775C227.443 259.168 227.292 259.518 227.141 259.772C227.065 259.898 226.999 259.984 226.946 260.037C226.922 260.061 226.906 260.072 226.898 260.078C226.861 260.079 226.746 260.066 226.527 259.947C226.302 259.825 226.043 259.634 225.776 259.405C225.246 258.949 224.745 258.401 224.501 258.125C223.762 257.278 223.172 256.28 222.807 255.188L222.807 255.186C222.379 253.922 222.23 252.569 222.082 251.15C222.078 251.118 222.075 251.086 222.072 251.054C221.928 249.684 221.779 248.254 221.342 246.895L221.342 246.894C220.845 245.352 219.998 243.972 219.192 242.658C218.981 242.315 218.773 241.976 218.574 241.64C217.598 239.985 216.778 238.225 216.79 236.382C216.796 235.479 217.065 234.549 217.53 233.813C217.996 233.076 218.631 232.573 219.359 232.433L219.36 232.432C220.324 232.244 221.377 232.682 222.273 233.42L222.274 233.421C223.535 234.455 224.463 235.973 224.861 237.66C225.099 238.68 225.146 239.744 225.192 240.863L225.194 240.911C225.239 241.998 225.286 243.139 225.539 244.249C225.853 245.643 226.475 246.922 227.068 248.138C227.113 248.231 227.158 248.324 227.203 248.417C227.844 249.737 228.423 250.997 228.628 252.371Z" fill="#04D361" stroke="#04D361"/>
<path d="M227.52 282.746C227.058 275.976 225.456 268.327 221.973 262.693" stroke="#04D361" stroke-width="0.779" stroke-miterlimit="10"/>
<path d="M221.009 257.62L221.009 257.622C221.506 259.127 221.813 260.705 222.07 262.299L222.07 262.301C222.084 262.386 222.108 262.497 222.132 262.604C222.14 262.645 222.149 262.685 222.157 262.723C222.189 262.875 222.218 263.029 222.234 263.174C222.25 263.324 222.248 263.438 222.233 263.517C222.231 263.532 222.228 263.544 222.225 263.554C222.222 263.553 222.218 263.553 222.215 263.552C222.144 263.541 222.037 263.502 221.901 263.426C221.633 263.277 221.366 263.05 221.23 262.918C220.986 262.676 220.769 262.394 220.547 262.083C220.47 261.974 220.39 261.857 220.307 261.737C220.163 261.528 220.012 261.31 219.862 261.109L219.861 261.108C217.818 258.38 214.591 257.071 211.485 256.587C209.933 256.345 208.374 256.282 206.834 256.255C206.426 256.248 206.02 256.244 205.615 256.239C204.485 256.226 203.369 256.214 202.253 256.146L202.253 256.146L202.249 256.146C201.552 256.109 200.967 256.027 200.539 255.697C199.976 255.258 199.717 254.328 199.901 253.456C200.082 252.604 200.623 251.848 201.294 251.223L201.294 251.223C202.775 249.84 204.742 249.142 206.732 249.001C208.724 248.859 210.743 249.248 212.727 249.831L212.727 249.831C214.638 250.392 216.485 251.141 217.935 252.466C219.371 253.784 220.359 255.631 221.009 257.62ZM222.213 263.583C222.213 263.583 222.213 263.583 222.214 263.582L222.213 263.583ZM222.255 263.556C222.256 263.555 222.257 263.555 222.257 263.555L222.255 263.556ZM222.617 262.483C222.595 262.382 222.576 262.292 222.564 262.22L222.537 263.962C222.878 263.688 222.721 262.961 222.617 262.483Z" fill="#04D361" stroke="#04D361"/>
<path d="M227.391 283.468C227.119 277.562 224.675 271.803 220.724 267.742" stroke="#04D361" stroke-width="0.779" stroke-miterlimit="10"/>
<path d="M220.815 267.834C220.737 267.657 220.659 267.474 220.588 267.305C220.553 267.222 220.519 267.143 220.488 267.069C220.383 266.824 220.308 266.661 220.262 266.584C219.821 265.854 219.438 265.245 218.873 264.899L218.862 264.891L218.862 264.891C218.773 264.833 218.682 264.78 218.579 264.72C217.228 263.94 215.695 263.429 214.169 262.965C212.666 262.507 211.236 262.098 209.876 262.385L220.815 267.834ZM220.815 267.834C219.022 267.353 217.086 267.373 215.404 267.39L215.369 267.391C215.369 267.391 215.369 267.391 215.369 267.391C212.929 267.414 210.488 267.906 208.208 268.862L208.208 268.862L208.206 268.863C207.899 268.993 207.611 269.123 207.33 269.25C206.93 269.431 206.542 269.607 206.127 269.77C205.447 270.037 204.787 270.231 204.116 270.271C203.764 270.29 203.394 270.234 203.101 270.099C202.816 269.968 202.63 269.777 202.554 269.517C202.431 269.081 202.643 268.553 203.021 268.005L203.021 268.005L203.022 268.003C203.773 266.905 204.742 266.005 205.753 265.068C207.078 263.845 208.357 262.706 209.876 262.385L220.815 267.834Z" fill="#04D361" stroke="#04D361"/>
<path d="M392.929 259.531L392.928 259.531C392.114 260.409 391.109 260.913 390.131 261.33C389.888 261.433 389.649 261.531 389.415 261.626C388.678 261.927 387.982 262.211 387.332 262.614C385.501 263.751 384.164 265.813 383.357 268.05C383.348 268.076 383.338 268.103 383.328 268.129C383.025 268.975 382.59 270.186 382.349 271.373C382.225 271.984 382.156 272.569 382.178 273.08C382.2 273.594 382.312 273.991 382.507 274.267L382.509 274.269C382.94 274.885 383.696 275.029 384.703 274.849C385.696 274.67 386.746 274.203 387.519 273.849L387.52 273.849C387.8 273.722 388.086 273.587 388.376 273.45C388.985 273.162 389.613 272.866 390.236 272.616C391.168 272.243 392.147 271.948 393.169 271.9C395 271.812 396.705 272.53 398.234 273.196L398.259 273.207C399.812 273.884 401.289 274.528 402.85 274.535C404.393 274.542 406.047 273.744 406.754 272.253C407.054 271.615 407.176 270.899 407.31 270.111C407.334 269.967 407.359 269.821 407.385 269.673C407.549 268.752 407.775 267.746 408.444 266.941L408.445 266.941C409.138 266.108 410.053 265.773 410.965 265.634C411.616 265.535 412.318 265.532 412.957 265.528C413.187 265.527 413.408 265.526 413.616 265.521L413.617 265.521C415.375 265.478 417.174 264.964 418.527 263.731L418.528 263.73C419.889 262.497 420.694 260.44 420.26 258.731L420.26 258.731C419.903 257.323 418.821 256.317 417.652 255.292L417.651 255.292C416.853 254.59 416.038 253.903 415.173 253.407C414.314 252.915 413.436 252.63 412.513 252.698C411.841 252.75 411.175 252.986 410.432 253.249L410.388 253.265C409.653 253.525 408.838 253.81 407.986 253.843C406.906 253.885 405.937 253.526 405.062 253.041C404.399 252.673 403.755 252.212 403.15 251.779C402.968 251.648 402.79 251.52 402.615 251.398C401.856 250.867 401.024 250.401 400.191 250.172C399.366 249.946 398.566 249.958 397.825 250.346L392.929 259.531ZM392.929 259.531C393.589 258.816 394.029 257.958 394.37 257.08M392.929 259.531L394.37 257.08M394.37 257.08C394.626 256.421 394.835 255.724 395.035 255.058M394.37 257.08L395.035 255.058M395.035 255.058C395.099 254.844 395.162 254.634 395.225 254.429M395.035 255.058L395.225 254.429M395.225 254.429C395.489 253.576 395.81 252.721 396.237 251.99M395.225 254.429L396.237 251.99M396.237 251.99C396.665 251.26 397.182 250.683 397.824 250.346L396.237 251.99Z" fill="#04D361" stroke="#04D361"/>
<path d="M382.425 274.355C391.462 265.916 402.006 260.327 413.385 257.95" stroke="white" stroke-width="0.7047" stroke-miterlimit="10" stroke-linecap="round" stroke-linejoin="round"/>
<path d="M391.36 261.376C391.57 258.593 391.088 255.691 391.93 253.056C393.431 248.36 398.631 245.909 399.935 241.147C401.496 235.454 396.73 229.644 397.558 223.774C397.905 221.301 399.215 219.123 400.03 216.782C400.845 214.442 401.055 211.511 399.473 209.687C397.816 207.782 394.809 208.004 392.84 209.525C390.871 211.046 389.737 213.512 388.814 215.941C387.897 218.37 387.089 220.91 385.534 222.925C382.703 226.595 377.611 228.204 376.063 232.686C374.488 237.248 377.468 242.077 377.998 246.913C378.399 250.575 377.373 254.222 376.457 257.781C375.547 261.339 374.739 265.105 375.574 268.678C376.688 273.44 380.632 276.475 384.414 273.418C388.155 270.413 390.973 266.611 391.36 261.376Z" fill="#04D361"/>
<path d="M382.017 274.585C380.517 257.589 383.952 239.154 391.977 224.476" stroke="white" stroke-width="1.1364" stroke-miterlimit="10" stroke-linecap="round" stroke-linejoin="round"/>
<path d="M372.023 268.177C370.374 265.644 369.43 262.477 367.189 260.55C364.623 258.335 361.065 258.313 357.806 258.025C354.541 257.737 350.861 256.733 349.347 253.573C348.518 251.838 348.518 249.778 347.941 247.932C347.303 245.902 345.999 244.218 345.083 242.321C344.173 240.423 343.691 238.009 344.75 236.2C345.823 234.369 348.172 233.83 350.093 234.421C352.015 235.012 353.59 236.481 355.029 237.987C356.469 239.493 357.874 241.103 359.646 242.092C362.586 243.724 366.076 243.421 369.375 243.266C372.675 243.118 376.274 243.266 378.826 245.555C380.924 247.437 381.882 250.398 382.737 253.211C383.973 257.235 385.236 261.244 386.437 265.282C387.177 267.763 388.59 271.565 386.213 273.515C382.024 276.948 374.44 271.875 372.023 268.177Z" fill="#04D361"/>
<path d="M384.889 273.661C379.648 260.431 368.554 249.164 355.274 244.195" stroke="white" stroke-width="0.8174" stroke-miterlimit="10" stroke-linecap="round" stroke-linejoin="round"/>
<path d="M82.9148 273.053C84.4152 270.624 85.2843 267.509 87.3007 265.729C89.6159 263.699 92.8002 263.965 95.7333 263.928C98.6595 263.898 101.966 263.182 103.351 260.111C104.111 258.427 104.118 256.345 104.655 254.522C105.238 252.521 106.42 250.926 107.255 249.08C108.083 247.235 108.531 244.835 107.601 242.923C106.651 240.988 104.553 240.258 102.828 240.701C101.104 241.143 99.6779 242.502 98.3811 243.905C97.0844 245.308 95.8147 246.821 94.2124 247.678C91.5645 249.095 88.4414 248.504 85.4812 248.084C82.521 247.67 79.296 247.537 76.9943 249.641C75.1001 251.376 74.2242 254.293 73.4299 257.061C72.296 261.026 71.135 264.976 70.0284 268.956C69.3494 271.407 68.0526 275.128 70.1709 277.291C73.8848 281.116 80.7218 276.597 82.9148 273.053Z" fill="#04D361"/>
<path d="M71.3454 277.572C76.1387 264.622 86.16 254.131 98.0958 250.166" stroke="white" stroke-width="0.7781" stroke-miterlimit="10" stroke-linecap="round" stroke-linejoin="round"/>
<path d="M64.7733 266.254C64.6103 263.692 64.9905 261.026 64.3184 258.597C63.1167 254.278 58.9479 252.026 57.9024 247.648C56.6531 242.414 60.4688 237.068 59.8102 231.664C59.5318 229.39 58.4795 227.389 57.8277 225.233C57.1759 223.077 57.0061 220.382 58.2758 218.706C59.6065 216.949 62.01 217.156 63.5919 218.559C65.1671 219.962 66.0769 222.228 66.8169 224.458C67.5502 226.688 68.202 229.028 69.4444 230.881C71.7121 234.255 75.7926 235.732 77.0283 239.859C78.2911 244.06 75.9012 248.497 75.4803 252.949C75.1612 256.323 75.9827 259.675 76.7159 262.946C77.4492 266.217 78.0942 269.679 77.422 272.972C76.5326 277.35 73.3687 280.141 70.3406 277.336C67.3465 274.567 65.0856 271.067 64.7733 266.254Z" fill="#04D361"/>
<path d="M72.2552 278.398C73.4569 262.768 70.7004 245.809 64.2776 232.306" stroke="white" stroke-width="0.9754" stroke-miterlimit="10" stroke-linecap="round" stroke-linejoin="round"/>
<path d="M66.5843 261.81L66.5836 261.81C65.783 261.206 64.9263 260.759 64.032 260.292C63.7458 260.143 63.4557 259.992 63.1624 259.833C61.9743 259.188 60.779 258.435 59.8057 257.211C58.4426 255.503 57.8097 253.224 57.2246 251.117C57.1406 250.815 57.0575 250.516 56.9735 250.223L56.9731 250.221C56.6376 249.039 56.2258 247.836 55.6815 246.789C55.1359 245.74 54.475 244.884 53.659 244.355C51.7985 243.155 49.6898 244.024 47.8421 245.365L47.8411 245.366C47.6317 245.518 47.4179 245.676 47.2001 245.838C46.4808 246.371 45.7183 246.937 44.9298 247.376C43.8878 247.956 42.7332 248.357 41.4431 248.212L66.5843 261.81ZM66.5843 261.81C68.8663 263.525 70.547 266.473 71.5766 269.6C71.59 269.641 71.6037 269.682 71.6175 269.725C71.9992 270.887 72.5502 272.566 72.8685 274.201C73.0334 275.048 73.1318 275.865 73.1165 276.58C73.1009 277.302 72.9699 277.868 72.7228 278.256L72.7218 278.258C72.4458 278.695 72.082 278.916 71.6505 279.004C71.1997 279.096 70.6553 279.045 70.0502 278.882C68.8358 278.556 67.546 277.83 66.6051 277.287L66.6047 277.287C66.2715 277.095 65.932 276.893 65.5886 276.689C64.8421 276.246 64.0766 275.791 63.3137 275.399C62.1905 274.822 61.0147 274.347 59.7896 274.196L59.7896 274.196C57.5952 273.927 55.556 274.747 53.7279 275.525L53.6915 275.54C51.8404 276.327 50.0772 277.078 48.1868 276.948C46.3155 276.819 44.2288 275.595 43.2966 273.412C42.9068 272.493 42.7375 271.476 42.5582 270.4C42.5259 270.206 42.4934 270.011 42.4592 269.814C42.2411 268.557 41.9547 267.238 41.1713 266.153C40.3624 265.029 39.2954 264.508 38.1957 264.243C37.409 264.054 36.5637 263.99 35.7901 263.931C35.5168 263.911 35.2525 263.891 35.0029 263.866L35.0019 263.866C32.8783 263.661 30.6649 262.809 28.9644 260.988L28.9638 260.987C27.2505 259.159 26.1898 256.227 26.6978 253.86C27.1157 251.927 28.4292 250.635 29.8007 249.367L29.8012 249.366C30.7498 248.486 31.7211 247.623 32.7566 247.024C33.7843 246.43 34.8394 246.117 35.9642 246.289L35.9651 246.29M66.5843 261.81L35.9651 246.29M35.9651 246.29C36.79 246.415 37.6121 246.796 38.5166 247.215M35.9651 246.29L38.5166 247.215M38.5166 247.215L38.5618 247.236M38.5166 247.215L38.5618 247.236M38.5618 247.236C39.4524 247.649 40.4288 248.098 41.443 248.212L38.5618 247.236Z" fill="#04D361" stroke="#04D361"/>
<path d="M72.744 278.222C61.6704 266.07 48.8315 257.638 35.0625 253.474" stroke="white" stroke-width="0.8986" stroke-miterlimit="10" stroke-linecap="round" stroke-linejoin="round"/>
<path d="M341.797 211.814H110.41C106.343 211.814 102.967 208.182 102.967 203.607V48.7307C102.967 44.1551 106.343 40.5235 110.41 40.5235H341.803C345.871 40.5235 349.247 44.1551 349.247 48.7307V203.606C349.241 208.182 345.864 211.814 341.797 211.814Z" fill="#04D361" stroke="#04D361"/>
<path d="M341.462 204.977H110.743C107.165 204.977 104.259 201.818 104.259 197.927V48.7657C104.259 44.8748 107.165 41.7148 110.743 41.7148H341.462C345.04 41.7148 347.946 44.8748 347.946 48.7657V197.927C347.946 201.825 345.04 204.977 341.462 204.977Z" fill="white"/>
<path d="M265.582 55.6682V160.907C265.582 164.082 263.22 166.651 260.3 166.651H114.585C113.274 166.651 112.073 166.134 111.149 165.27C110.022 164.215 109.303 162.657 109.303 160.907V55.6682C109.303 52.4935 111.672 49.9242 114.585 49.9242H260.3C261.611 49.9242 262.819 50.441 263.736 51.3048C264.869 52.3606 265.582 53.9184 265.582 55.6682Z" fill="#E6E6F0"/>
<path d="M337.665 94.9091H277.347C274.427 94.9091 272.065 92.3398 272.065 89.1651V55.6679C272.065 52.4932 274.427 49.9239 277.347 49.9239H337.665C340.584 49.9239 342.947 52.4932 342.947 55.6679V89.1651C342.947 92.3398 340.577 94.9091 337.665 94.9091Z" fill="#E6E6F0"/>
<path d="M337.665 147.865H277.347C274.427 147.865 272.065 145.296 272.065 142.121V108.624C272.065 105.449 274.427 102.88 277.347 102.88H337.665C340.584 102.88 342.947 105.449 342.947 108.624V142.121C342.947 145.296 340.577 147.865 337.665 147.865Z" fill="#E6E6F0"/>
<path d="M337.665 198.041H277.347C274.427 198.041 272.065 195.472 272.065 192.297V161.99C272.065 158.815 274.427 156.246 277.347 156.246H337.665C340.584 156.246 342.947 158.815 342.947 161.99V192.297C342.947 195.472 340.577 198.041 337.665 198.041Z" fill="#E6E6F0"/>
<path d="M188.992 177.946H111.225C110.166 177.946 109.31 177.016 109.31 175.864C109.31 174.713 110.166 173.782 111.225 173.782H188.992C190.051 173.782 190.906 174.713 190.906 175.864C190.906 177.009 190.051 177.946 188.992 177.946Z" fill="#E6E6F0"/>
<path d="M193.48 197.482H111.302C110.183 197.482 109.279 196.579 109.279 195.462V187.373C109.279 186.256 110.183 185.353 111.302 185.353H193.48C194.599 185.353 195.503 186.256 195.503 187.373V195.462C195.503 196.579 194.599 197.482 193.48 197.482Z" fill="#E6E6F0"/>
<path d="M246.566 177.946H263.669C264.728 177.946 265.583 177.016 265.583 175.864C265.583 174.713 264.728 173.782 263.669 173.782H246.566C245.507 173.782 244.651 174.713 244.651 175.864C244.651 177.009 245.507 177.946 246.566 177.946Z" fill="#E6E6F0"/>
<path d="M217.555 177.946H234.657C235.716 177.946 236.572 177.016 236.572 175.864C236.572 174.713 235.716 173.782 234.657 173.782H217.555C216.495 173.782 215.64 174.713 215.64 175.864C215.633 177.009 216.495 177.946 217.555 177.946Z" fill="#E6E6F0"/>
<path d="M229.749 197.572H263.669C264.728 197.572 265.583 196.641 265.583 195.489V187.154C265.583 186.002 264.728 185.072 263.669 185.072H229.749C228.689 185.072 227.834 186.002 227.834 187.154V195.489C227.834 196.641 228.689 197.572 229.749 197.572Z" fill="#E6E6F0"/>
<g opacity="0.24">
<path d="M307.287 84.3964C313.193 84.3964 317.981 79.1902 317.981 72.768C317.981 66.3458 313.193 61.1396 307.287 61.1396C301.382 61.1396 296.594 66.3458 296.594 72.768C296.594 79.1902 301.382 84.3964 307.287 84.3964Z" fill="#E6E6F0" stroke="#6842C2" stroke-width="2" stroke-miterlimit="10"/>
<path d="M311.669 71.6211L305.565 67.7893C304.893 67.3684 304.058 67.8926 304.058 68.7343V76.398C304.058 77.2397 304.893 77.7639 305.565 77.343L311.669 73.5112C312.341 73.0904 312.341 72.042 311.669 71.6211Z" fill="#E6E6F0" stroke="#6842C2" stroke-width="2" stroke-miterlimit="10"/>
</g>
<g opacity="0.24">
<path d="M307.287 136.649C313.193 136.649 317.981 131.442 317.981 125.02C317.981 118.598 313.193 113.392 307.287 113.392C301.382 113.392 296.594 118.598 296.594 125.02C296.594 131.442 301.382 136.649 307.287 136.649Z" fill="#E6E6F0" stroke="#6842C2" stroke-width="2" stroke-miterlimit="10"/>
<path d="M311.669 123.873L305.565 120.041C304.893 119.621 304.058 120.145 304.058 120.986V128.65C304.058 129.492 304.893 130.016 305.565 129.595L311.669 125.763C312.341 125.343 312.341 124.294 311.669 123.873Z" fill="#E6E6F0" stroke="#6842C2" stroke-width="2" stroke-miterlimit="10"/>
</g>
<g opacity="0.24">
<path d="M307.287 188.397C313.193 188.397 317.981 183.19 317.981 176.768C317.981 170.346 313.193 165.14 307.287 165.14C301.382 165.14 296.594 170.346 296.594 176.768C296.594 183.19 301.382 188.397 307.287 188.397Z" fill="#E6E6F0" stroke="#6842C2" stroke-width="2" stroke-miterlimit="10"/>
<path d="M311.669 175.62L305.565 171.789C304.893 171.368 304.058 171.892 304.058 172.734V180.397C304.058 181.239 304.893 181.763 305.565 181.342L311.669 177.511C312.341 177.09 312.341 176.041 311.669 175.62Z" fill="#E6E6F0" stroke="#6842C2" stroke-width="2" stroke-miterlimit="10"/>
</g>
<path d="M263.736 51.3048L111.149 165.27C110.022 164.215 109.303 162.657 109.303 160.907V55.6682C109.303 52.4935 111.672 49.9242 114.585 49.9242H260.3C261.611 49.9242 262.819 50.441 263.736 51.3048Z" fill="#F2F2FA"/>
<mask id="mask0" mask-type="alpha" maskUnits="userSpaceOnUse" x="109" y="26" width="157" height="141">
<path d="M265.774 33.1963V159.954C265.774 163.778 263.415 166.873 260.501 166.873H115.045C113.737 166.873 112.538 166.251 111.616 165.21C110.491 163.938 109.773 162.062 109.773 159.954V33.1963C109.773 29.3724 112.138 26.2777 115.045 26.2777H260.501C261.809 26.2777 263.016 26.9002 263.93 27.9407C265.062 29.2124 265.774 31.0887 265.774 33.1963Z" fill="#A3D1DE"/>
</mask>
<g mask="url(#mask0)">
<path d="M253.485 115.79C253.485 115.79 262.195 108.311 262.426 106.17C262.861 102.138 264.192 98.9785 272.162 96.3058C272.162 96.3058 272.78 97.5905 271.673 98.9859C270.465 100.499 269.508 101.031 269.508 101.031C269.508 101.031 271.619 101.91 274.763 99.2369C277.906 96.5716 279.23 94.2533 280.554 94.8218C280.554 94.8218 282.116 93.2861 282.856 93.5298C282.856 93.5298 283.399 93.707 283.297 94.3419C284.526 94.1352 284.275 97.9892 282.089 101.12C278.945 105.623 275.021 109.499 271.809 110.777C269.399 111.737 259.439 122.759 259.439 122.759L253.485 115.79Z" fill="#FFCAD0"/>
<path d="M226.585 153.945C222.783 155.34 201.688 120.064 201.688 120.064C193.534 109.861 200.853 76.2526 208.233 88.0361C208.233 88.0361 227.427 125.793 229.497 128.835C232.071 132.615 240.632 148.784 226.585 153.945Z" fill="#04D361"/>
<path d="M202.815 188.964H147.196C147.196 188.964 142.925 186.919 146.639 178C148.031 174.67 147.426 166.091 147.196 154.315C146.727 131.029 140.372 92.3784 148.214 87.9485C152.912 85.2832 162.893 81.7762 170.137 79.3767C170.572 79.2438 170.993 79.1035 171.407 78.9706C175.637 77.5974 178.658 76.6893 178.658 76.6893C178.658 76.6893 182.161 77.243 189.277 79.5317C189.664 79.6573 190.064 79.7902 190.478 79.923C192.332 80.5358 194.396 81.252 196.691 82.1011C209.129 86.7007 207.73 85.0617 209.38 101.954C210.697 115.443 202.815 188.964 202.815 188.964Z" fill="#04D361"/>
<path d="M190.478 79.9157C190.315 82.7803 189.134 85.3127 187.335 87.1659C185.508 89.0633 183.03 90.2151 180.328 90.2151C174.754 90.2151 170.246 85.3644 170.13 79.3767C170.565 79.2438 170.986 79.1035 171.4 78.9706C175.63 77.5974 178.651 76.6893 178.651 76.6893C178.651 76.6893 182.154 77.243 189.27 79.5317C189.657 79.6499 190.064 79.7828 190.478 79.9157Z" fill="#F2F2FA"/>
<path d="M189.256 55.7364L188.38 74.1351L188.129 79.3845C188.027 81.6142 187.124 83.6003 185.726 85.0326C184.341 86.4649 182.467 87.3361 180.416 87.3361C176.078 87.3361 172.581 83.4452 172.697 78.7348L172.914 69.3656L173.281 53.802L189.256 55.7364Z" fill="#FBD5D9"/>
<path d="M189.256 59.4124L188.38 76.7406C180.885 77.0654 175.419 73.7578 172.914 69.3427L173.281 57.4928L189.256 59.4124Z" fill="#FFA4AD"/>
<path d="M168.304 37.7213C168.304 37.7213 161.121 36.7467 161.942 46.5367C162.58 54.1266 172.065 64.2562 172.065 64.2562C172.065 64.2562 178.054 41.3833 168.304 37.7213Z" fill="#8F4A3F"/>
<path d="M197.641 44.7713C197.152 45.9822 196.399 47.0379 195.781 48.1749C195.17 49.3119 194.681 50.6114 194.817 51.9256C194.695 49.7918 193.398 47.9978 192.278 46.248C191.157 44.4908 190.139 42.3644 190.675 40.3119C191.185 38.3406 194.464 35.2324 196.46 36.5096C198.68 37.9272 198.51 42.6229 197.641 44.7713Z" fill="#0E1235"/>
<path d="M195.204 45.1628C195.204 45.1628 195.761 51.1579 194.987 57.7953C194.09 65.4664 194.41 74.4738 184.015 75.0792C172.921 75.7215 169.248 62.2178 169.248 62.2178C169.248 62.2178 163.355 61.0218 162.954 56.6952C162.553 52.3614 166.668 52.1177 168.012 53.3359C168.012 53.3359 169.533 37.1891 183.254 37.1891C195.36 37.1743 195.204 45.1628 195.204 45.1628Z" fill="#FBD5D9"/>
<path d="M182.168 57.4847C182.168 58.1417 181.679 58.6806 181.068 58.6806C180.457 58.6806 179.968 58.1491 179.968 57.4847C179.968 56.8277 180.457 56.2888 181.068 56.2888C181.679 56.2888 182.168 56.8277 182.168 57.4847Z" fill="#9A5449"/>
<path d="M192.107 57.4847C192.107 58.1417 191.619 58.6806 191.008 58.6806C190.397 58.6806 189.908 58.1491 189.908 57.4847C189.908 56.8277 190.397 56.2888 191.008 56.2888C191.619 56.2888 192.107 56.8277 192.107 57.4847Z" fill="#9A5449"/>
<path d="M177.069 53.329C177.069 53.329 178.699 50.4126 182.168 51.461" stroke="#561E15" stroke-width="1.0274" stroke-miterlimit="10" stroke-linecap="round" stroke-linejoin="round"/>
<path d="M188.15 51.4164C188.15 51.4164 190.655 48.9283 193.119 51.6527" stroke="#561E15" stroke-width="1.0274" stroke-miterlimit="10" stroke-linecap="round" stroke-linejoin="round"/>
<path d="M185.95 54.3769C185.95 54.3769 187.138 57.6772 188.15 59.7297C189.161 61.7822 186.174 62.6977 186.174 62.6977" stroke="#D66D78" stroke-width="0.7706" stroke-miterlimit="10" stroke-linecap="round" stroke-linejoin="round"/>
<path d="M181.971 66.389C181.971 66.389 184.422 68.9731 187.572 67.3931" stroke="#D66D78" stroke-width="0.7706" stroke-miterlimit="10" stroke-linecap="round" stroke-linejoin="round"/>
<path d="M167.815 58.0834C167.815 58.0834 167.781 54.3703 165.228 55.3816" stroke="#D66D78" stroke-width="0.7706" stroke-miterlimit="10" stroke-linecap="round" stroke-linejoin="round"/>
<path d="M171.183 40.8219C171.183 40.8219 177.422 47.7325 174.007 50.3757C170.205 53.3215 169.614 57.4856 169.614 57.4856C169.614 57.4856 169.696 56.0164 168.005 53.3289C166.315 50.6341 162.628 41.0803 171.183 40.8219Z" fill="#8F4A3F"/>
<path d="M226.585 153.947C231.12 157.158 265.59 117.12 265.59 117.12L259.473 108.415C259.473 108.415 233.266 126.297 229.497 128.837C224.066 132.491 211.329 143.152 226.585 153.947Z" fill="#04D361"/>
<path d="M208.253 130.667C208.253 130.667 209.794 112.364 209.53 106.554C209.53 106.554 211.723 121.918 211.777 136.116L208.253 130.667Z" fill="#03A14A"/>
<path d="M150.006 124.428C150.006 124.428 158.079 86.8405 149.443 87.2835C149.443 87.2835 146.625 87.6527 141.112 96.9554C137.256 103.46 133.033 114.734 125.333 133.074C121.694 141.741 117.145 153.473 125.591 154.101C130.161 154.44 134.954 151.723 137.778 146.016C142.952 135.562 150.006 124.428 150.006 124.428Z" fill="#04D361"/>
<path d="M157.23 171.215L201.165 159.955C201.158 159.955 187.342 171.215 157.23 171.215Z" fill="#03A14A"/>
<path d="M145.43 131.981C145.43 131.981 152.518 118.329 156.287 111.67L147.44 163.891C147.44 163.891 146.578 142.561 145.43 131.981Z" fill="#03A14A"/>
<path d="M173.681 149.766L147.406 163.107L148.757 149.39L173.681 149.766Z" fill="#03A14A"/>
<path d="M178.112 147.495L178.112 147.495L182.451 121.735L182.451 121.734C182.673 120.396 183.73 119.479 184.911 119.479H194.131C195.648 119.479 196.888 120.998 196.591 122.75L196.591 122.75L192.253 148.509C192.253 148.509 192.253 148.509 192.253 148.509C192.024 149.849 190.965 150.766 189.793 150.766H180.572C179.056 150.766 177.816 149.247 178.112 147.495Z" fill="#04D361" stroke="#04D361"/>
<path d="M190.933 152.358H181.713C179.839 152.358 178.42 150.512 178.76 148.504L183.098 122.744C183.356 121.194 184.598 120.072 186.051 120.072H195.271C197.145 120.072 198.564 121.917 198.225 123.926L193.886 149.685C193.628 151.236 192.386 152.358 190.933 152.358Z" fill="white"/>
<path d="M184.208 129.21L184.209 129.206L185.268 122.916L185.268 122.916L185.269 122.912C185.275 122.876 185.291 122.852 185.306 122.839C185.32 122.826 185.331 122.823 185.339 122.823H186.989C186.996 122.823 187.013 122.826 187.033 122.852C187.054 122.88 187.069 122.923 187.06 122.975L187.059 122.979L186 129.269L186 129.269L185.999 129.273C185.993 129.31 185.977 129.334 185.963 129.347C185.949 129.359 185.937 129.362 185.929 129.362H184.28C184.272 129.362 184.255 129.359 184.235 129.333C184.214 129.306 184.199 129.262 184.208 129.21Z" fill="#04D361" stroke="#04D361"/>
<path d="M165.018 138.427C165.018 138.427 169.512 138.264 172.955 137.12C174.435 136.625 177.368 136.049 178.339 134.521C179.316 132.978 179.228 129.648 180.206 129.508C180.959 129.397 182.467 132.003 182.08 133.76C181.699 135.481 181.516 136.433 180.939 137.201C180.749 137.459 187.084 137.947 191.096 136.987C193.846 136.33 193.031 139.29 191.164 140.221C191.164 140.221 191.829 142.029 189.881 142.642C189.881 142.642 189.901 145.057 188.041 145.167C187.83 145.728 187.471 146.924 185.861 147.353C183.519 147.98 179.982 148.217 176.417 147.869C174.605 147.692 166.24 149.287 166.24 149.287L165.018 138.427Z" fill="#FFCAD0"/>
<path d="M125.32 154.24C131.736 155.459 169.981 150.763 169.981 150.763L169.03 136.211C169.03 136.211 137.867 137.791 133.712 137.385C119.97 136.063 117.336 152.727 125.32 154.24Z" fill="#04D361"/>
<path d="M172.697 29.8509C173.355 29.1348 174.089 28.3743 175.012 28.2636C175.935 28.1528 176.988 29.0905 176.682 30.0503C179.826 28.5663 183.112 27.4588 186.473 26.75C187.314 26.5728 188.224 26.4252 189.005 26.8312C189.779 27.2373 190.261 28.4112 189.731 29.1421C191.361 29.8066 193.167 29.371 194.898 29.1495C196.63 28.928 198.605 29.024 199.78 30.4194C200.873 31.7115 200.893 33.6606 200.859 35.4178C200.805 37.8247 200.751 40.2463 200.248 42.5942C199.501 46.0642 197.763 49.2685 195.326 51.6532C196.052 48.951 194.756 45.9535 192.712 44.2185C190.675 42.476 188.048 41.7894 185.474 41.4719C182.392 41.088 179.255 41.1766 176.187 41.723C173.871 42.1364 170.565 43.9305 168.263 42.7935C163.164 40.2833 170.728 31.992 172.697 29.8509Z" fill="#8F4A3F"/>
</g>
<path d="M251.516 60.9624H219.592C217.147 60.9624 215.165 58.8066 215.165 56.1486V41.5892C215.165 38.9312 217.147 36.7754 219.592 36.7754H251.516C253.96 36.7754 255.942 38.9312 255.942 41.5892V56.1486C255.942 58.8066 253.96 60.9624 251.516 60.9624Z" fill="#04D361"/>
<path d="M221.995 59.3966V66.0266L228.526 58.9241L221.995 59.3966Z" fill="#04D361"/>
<path d="M224.541 51.6371C225.947 51.6371 227.087 50.3976 227.087 48.8685C227.087 47.3394 225.947 46.0998 224.541 46.0998C223.135 46.0998 221.995 47.3394 221.995 48.8685C221.995 50.3976 223.135 51.6371 224.541 51.6371Z" fill="#E6E6F0"/>
<path d="M235.553 51.6373C236.96 51.6373 238.1 50.3978 238.1 48.8687C238.1 47.3396 236.96 46.1 235.553 46.1C234.147 46.1 233.007 47.3396 233.007 48.8687C233.007 50.3978 234.147 51.6373 235.553 51.6373Z" fill="#E6E6F0"/>
<path d="M246.566 51.6373C247.972 51.6373 249.112 50.3978 249.112 48.8687C249.112 47.3396 247.972 46.1 246.566 46.1C245.16 46.1 244.02 47.3396 244.02 48.8687C244.02 50.3978 245.16 51.6373 246.566 51.6373Z" fill="#E6E6F0"/>
<path d="M339.33 258.029L337.884 277.159H345.386L349.284 258.029H339.33Z" fill="#FEC9CF"/>
<path d="M346.201 273.157C346.201 273.157 349.46 278.879 347.016 279.898C344.572 280.917 328.481 281.006 324.509 280.363C320.537 279.713 333.369 273.8 336.302 272.869C339.242 271.939 340.186 276.79 346.201 273.157Z" fill="#56CCF2"/>
<path d="M378.777 258.03L380.216 277.159H372.714L368.824 258.03H378.777Z" fill="#FEC9CF"/>
<path d="M371.899 273.158C371.899 273.158 368.64 278.88 371.085 279.899C373.529 280.918 389.62 281.006 393.592 280.364C397.564 279.714 384.731 273.8 381.798 272.87C378.865 271.94 377.915 276.79 371.899 273.158Z" fill="#56CCF2"/>
<path d="M337.823 153.433L334.422 268.13H350.261L353.676 191.737L367.249 270.322L384.501 267.199C384.501 267.199 368.926 181.474 366.278 153.441H337.823V153.433Z" fill="#D8D8E3"/>
<path d="M352.976 194.692L352.674 187.753L353.174 191.744L352.976 194.692Z" fill="#194248" stroke="#C9C9D4"/>
<path d="M361.185 153.433L379.517 267.842" stroke="#C9C9D4" stroke-miterlimit="10" stroke-linecap="round" stroke-linejoin="round"/>
<path d="M357.37 68.8894C360.751 68.8968 364.343 70.8238 365.483 74.2865C366.366 76.9518 365.701 80.097 366.936 82.5925C367.846 84.4382 369.666 85.6269 370.487 87.517C372.185 91.4448 368.878 96.1109 369.93 100.29C370.901 104.159 375.308 106.373 375.674 110.368C375.912 112.915 374.262 115.359 372.137 116.466C370.019 117.581 367.534 117.574 365.212 117.153C359.515 116.112 354.152 112.716 348.381 113.04C346.004 113.173 343.519 113.926 341.32 112.93C339.751 112.221 338.617 110.722 337.619 109.231C336.472 107.518 335.372 105.569 335.481 103.457C335.637 100.356 338.224 98.1856 339.772 95.5793C341.354 92.914 342.019 89.5843 341.578 86.4464C339.48 71.5326 347.193 71.9903 348.177 71.9682C349.08 71.946 352.081 69.9452 353.269 69.5687C354.613 69.1478 355.985 68.8894 357.37 68.8894Z" fill="#D38D00"/>
<path d="M321.135 131.462C317.869 128.634 304.589 119.08 304.46 117.744C304.215 115.234 303.407 113.248 298.458 111.535C298.458 111.535 298.064 112.332 298.75 113.211C299.49 114.163 300.087 114.495 300.087 114.495C300.087 114.495 298.77 115.027 296.828 113.344C294.887 111.66 294.079 110.206 293.25 110.553C293.25 110.553 292.286 109.586 291.824 109.733C291.824 109.733 291.485 109.837 291.546 110.235C290.779 110.095 290.915 112.495 292.252 114.466C294.18 117.294 297.582 119.449 299.578 120.269C301.072 120.882 310.869 136.637 317.434 138.343C319.322 138.815 322.655 132.776 321.135 131.462Z" fill="#FCDDC6"/>
<path d="M331.407 117.486C331.407 117.486 316.728 128.619 315.309 131.388C313.89 134.157 314.95 141.547 321.488 136.8C328.026 132.052 338.346 123.436 338.346 123.436L331.407 117.486Z" fill="#FCDDC6"/>
<path d="M338.95 107.349C338.95 107.349 334.917 108.457 332.229 111.934C329.975 114.85 326.342 119.546 326.342 119.546L337.477 128.952C337.484 128.945 340.199 111.845 338.95 107.349Z" fill="#56CCF2"/>
<path d="M366.278 153.433H337.816C337.816 153.433 337.932 148.125 336.35 139.878C334.761 131.638 335.555 127.327 337.137 123.022C338.726 118.718 335.895 108.765 338.95 107.348C340.193 106.772 342.352 105.842 344.47 104.948C345.006 104.727 345.536 104.498 346.045 104.284C348.503 103.25 350.574 102.394 350.574 102.394H355.7C355.7 102.394 359.23 103.664 362.856 105.236C363.331 105.443 363.813 105.657 364.288 105.871C364.288 105.879 364.288 105.879 364.288 105.879C366.115 106.713 367.86 107.592 369.048 108.396C372.897 110.98 366.278 153.433 366.278 153.433Z" fill="#56CCF2"/>
<path d="M348.849 88.6978L349.392 100.156L349.548 103.427C349.616 104.815 350.173 106.055 351.042 106.949C351.904 107.842 353.072 108.381 354.349 108.381C357.051 108.381 359.223 105.959 359.155 103.028L359.02 97.1957L358.789 87.5017L348.849 88.6978Z" fill="#FFDFC8"/>
<path d="M348.849 88.6978L349.392 99.4919C354.057 99.6986 357.465 97.6313 359.026 94.8848L358.796 87.5017L348.849 88.6978Z" fill="#DA9F74"/>
<path d="M345.142 79.8241C345.142 79.8241 344.796 83.5599 345.278 87.6871C345.835 92.4639 346.323 97.9348 352.115 98.4516C359.013 99.0644 361.314 90.441 361.314 90.441C361.314 90.441 364.519 89.6288 364.913 87.2515C365.307 84.8667 362.917 84.1506 362.082 84.9036C362.082 84.9036 361.131 74.8478 352.59 74.8478C345.04 74.8478 345.142 79.8241 345.142 79.8241Z" fill="#FFDFC8"/>
<path d="M364.288 105.871C364.288 105.879 364.288 105.879 364.288 105.871C358.45 113.609 351.565 113.247 351.565 113.247C346.133 111.955 344.47 104.948 344.47 104.948C345.006 104.727 345.536 104.498 346.045 104.284C348.503 103.25 350.574 102.394 350.574 102.394H355.7C355.7 102.394 359.23 103.664 362.856 105.236C363.331 105.443 363.813 105.657 364.288 105.871Z" fill="#04D361"/>
<path d="M362.856 105.236C356.901 112.272 351.741 111.534 351.741 111.534C346.194 109.223 346.045 104.284 346.045 104.284C348.503 103.25 350.574 102.394 350.574 102.394H355.7C355.7 102.394 359.23 103.664 362.856 105.236Z" fill="#FCDDC6"/>
<path d="M348.116 72.6767C348.116 72.6767 348.91 79.949 344.613 82.3485C344.613 82.3485 342.46 73.5405 348.116 72.6767Z" fill="#D38D00"/>
<path d="M346.812 73.3716C346.812 73.3716 348.34 79.7063 352.128 80.0755C355.917 80.4446 355.245 83.7818 358.599 84.1657C360.595 84.3946 361.484 86.6538 361.484 86.6538C361.484 86.6538 361.776 84.4094 363.582 83.612C365.402 82.8146 359.312 66.0476 346.812 73.3716Z" fill="#D38D00"/>
<path d="M353.242 88.6178C353.242 89.0165 353.534 89.3339 353.9 89.3339C354.267 89.3339 354.559 89.0165 354.559 88.6178C354.559 88.2192 354.267 87.9018 353.9 87.9018C353.541 87.9018 353.242 88.2266 353.242 88.6178Z" fill="#60423D"/>
<path d="M347.281 88.6171C347.281 89.0158 347.573 89.3332 347.94 89.3332C348.306 89.3332 348.598 89.0158 348.598 88.6171C348.598 88.2185 348.3 87.9011 347.94 87.9011C347.573 87.9011 347.281 88.2259 347.281 88.6171Z" fill="#60423D"/>
<path d="M356.303 86.1217C356.303 86.1217 355.326 84.3722 353.242 84.9997" stroke="#561E15" stroke-miterlimit="10" stroke-linecap="round" stroke-linejoin="round"/>
<path d="M349.657 84.9774C349.657 84.9774 348.15 83.4863 346.677 85.1177" stroke="#561E15" stroke-miterlimit="10" stroke-linecap="round" stroke-linejoin="round"/>
<path d="M350.974 86.7559C350.974 86.7559 350.261 88.7346 349.657 89.9675C349.052 91.2005 350.845 91.7469 350.845 91.7469" stroke="#DA9F74" stroke-width="0.75" stroke-miterlimit="10" stroke-linecap="round" stroke-linejoin="round"/>
<path d="M354.925 93.1501C354.925 93.1501 353.764 94.9882 351.741 94.4641" stroke="#DA9F74" stroke-width="0.75" stroke-miterlimit="10" stroke-linecap="round" stroke-linejoin="round"/>
<path d="M362.061 88.115C362.061 88.115 362.082 85.8857 363.609 86.4984" stroke="#DA9F74" stroke-width="0.75" stroke-miterlimit="10" stroke-linecap="round" stroke-linejoin="round"/>
<path d="M338.4 146.065H312.329C311.813 146.065 311.392 145.607 311.392 145.046C311.392 144.485 311.813 144.027 312.329 144.027H338.4C338.916 144.027 339.337 144.485 339.337 145.046C339.33 145.614 338.916 146.065 338.4 146.065Z" fill="#04D361"/>
<path d="M309.523 121.966L309.523 121.966L309.523 121.965C309.366 121.289 309.849 120.724 310.366 120.724H333.851C334.225 120.724 334.59 121.003 334.694 121.464L334.694 121.465L339.728 143.535H314.445L309.523 121.966Z" fill="#04D361" stroke="#04D361"/>
<path d="M338.55 144.035H312.24L307.23 122.078C307.013 121.14 307.671 120.225 308.561 120.225H332.045C332.677 120.225 333.227 120.69 333.376 121.354L338.55 144.035Z" fill="white"/>
<path d="M358.578 146.065H338.848C338.366 146.065 337.972 145.637 337.972 145.113V144.987C337.972 144.463 338.366 144.035 338.848 144.035H358.578C359.06 144.035 359.454 144.463 359.454 144.987V145.113C359.461 145.644 359.067 146.065 358.578 146.065Z" fill="#04D361"/>
<path d="M323.379 130.904L323.379 130.905C323.588 131.494 323.601 132.087 323.469 132.56C323.336 133.036 323.075 133.349 322.767 133.481C322.469 133.605 322.106 133.565 321.735 133.322C321.361 133.076 321.007 132.637 320.798 132.047C320.589 131.458 320.576 130.863 320.708 130.389C320.841 129.91 321.103 129.599 321.409 129.471C321.708 129.346 322.072 129.385 322.443 129.628C322.816 129.872 323.169 130.31 323.379 130.904Z" fill="#04D361" stroke="#04D361"/>
<path d="M367.717 144.034L366.006 119.921L369.292 130.073L367.717 144.034Z" fill="#56CCF2"/>
<path d="M367.941 122.373C367.941 122.373 372.001 146.103 373.006 149.986C373.658 152.496 378.397 154.209 379.884 150.887C380.21 150.156 380.135 148.938 380.101 147.697C379.87 140.026 374.934 120.505 374.934 120.505L367.941 122.373Z" fill="#FCDDC6"/>
<path d="M369.055 108.396C369.055 108.396 371.478 109.747 373.515 113.565C375.552 117.382 378.363 124.115 378.186 125.747C377.127 128.884 368.763 132.133 368.763 132.133C368.763 132.133 363.175 112.162 369.055 108.396Z" fill="#56CCF2"/>
<path d="M373.746 145.4C373.746 145.4 360.853 145.09 358.409 143.51C355.095 141.362 354.328 142.292 352.407 141.775C349.324 140.941 349.664 141.62 349.664 141.62C349.664 141.62 349.806 143.562 352.189 143.805C353.391 143.931 355.19 144.485 354.81 144.802C354.81 144.802 345.251 145.887 343.329 146.072C341.408 146.257 342.345 147.866 343.811 148.235C343.811 148.235 344.687 149.439 346.106 149.07C346.106 149.07 345.794 149.749 349.474 149.749C353.154 149.749 356.847 147.623 358.714 148.545C360.581 149.468 370.664 153.714 377.059 152.732C380.115 152.259 380.135 150.664 380.135 148.981C380.135 146.065 378.152 145.696 373.746 145.4Z" fill="#FCDDC6"/>
<path d="M106.255 258.03L101.998 277.159H94.4954L96.3014 258.03H106.255Z" fill="#A67A62"/>
<path d="M93.6809 273.158C93.6809 273.158 90.422 278.88 92.8662 279.898C95.3104 280.917 111.401 281.006 115.373 280.364C119.345 279.714 106.513 273.8 103.58 272.87C100.647 271.939 99.6964 276.79 93.6809 273.158Z" fill="#56CCF2"/>
<path d="M82.6271 258.03L80.0539 277.159H72.5516L72.6738 258.03H82.6271Z" fill="#A67A62"/>
<path d="M71.7373 273.158C71.7373 273.158 68.4784 278.88 70.9226 279.898C73.3668 280.917 89.4578 281.006 93.4296 280.364C97.4015 279.714 84.5694 273.8 81.6363 272.87C78.7033 271.939 77.7528 276.79 71.7373 273.158Z" fill="#56CCF2"/>
<path d="M70.0197 165.513L70.5765 267.591H82.4852L90.8973 192.594L100.484 223.027L93.3076 267.599H106.262C106.262 267.599 117.648 229.081 117.186 221.521C116.724 213.953 103.58 162.404 103.58 162.404L70.0197 165.513Z" fill="#D8D8E3"/>
<path d="M92.8359 197.111L91.3975 192.54L92.0681 185.142L92.8359 197.111Z" fill="#C9C9D4" stroke="#C9C9D4"/>
<path d="M76.7419 164.281L76.0556 267.6" stroke="#C9C9D4" stroke-miterlimit="10"/>
<path d="M113.207 118.762C113.207 118.762 120.9 134.584 121.07 139.443C121.239 144.301 116.317 143.215 113.771 138.837C111.225 134.452 107.151 122.018 107.151 122.018L113.207 118.762Z" fill="#A67A62"/>
<path d="M114.647 120.085C114.647 120.085 112.44 124.352 107.151 126.958C106.058 127.497 105.135 126.072 104.449 124.382C103.655 122.41 103.193 120.085 103.193 120.085C103.193 120.085 97.13 99.6851 102.473 100.416C102.473 100.416 107.022 100.763 110.363 107.925C111.238 109.793 112.603 113.558 113.744 117.131C114.07 118.15 114.375 119.147 114.647 120.085Z" fill="#56CCF2"/>
<path d="M114.647 120.084C114.647 120.084 112.44 124.352 107.151 126.958C106.058 127.497 105.135 126.072 104.449 124.381C106.52 123.37 110.437 121.096 113.744 117.131C114.07 118.15 114.375 119.147 114.647 120.084Z" fill="#04D361"/>
<path d="M103.852 163.518C100.491 167.668 78.3639 167.055 70.0129 165.512C68.5463 165.239 67.1002 164.626 69.4154 159.074C70.2844 156.999 69.911 151.661 69.7616 144.322C69.4697 129.814 65.5114 105.745 70.3931 102.984C73.3193 101.323 79.5317 99.1376 84.0467 97.6462C84.3182 97.565 84.583 97.4764 84.841 97.3878C87.4753 96.5313 89.356 95.9628 89.356 95.9628C89.356 95.9628 91.5354 96.3098 95.9689 97.7348C96.2066 97.8086 96.4646 97.8972 96.7226 97.9784C97.8768 98.3623 99.16 98.8053 100.593 99.3369C103.369 100.363 105.406 100.991 105.902 101.995C107.226 104.631 106.717 109.304 106.798 116.038C106.907 124.491 106.825 159.856 103.852 163.518Z" fill="#56CCF2"/>
<path d="M68.7228 127.895L73.4958 115.241L70.0196 147.793L68.7228 127.895Z" fill="#56CCF2"/>
<path d="M96.7226 97.9863C96.6207 99.773 95.8807 101.346 94.7672 102.497C93.6266 103.679 92.0854 104.395 90.4084 104.395C86.939 104.395 84.1281 101.375 84.0602 97.6393C84.3318 97.5581 84.5966 97.4695 84.8546 97.3809C87.4889 96.5244 89.3696 95.9559 89.3696 95.9559C89.3696 95.9559 91.549 96.3029 95.9825 97.7279C96.2134 97.8239 96.4646 97.9051 96.7226 97.9863Z" fill="#04D361"/>
<path d="M99.616 70.1326C99.616 70.1326 97.1019 67.5199 93.2978 66.8983C87.7334 65.9891 80.4071 67.9578 78.9478 77.1952C77.7936 82.5184 83.7615 91.2674 86.0156 90.7579C86.0156 90.7579 106.306 76.7909 99.616 70.1326Z" fill="#43302D"/>
<path d="M95.9621 82.9332L95.419 94.3917L95.2628 97.6625C95.2017 99.0505 94.6382 100.291 93.7691 101.184C92.9069 102.078 91.7391 102.617 90.4627 102.617C87.7605 102.617 85.5878 100.195 85.6557 97.2638L85.7915 91.4311L86.0224 81.7371L95.9621 82.9332Z" fill="#A67A62"/>
<path d="M95.9622 85.2147L95.419 96.0088C90.7547 96.2155 87.3464 94.1482 85.7848 91.4017L86.0156 84.0186L95.9622 85.2147Z" fill="#765441"/>
<path d="M99.6624 76.3392C99.6624 76.3392 100.009 80.075 99.5266 84.2022C98.9699 88.979 99.1667 94.5902 92.6896 94.9667C85.7779 95.3654 83.4899 86.9561 83.4899 86.9561C83.4899 86.9561 79.8168 86.2104 79.5656 83.5155C79.3144 80.8207 81.8808 80.6657 82.7159 81.4187C82.7159 81.4187 83.6664 71.3629 92.2076 71.3629C99.7642 71.3703 99.6624 76.3392 99.6624 76.3392Z" fill="#A67A62"/>
<path d="M91.7593 83.5583C91.7593 83.9717 91.4538 84.3039 91.0736 84.3039C90.6935 84.3039 90.388 83.9717 90.388 83.5583C90.388 83.145 90.6935 82.8128 91.0736 82.8128C91.447 82.8128 91.7593 83.145 91.7593 83.5583Z" fill="#60423D"/>
<path d="M98.3654 83.175C98.3654 83.5884 98.0599 83.9206 97.6798 83.9206C97.2996 83.9206 96.9941 83.5884 96.9941 83.175C96.9941 82.7616 97.2996 82.4294 97.6798 82.4294C98.0599 82.4294 98.3654 82.7616 98.3654 83.175Z" fill="#60423D"/>
<path d="M88.3715 81.4266C88.3715 81.4266 89.383 79.6107 91.5484 80.2676" stroke="#43302D" stroke-miterlimit="10" stroke-linecap="round" stroke-linejoin="round"/>
<path d="M95.2695 80.237C95.2695 80.237 96.8308 78.6868 98.365 80.3847" stroke="#43302D" stroke-miterlimit="10" stroke-linecap="round" stroke-linejoin="round"/>
<path d="M93.905 82.0819C93.905 82.0819 94.645 84.1344 95.2764 85.4191C95.9078 86.6964 94.0407 87.2649 94.0407 87.2649" stroke="#765441" stroke-width="0.75" stroke-miterlimit="10" stroke-linecap="round" stroke-linejoin="round"/>
<path d="M91.42 89.5621C91.42 89.5621 92.9474 91.1713 94.9092 90.1895" stroke="#765441" stroke-width="0.75" stroke-miterlimit="10" stroke-linecap="round" stroke-linejoin="round"/>
<path d="M82.6071 84.3853C82.6071 84.3853 82.5867 82.0748 80.9982 82.7022" stroke="#765441" stroke-width="0.75" stroke-miterlimit="10" stroke-linecap="round" stroke-linejoin="round"/>
<path d="M84.7054 73.6368C84.7054 73.6368 88.5889 77.9412 86.4638 79.5876C84.1011 81.4186 83.7277 84.0175 83.7277 84.0175C83.7277 84.0175 83.7752 83.102 82.7228 81.426C81.6705 79.7501 79.3756 73.7993 84.7054 73.6368Z" fill="#43302D"/>
<path d="M63.4408 119.611C63.4408 119.611 55.7483 135.433 55.5786 140.291C55.4089 145.149 60.3312 144.064 62.8773 139.686C65.4233 135.3 69.497 122.867 69.497 122.867L63.4408 119.611Z" fill="#A67A62"/>
<path d="M118.293 134.091C118.293 134.091 106.825 124.862 106.173 124.338C105.067 123.437 103.451 122.131 102.867 121.688C101.944 120.986 96.546 119.967 95.7924 120.1C95.0456 120.233 92.9748 120.617 92.3705 120.861C91.7663 121.104 92.5267 121.946 93.1241 122.345C93.7216 122.743 96.3695 124.235 98.6168 124.685C99.8661 124.936 100.939 125.623 101.815 126.309C102.514 126.856 114.613 140.271 115.068 140.596L118.293 134.091Z" fill="#A67A62"/>
<path d="M104.096 122.766C104.096 122.766 99.7778 118.373 99.1328 118.439C98.4946 118.506 98.9495 119.495 100.647 120.994C101.224 121.503 101.842 122.308 102.358 122.574C103.369 123.091 104.096 122.766 104.096 122.766Z" fill="#A67A62"/>
<path d="M100.599 138.496L100.596 138.496L84.8518 140.541C84.3455 140.607 83.8114 140.073 83.9762 139.382C83.9762 139.382 83.9763 139.382 83.9763 139.382L87.7376 123.656L87.7376 123.656C87.8307 123.266 88.1204 123.018 88.4262 122.98L88.4262 122.98L88.4292 122.979L104.173 120.934C104.174 120.934 104.174 120.934 104.174 120.934C104.68 120.869 105.214 121.403 105.049 122.094C105.049 122.094 105.049 122.094 105.049 122.094L101.288 137.82L101.288 137.82C101.195 138.21 100.905 138.458 100.599 138.496Z" fill="#04D361" stroke="#04D361"/>
<path d="M101.36 139.518L85.6156 141.563C84.699 141.681 83.9589 140.758 84.1898 139.791L87.9511 124.065C88.0869 123.497 88.5282 123.076 89.0646 123.009L104.809 120.964C105.726 120.846 106.466 121.769 106.235 122.736L102.474 138.462C102.338 139.023 101.897 139.444 101.36 139.518Z" fill="white"/>
<path d="M89.1285 127.177L88.5391 127.252L89.2575 124.256L89.8469 124.182L89.1285 127.177ZM89.6071 127.326L90.347 124.24L88.039 127.193C87.9643 127.503 88.2019 127.798 88.4938 127.762L89.2541 127.666C89.4238 127.636 89.5664 127.503 89.6071 127.326Z" fill="#04D361" stroke="#04D361"/>
<path d="M58.5184 135.611C63.3253 135.818 78.3504 135.478 80.3397 134.74C81.1952 134.422 83.2999 133.943 83.8363 133.034C84.3794 132.112 84.8411 130.709 85.4046 130.605C85.8391 130.524 85.7373 132.045 85.6083 132.599C85.3639 133.596 85.2009 134.112 84.875 134.57C84.7664 134.725 88.4667 135.301 90.7887 134.659C92.3842 134.216 92.0854 135.604 91.0127 136.187C91.0127 136.187 91.4404 137.398 90.3134 137.797C90.3134 137.797 90.5103 139.14 89.424 139.244C89.3086 139.576 88.9691 140.174 88.0321 140.462C86.6742 140.875 84.3183 140.868 82.5259 140.949C81.4667 140.993 60.9965 144.471 57.3777 143.482C55.8705 143.068 56.9568 135.545 58.5184 135.611Z" fill="#A67A62"/>
<path d="M72.3145 121.738C72.3145 121.738 71.9614 123.192 71.4386 124.691C70.8547 126.345 70.0604 128.043 69.2796 127.888C69.2796 127.888 58.6609 124.241 59.0139 123.059C59.2787 122.181 59.7336 121.036 60.2971 119.766C62.0556 115.794 64.846 110.611 65.9731 108.603C69.8159 101.744 71.3911 102.616 71.3911 102.616C76.7751 102.335 72.3145 121.738 72.3145 121.738Z" fill="#56CCF2"/>
<path d="M71.4386 124.692C70.8547 126.345 70.0604 128.044 69.2796 127.889C69.2796 127.889 58.6609 124.241 59.0139 123.06C59.2787 122.181 59.7336 121.037 60.2971 119.767C62.2525 120.771 67.5279 123.407 71.4386 124.692Z" fill="#04D361"/>
<path d="M74.8062 157.021C74.8062 157.021 92.4587 153.942 101.964 147.792C101.964 147.792 91.3317 159.362 74.8062 157.021Z" fill="#56CCF2"/>
<path d="M314.875 31.3627H303.108C300.922 31.3627 299.15 29.4357 299.15 27.0584V14.2634C299.15 11.8861 300.922 9.95908 303.108 9.95908H314.875C317.061 9.95908 318.833 11.8861 318.833 14.2634V27.0584C318.833 29.4357 317.061 31.3627 314.875 31.3627Z" fill="#2D9CDB"/>
<path d="M315.689 19.5565L315.397 18.1537C315.343 17.8805 315.085 17.7107 314.833 17.7698L314.073 17.9618C313.876 18.0134 313.679 17.9101 313.571 17.7255C313.272 17.2161 312.905 16.7583 312.484 16.3744C312.315 16.2194 312.26 15.9683 312.355 15.7542L312.735 14.9052C312.851 14.6541 312.749 14.344 312.518 14.2259L311.323 13.5983C311.092 13.4728 310.807 13.5836 310.699 13.8346L310.291 14.7575C310.203 14.9642 309.993 15.0676 309.789 15.0381C309.538 15.0011 309.273 14.979 309.015 14.979C308.75 14.979 308.492 15.0011 308.241 15.0381C308.03 15.0676 307.827 14.9642 307.738 14.7575L307.331 13.8346C307.216 13.5836 306.937 13.4728 306.706 13.5983L305.511 14.2259C305.281 14.3514 305.179 14.6541 305.294 14.9052L305.674 15.7542C305.769 15.9683 305.708 16.2194 305.545 16.3744C305.124 16.7657 304.751 17.2161 304.459 17.7255C304.35 17.9101 304.154 18.0134 303.957 17.9618L303.196 17.7698C302.945 17.7107 302.694 17.8805 302.633 18.1537L302.341 19.5565C302.286 19.8297 302.443 20.1029 302.694 20.1693L303.658 20.4056C303.651 20.5532 303.638 20.6935 303.638 20.8412C303.638 21.5426 303.753 22.2218 303.963 22.842C304.031 23.0487 303.984 23.285 303.821 23.4253L303.447 23.7501C303.244 23.9273 303.21 24.2448 303.373 24.4663L304.16 25.5959C304.323 25.8174 304.615 25.8543 304.819 25.6771L305.077 25.4482C305.253 25.3006 305.498 25.308 305.668 25.4556C306.211 25.9134 306.829 26.2678 307.508 26.4819C307.711 26.5483 307.861 26.7403 307.861 26.9765V27.2719C307.861 27.5524 308.071 27.7813 308.329 27.7813H309.653C309.911 27.7813 310.122 27.5524 310.122 27.2719V26.9765C310.122 26.7403 310.271 26.5483 310.475 26.4819C311.153 26.2678 311.771 25.9208 312.315 25.4556C312.491 25.308 312.735 25.2932 312.905 25.4482L313.163 25.6771C313.367 25.8543 313.659 25.8174 313.822 25.5959L314.65 24.4737C314.813 24.2522 314.779 23.9347 314.575 23.7575L314.202 23.4326C314.039 23.2924 313.991 23.0561 314.059 22.8494C314.27 22.2218 314.385 21.55 314.385 20.8486C314.385 20.7009 314.372 20.5606 314.365 20.413L315.329 20.1767C315.587 20.1029 315.743 19.8297 315.689 19.5565ZM308.994 24.4884C307.141 24.4884 305.64 22.8568 305.64 20.8412C305.64 18.8256 307.141 17.1939 308.994 17.1939C310.848 17.1939 312.348 18.8256 312.348 20.8412C312.348 22.8568 310.848 24.4884 308.994 24.4884Z" fill="white"/>
<path d="M22.6342 58.5893H77.3361C80.9975 58.5893 83.9703 54.959 83.9703 50.488V30.1013C83.9703 25.6302 80.9975 22 77.3361 22H22.6342C18.9728 22 16 25.6302 16 30.1013V50.488C16 54.9689 18.9728 58.5893 22.6342 58.5893Z" fill="#2D9CDB"/>
<path d="M75.8212 56.4922V65.3749L68.0206 55.8591L75.8212 56.4922Z" fill="#2D9CDB"/>
<path d="M22.2857 30.9818H37.4496" stroke="white" stroke-miterlimit="10" stroke-linecap="round" stroke-linejoin="round"/>
<path d="M42.8526 30.982H77.6843" stroke="white" stroke-miterlimit="10" stroke-linecap="round" stroke-linejoin="round"/>
<path d="M22.2856 40.3014H50.5559" stroke="white" stroke-miterlimit="10" stroke-linecap="round" stroke-linejoin="round"/>
<path d="M54.8816 40.3006H63.2493" stroke="white" stroke-miterlimit="10" stroke-linecap="round" stroke-linejoin="round"/>
<path d="M67.737 40.3006H77.6843" stroke="white" stroke-miterlimit="10" stroke-linecap="round" stroke-linejoin="round"/>
<path d="M22.2856 49.6076H28.6849" stroke="white" stroke-miterlimit="10" stroke-linecap="round" stroke-linejoin="round"/>
<path d="M32.6056 49.6072H55.6917" stroke="white" stroke-miterlimit="10" stroke-linecap="round" stroke-linejoin="round"/>
<path d="M284.991 221.01H239.087C236.826 221.01 235 219.016 235 216.565V192.445C235 189.986 236.833 188 239.087 188H284.991C287.252 188 289.078 189.993 289.078 192.445V216.558C289.085 219.016 287.252 221.01 284.991 221.01Z" fill="#2D9CDB"/>
<path d="M239.868 212.482C244.145 212.482 244.145 206.945 248.422 206.945C252.7 206.945 252.7 199.562 256.977 199.562C261.254 199.562 261.254 202.39 265.532 202.39C269.809 202.39 269.809 195.56 274.087 195.56C278.364 195.56 278.364 206.273 282.641 206.273" stroke="white" stroke-miterlimit="10" stroke-linecap="round" stroke-linejoin="round"/>
<path d="M241.117 212.482C241.117 211.736 240.56 211.131 239.875 211.131C239.189 211.131 238.632 211.736 238.632 212.482C238.632 213.227 239.189 213.833 239.875 213.833C240.56 213.833 241.117 213.227 241.117 212.482Z" fill="white"/>
<path d="M283.89 206.28C283.89 205.534 283.334 204.929 282.648 204.929C281.962 204.929 281.406 205.534 281.406 206.28C281.406 207.026 281.962 207.631 282.648 207.631C283.334 207.631 283.89 207.026 283.89 206.28Z" fill="white"/>
<path d="M419.314 116.08C420.525 108.011 415.489 100.414 408.067 99.1108C400.645 97.8079 393.646 103.293 392.435 111.362C391.225 119.431 396.26 127.029 403.682 128.332C411.105 129.634 418.103 124.149 419.314 116.08Z" fill="#2D9CDB"/>
<path d="M413.314 115.673C414.286 111.201 411.74 106.72 407.627 105.665C403.514 104.61 399.392 107.38 398.42 111.852C397.448 116.324 399.995 120.805 404.107 121.86C408.22 122.915 412.342 120.145 413.314 115.673Z" fill="#2D9CDB" stroke="white" stroke-miterlimit="10" stroke-linecap="round" stroke-linejoin="round"/>
<path d="M405.853 108.293V113.735L403.212 116.607" fill="#2D9CDB"/>
<path d="M405.853 108.293V113.735L403.212 116.607" stroke="white" stroke-miterlimit="10" stroke-linecap="round" stroke-linejoin="round"/>
<path d="M405.853 105.414V106.211" stroke="white" stroke-miterlimit="10" stroke-linecap="round" stroke-linejoin="round"/>
<path d="M405.853 121.266V122.056" stroke="white" stroke-miterlimit="10" stroke-linecap="round" stroke-linejoin="round"/>
<path d="M413.506 113.735H412.772" stroke="white" stroke-miterlimit="10" stroke-linecap="round" stroke-linejoin="round"/>
<path d="M398.935 113.735H398.202" stroke="white" stroke-miterlimit="10" stroke-linecap="round" stroke-linejoin="round"/>
</svg>
